<svg width="23" height="23" viewBox="0 0 23 23" fill="none" xmlns="http://www.w3.org/2000/svg">
<path d="M5.57935 16V22" stroke="#702B68" stroke-width="1.2" stroke-linejoin="round"/>
<path d="M3.21069 16V22" stroke="#702B68" stroke-width="1.2" stroke-linejoin="round"/>
<path d="M17.4207 16V22" stroke="#702B68" stroke-width="1.2" stroke-linejoin="round"/>
<path d="M19.7893 16V22" stroke="#702B68" stroke-width="1.2" stroke-linejoin="round"/>
<path d="M10.3162 16V22" stroke="#702B68" stroke-width="1.2" stroke-linejoin="round"/>
<path d="M7.94751 16V22" stroke="#702B68" stroke-width="1.2" stroke-linejoin="round"/>
<path d="M12.6838 16V22" stroke="#702B68" stroke-width="1.2" stroke-linejoin="round"/>
<path d="M15.0525 16V22" stroke="#702B68" stroke-width="1.2" stroke-linejoin="round"/>
<path d="M1 16H22V20C22 21.1046 21.1046 22 20 22H3C1.89543 22 1 21.1046 1 20V16Z" stroke="#702B68" stroke-width="1.2" stroke-linejoin="round"/>
<path d="M19.75 16V9.03125C19.75 6.94267 18.9203 4.93963 17.4435 3.46278C15.9666 1.98594 13.9636 1.15625 11.875 1.15625C9.78642 1.15625 7.78338 1.98594 6.30653 3.46278C4.82968 4.93963 4 6.94267 4 9.03125V16" stroke="#702B68" stroke-width="1.2" stroke-linejoin="round"/>
<path d="M4.15625 9H19.9062" stroke="#702B68" stroke-width="1.2" stroke-linejoin="round"/>
<path d="M9.15625 9V16" stroke="#702B68" stroke-width="1.2" stroke-linejoin="round"/>
<path d="M14.1562 9V16" stroke="#702B68" stroke-width="1.2" stroke-linejoin="round"/>
<path d="M12.1562 1V9" stroke="#702B68" stroke-width="1.2" stroke-linejoin="round"/>
<path d="M6.15625 3L11.8131 8.65685" stroke="#702B68" stroke-width="1.2" stroke-linejoin="round"/>
<path d="M17.813 3L12.1561 8.65685" stroke="#702B68" stroke-width="1.2" stroke-linejoin="round"/>
</svg>
