<svg width="22" height="22" viewBox="0 0 22 22" fill="none" xmlns="http://www.w3.org/2000/svg">
<path fill-rule="evenodd" clip-rule="evenodd" d="M8.98131 8.58448C9.09188 8.36053 9.31999 8.21875 9.56975 8.21875C11.2342 8.21875 12.9167 9.16141 14.1599 10.4746C15.409 11.7941 16.3125 13.5886 16.3125 15.4375C16.3125 16.8422 15.9763 18.3071 15.1348 19.4385C14.2727 20.5976 12.9246 21.3438 11.0625 21.3438C9.75322 21.3438 8.45858 20.8446 7.48602 20.0401C6.51323 19.2355 5.8125 18.079 5.8125 16.75C5.8125 15.4841 6.08784 14.3558 6.66001 13.5235C7.24813 12.668 8.13369 12.1562 9.225 12.1562C9.41887 12.1562 9.60282 12.242 9.72751 12.3904C9.8522 12.5389 9.90487 12.7349 9.87139 12.9258C9.81395 13.2534 9.76884 13.5372 9.74993 13.7852C9.7307 14.0376 9.74296 14.2064 9.77228 14.3153C9.7971 14.4075 9.82556 14.4301 9.84571 14.4434C9.88051 14.4665 9.98951 14.5188 10.2584 14.5188C10.5605 14.5188 10.6811 14.4136 10.7582 14.2748C10.8649 14.0829 10.9316 13.7271 10.8618 13.1835C10.7241 12.1113 10.0968 10.6425 9.04875 9.27402C8.89688 9.07573 8.87074 8.80843 8.98131 8.58448ZM10.9921 9.82649C11.6284 10.9312 12.04 12.0538 12.1636 13.0164C12.25 13.6895 12.2064 14.3712 11.9053 14.9126C11.5747 15.5072 10.9901 15.8313 10.2584 15.8313C9.83817 15.8313 9.44471 15.7523 9.12059 15.5374C8.78183 15.3129 8.59493 14.9909 8.50491 14.6565C8.41939 14.3389 8.41732 13.9992 8.44123 13.6855C8.44241 13.6701 8.44365 13.6546 8.44497 13.6391C8.17067 13.7727 7.93651 13.9835 7.74158 14.2671C7.36635 14.8129 7.125 15.6534 7.125 16.75C7.125 17.5962 7.57271 18.4085 8.32258 19.0288C9.07267 19.6493 10.0749 20.0312 11.0625 20.0312C12.5306 20.0312 13.4794 19.4649 14.0816 18.6552C14.7045 17.8179 15 16.6578 15 15.4375C15 14.0051 14.2874 12.5184 13.2068 11.3769C12.5379 10.6704 11.765 10.1342 10.9921 9.82649Z" fill="#702B68"/>
<path fill-rule="evenodd" clip-rule="evenodd" d="M0.5625 20.6875C0.5625 20.3251 0.856313 20.0312 1.21875 20.0312H20.9062C21.2687 20.0312 21.5625 20.3251 21.5625 20.6875C21.5625 21.0499 21.2687 21.3438 20.9062 21.3438H1.21875C0.856313 21.3438 0.5625 21.0499 0.5625 20.6875Z" fill="#702B68"/>
<path fill-rule="evenodd" clip-rule="evenodd" d="M2.53125 1.65625C2.16881 1.65625 1.875 1.95006 1.875 2.3125V4.9375C1.875 5.29994 2.16881 5.59375 2.53125 5.59375H19.5938C19.9562 5.59375 20.25 5.29994 20.25 4.9375V2.3125C20.25 1.95006 19.9562 1.65625 19.5938 1.65625H2.53125ZM0.5625 2.3125C0.5625 1.22519 1.44394 0.34375 2.53125 0.34375H19.5938C20.6811 0.34375 21.5625 1.22519 21.5625 2.3125V4.9375C21.5625 6.02481 20.6811 6.90625 19.5938 6.90625H2.53125C1.44394 6.90625 0.5625 6.02481 0.5625 4.9375V2.3125Z" fill="#702B68"/>
<path fill-rule="evenodd" clip-rule="evenodd" d="M2.53125 5.59375C2.89369 5.59375 3.1875 5.88756 3.1875 6.25V20.6875C3.1875 21.0499 2.89369 21.3438 2.53125 21.3438C2.16881 21.3438 1.875 21.0499 1.875 20.6875V6.25C1.875 5.88756 2.16881 5.59375 2.53125 5.59375Z" fill="#702B68"/>
<path fill-rule="evenodd" clip-rule="evenodd" d="M19.5938 5.59375C19.9562 5.59375 20.25 5.88756 20.25 6.25V20.6875C20.25 21.0499 19.9562 21.3438 19.5938 21.3438C19.2313 21.3438 18.9375 21.0499 18.9375 20.6875V6.25C18.9375 5.88756 19.2313 5.59375 19.5938 5.59375Z" fill="#702B68"/>
</svg>
