<svg width="22" height="22" viewBox="0 0 22 22" fill="none" xmlns="http://www.w3.org/2000/svg">
<path d="M11.4651 15.9734C11.4265 15.6395 11.5176 15.3035 11.7194 15.0347C11.9213 14.7659 12.2186 14.5848 12.5501 14.5288C13.098 14.4452 13.6056 14.1911 14.0008 13.8025C15.2827 12.5215 14.9633 10.1223 13.2842 8.44489C11.6051 6.76751 9.20757 6.44639 7.92657 7.72826C7.53796 8.12345 7.28383 8.63109 7.20032 9.17901C7.14427 9.51046 6.96319 9.80776 6.6944 10.0096C6.42562 10.2115 6.08962 10.3026 5.75569 10.264C5.13037 10.1683 4.49144 10.2169 3.88781 10.4062C3.28419 10.5954 2.73188 10.9204 2.27319 11.356C0.479442 13.1498 0.838192 16.417 3.07732 18.6518C5.31644 20.8865 8.58194 21.247 10.3757 19.4533C10.8105 18.9946 11.1347 18.4426 11.3235 17.8395C11.5123 17.2364 11.5607 16.5981 11.4651 15.9734V15.9734Z" stroke="#702B68" stroke-width="1.3125" stroke-linecap="round" stroke-linejoin="round"/>
<path d="M15.6045 4.26924L18.8528 1.02097L20.7089 2.87712L17.4606 6.1254L15.6045 4.26924Z" stroke="#702B68" stroke-width="1.3125" stroke-linecap="round" stroke-linejoin="round"/>
<path d="M16.5322 5.19687L13.2842 8.44487" stroke="#702B68" stroke-width="1.3125" stroke-linecap="round" stroke-linejoin="round"/>
<path d="M16.9958 1.02051L17.9242 1.94888" stroke="#702B68" stroke-width="1.3125" stroke-linecap="round" stroke-linejoin="round"/>
<path d="M19.78 3.80475L20.7084 4.73312" stroke="#702B68" stroke-width="1.3125" stroke-linecap="round" stroke-linejoin="round"/>
<path d="M18.3879 5.19687L19.3163 6.12524" stroke="#702B68" stroke-width="1.3125" stroke-linecap="round" stroke-linejoin="round"/>
<path d="M15.6038 2.41263L16.5321 3.341" stroke="#702B68" stroke-width="1.3125" stroke-linecap="round" stroke-linejoin="round"/>
<path d="M8.72266 11.6938C8.72266 11.8661 8.7566 12.0368 8.82256 12.196C8.88852 12.3553 8.9852 12.5 9.10708 12.6218C9.22896 12.7437 9.37364 12.8404 9.53288 12.9063C9.69212 12.9723 9.8628 13.0063 10.0352 13.0063C10.2075 13.0063 10.3782 12.9723 10.5374 12.9063C10.6967 12.8404 10.8414 12.7437 10.9632 12.6218C11.0851 12.5 11.1818 12.3553 11.2477 12.196C11.3137 12.0368 11.3477 11.8661 11.3477 11.6938C11.3477 11.5214 11.3137 11.3507 11.2477 11.1915C11.1818 11.0322 11.0851 10.8876 10.9632 10.7657C10.8414 10.6438 10.6967 10.5471 10.5374 10.4812C10.3782 10.4152 10.2075 10.3813 10.0352 10.3813C9.8628 10.3813 9.69212 10.4152 9.53288 10.4812C9.37364 10.5471 9.22896 10.6438 9.10708 10.7657C8.9852 10.8876 8.88852 11.0322 8.82256 11.1915C8.7566 11.3507 8.72266 11.5214 8.72266 11.6938V11.6938Z" stroke="#702B68" stroke-width="1.3125" stroke-linecap="round" stroke-linejoin="round"/>
<path d="M4.9314 14.9417L6.78727 16.7976" stroke="#702B68" stroke-width="1.3125" stroke-linecap="round" stroke-linejoin="round"/>
<path d="M8.67023 4.96587L6.28848 2.11425C6.02753 1.78815 5.70073 1.52076 5.32942 1.32954C4.95811 1.13832 4.55064 1.02757 4.13362 1.00452C3.7166 0.981479 3.29941 1.04665 2.90929 1.19579C2.51917 1.34493 2.1649 1.57468 1.8696 1.87004C1.5743 2.1654 1.34463 2.51972 1.19557 2.90987C1.04651 3.30002 0.981426 3.71723 1.00456 4.13424C1.02769 4.55126 1.13853 4.9587 1.32982 5.32997C1.52112 5.70124 1.78858 6.02799 2.11473 6.28887L4.30223 8.1255" stroke="#702B68" stroke-width="1.3125" stroke-linecap="round" stroke-linejoin="round"/>
<path d="M14.6167 16.7661L16.1234 18.0279L15.6859 18.4654C15.4397 18.7116 15.3014 19.0455 15.3014 19.3938C15.3014 19.742 15.4397 20.0759 15.6859 20.3221C15.9322 20.5684 16.2661 20.7067 16.6143 20.7067C16.9625 20.7067 17.2965 20.5684 17.5427 20.3221L20.3269 17.5379C20.5732 17.2917 20.7115 16.9577 20.7115 16.6095C20.7115 16.2613 20.5732 15.9274 20.3269 15.6811C20.0807 15.4349 19.7468 15.2966 19.3986 15.2966C19.0504 15.2966 18.7164 15.4349 18.4702 15.6811L18.0003 16.1519L16.8698 14.8018" stroke="#702B68" stroke-width="1.3125" stroke-linecap="round" stroke-linejoin="round"/>
</svg>
