<svg width="21" height="22" viewBox="0 0 21 22" fill="none" xmlns="http://www.w3.org/2000/svg">
<path d="M10.7394 1.30352C10.68 1.21048 10.5981 1.1339 10.5013 1.08085C10.4045 1.02781 10.2959 1 10.1855 1C10.0752 1 9.96655 1.02781 9.86975 1.08085C9.77295 1.1339 9.69107 1.21048 9.63167 1.30352L1.10042 14.4285C1.03818 14.5278 1.0036 14.6418 1.00027 14.7589C0.996931 14.876 1.02496 14.9919 1.08145 15.0945C1.13794 15.1972 1.22083 15.2828 1.32155 15.3426C1.42227 15.4025 1.53715 15.4343 1.65429 15.4348H18.7168C18.8343 15.4346 18.9497 15.4028 19.0508 15.3429C19.1519 15.2829 19.2351 15.1969 19.2916 15.0939C19.3482 14.9908 19.3761 14.8745 19.3724 14.757C19.3687 14.6395 19.3336 14.5252 19.2707 14.4259L10.7394 1.30352Z" stroke="#702B68" stroke-width="1.3125" stroke-linecap="round" stroke-linejoin="round"/>
<path d="M10.7394 20.3785C10.68 20.4716 10.5981 20.5481 10.5013 20.6012C10.4045 20.6542 10.2959 20.682 10.1855 20.682C10.0752 20.682 9.96655 20.6542 9.86975 20.6012C9.77295 20.5481 9.69107 20.4716 9.63167 20.3785L1.10042 7.25352C1.03818 7.15428 1.0036 7.0402 1.00027 6.9231C0.996931 6.806 1.02496 6.69014 1.08145 6.58751C1.13794 6.48489 1.22083 6.39923 1.32155 6.33941C1.42227 6.27958 1.53715 6.24777 1.65429 6.24727H18.7168C18.8339 6.24777 18.9488 6.27958 19.0495 6.33941C19.1503 6.39923 19.2332 6.48489 19.2896 6.58751C19.3461 6.69014 19.3742 6.806 19.3708 6.9231C19.3675 7.0402 19.3329 7.15428 19.2707 7.25352L10.7394 20.3785Z" stroke="#702B68" stroke-width="1.3125" stroke-linecap="round" stroke-linejoin="round"/>
</svg>
