<svg width="15" height="22" viewBox="0 0 15 22" fill="none" xmlns="http://www.w3.org/2000/svg">
<path fill-rule="evenodd" clip-rule="evenodd" d="M6.28455 13.4688C6.64698 13.4688 6.9408 13.7626 6.9408 14.125V20.6875C6.9408 21.0499 6.64698 21.3438 6.28455 21.3438C5.92211 21.3438 5.6283 21.0499 5.6283 20.6875V14.125C5.6283 13.7626 5.92211 13.4688 6.28455 13.4688Z" fill="#3E7E74"/>
<path fill-rule="evenodd" clip-rule="evenodd" d="M12.7669 16.0832C12.7377 16.0764 12.7073 16.0779 12.6789 16.0876C12.6485 16.0979 12.6174 16.1061 12.5858 16.1119C11.8624 16.2446 11.1913 16.5789 10.6498 17.0761C10.1527 17.6178 9.81832 18.2889 9.68543 19.0123C9.6797 19.0435 9.67171 19.0742 9.66154 19.1043C9.65196 19.1326 9.65048 19.163 9.65727 19.1921C9.66406 19.2212 9.67886 19.2478 9.69998 19.2689C9.72109 19.29 9.7477 19.3048 9.77679 19.3116C9.80587 19.3184 9.83628 19.3169 9.86457 19.3073C9.89464 19.2971 9.92541 19.2891 9.95664 19.2834C10.6802 19.1506 11.3515 18.8166 11.8937 18.3198C12.3906 17.7781 12.7249 17.1071 12.8579 16.3837C12.8637 16.3522 12.8718 16.3211 12.8822 16.2908C12.8918 16.2625 12.8933 16.232 12.8865 16.2029C12.8798 16.1737 12.865 16.1471 12.8438 16.1259C12.8226 16.1048 12.796 16.09 12.7669 16.0832ZM12.358 18.7844L12.8043 19.2655C12.0865 19.9314 11.1962 20.3821 10.2351 20.5666C9.98946 20.64 9.72858 20.6481 9.47833 20.5897C9.21083 20.5272 8.96614 20.3912 8.7719 20.197C8.57766 20.0027 8.44162 19.758 8.37916 19.4905C8.32071 19.2403 8.32885 18.9794 8.40232 18.7337C8.58691 17.7726 9.03805 16.8824 9.70459 16.1651C9.71549 16.1533 9.72682 16.142 9.73855 16.1311C10.4557 15.4644 11.3458 15.0133 12.3069 14.8288C12.5526 14.755 12.8137 14.7465 13.0642 14.8048C13.3322 14.8672 13.5773 15.0033 13.7719 15.1978C13.9664 15.3924 14.1026 15.6375 14.1649 15.9055C14.2232 16.1561 14.2148 16.4172 14.1409 16.663C13.9561 17.6238 13.5051 18.5137 12.8388 19.231L12.358 18.7844Z" fill="#3E7E74"/>
<path fill-rule="evenodd" clip-rule="evenodd" d="M1.66885 2.70428C1.99952 2.55589 2.38787 2.70365 2.53627 3.03432C3.43649 5.04033 5.70033 6.2567 8.774 5.6079C8.96757 5.56704 9.16924 5.61569 9.32289 5.74029C9.47655 5.8649 9.56579 6.05217 9.56579 6.25V8.875L9.56579 8.87689C9.56229 10.0937 9.07738 11.2596 8.217 12.12C7.35661 12.9803 6.19069 13.4653 4.97393 13.4688L4.97204 13.4688H2.81254C2.4501 13.4688 2.15629 13.1749 2.15629 12.8125C2.15629 12.4501 2.4501 12.1563 2.81254 12.1563H4.9711C5.84073 12.1535 6.67398 11.8068 7.28892 11.1919C7.9039 10.5769 8.25058 9.7436 8.25329 8.87391V7.02546C5.05293 7.42589 2.44839 6.04419 1.33882 3.57169C1.19042 3.24102 1.33819 2.85267 1.66885 2.70428Z" fill="#3E7E74"/>
<path fill-rule="evenodd" clip-rule="evenodd" d="M6.94083 3.62501L6.93877 2.96875C6.53743 2.97001 6.1417 3.06307 5.78186 3.2408C5.42202 3.41854 5.1076 3.67623 4.86267 3.99418C4.61775 4.31212 4.4488 4.68188 4.36877 5.07516C4.28873 5.46844 4.29973 5.87482 4.40091 6.26319C4.49228 6.61392 4.85068 6.82417 5.20141 6.7328C5.55214 6.64143 5.76239 6.28303 5.67101 5.9323C5.6203 5.73766 5.61479 5.534 5.6549 5.3369C5.69502 5.1398 5.77968 4.95449 5.90243 4.79515C6.02518 4.63581 6.18275 4.50666 6.36309 4.41759C6.54287 4.32879 6.74051 4.28217 6.941 4.28125C7.28858 4.28268 7.62156 4.42138 7.86738 4.6672C8.11346 4.91328 8.2522 5.2467 8.25333 5.59469V6.25C8.25333 6.61243 8.54715 6.90625 8.90958 6.90625C9.27202 6.90625 9.56583 6.61243 9.56583 6.25L9.56584 5.59375L9.56583 5.592C9.56399 4.89684 9.28701 4.23068 8.79546 3.73912C8.3039 3.24757 7.63774 2.9706 6.94258 2.96875L6.94083 3.62501Z" fill="#3E7E74"/>
<path fill-rule="evenodd" clip-rule="evenodd" d="M6.28455 1.65625C5.06621 1.65625 3.89777 2.14023 3.03627 3.00173C2.17478 3.86322 1.6908 5.03166 1.6908 6.25V8.875C1.6908 10.0933 2.17478 11.2618 3.03627 12.1233C3.89777 12.9848 5.06621 13.4688 6.28455 13.4688C7.50288 13.4688 8.67132 12.9848 9.53282 12.1233C10.3943 11.2618 10.8783 10.0933 10.8783 8.875V6.25C10.8783 5.03166 10.3943 3.86322 9.53282 3.00173C8.67132 2.14023 7.50288 1.65625 6.28455 1.65625ZM2.1082 2.07365C3.21583 0.966014 4.71811 0.34375 6.28455 0.34375C7.85098 0.34375 9.35326 0.966014 10.4609 2.07365C11.5685 3.18129 12.1908 4.68357 12.1908 6.25V8.875C12.1908 10.4414 11.5685 11.9437 10.4609 13.0513C9.35326 14.159 7.85098 14.7812 6.28455 14.7812C4.71811 14.7812 3.21583 14.159 2.1082 13.0513C1.00056 11.9437 0.378296 10.4414 0.378296 8.875V6.25C0.378296 4.68357 1.00056 3.18129 2.1082 2.07365Z" fill="#3E7E74"/>
</svg>
