<svg width="22" height="22" viewBox="0 0 22 22" fill="none" xmlns="http://www.w3.org/2000/svg">
<path fill-rule="evenodd" clip-rule="evenodd" d="M17.7904 10.6518C18.3634 10.2566 19.0698 10.1052 19.7543 10.2308C20.4389 10.3564 21.0455 10.7487 21.4409 11.3214C21.8358 11.8941 21.9874 12.6005 21.8621 13.2847C21.737 13.9676 21.3465 14.5731 20.7761 14.9687L16.4311 18.0493C15.9529 18.4792 15.3324 18.7179 14.6883 18.7188L5.5 18.7188C4.80381 18.7188 4.13613 18.4422 3.64384 17.9499C3.15156 17.4576 2.875 16.7899 2.875 16.0938C2.875 15.3976 3.15156 14.7299 3.64384 14.2376C4.13613 13.7453 4.80381 13.4688 5.5 13.4688H13.822L17.7904 10.6518ZM20.3608 12.0671C20.5581 12.3534 20.6337 12.7063 20.571 13.0483C20.5084 13.3904 20.3125 13.6936 20.0263 13.8914L15.6388 17.0022C15.615 17.019 15.5923 17.0375 15.5709 17.0574C15.3309 17.2811 15.0151 17.4058 14.687 17.4063C14.6871 17.4063 14.6869 17.4063 14.687 17.4063H5.5C5.1519 17.4063 4.81806 17.268 4.57192 17.0218C4.32578 16.7757 4.1875 16.4418 4.1875 16.0938C4.1875 15.7457 4.32578 15.4118 4.57192 15.1657C4.81806 14.9195 5.1519 14.7813 5.5 14.7813H14.0312C14.1674 14.7813 14.3001 14.7389 14.4111 14.6601L18.5389 11.73C18.8247 11.5341 19.1766 11.4592 19.5175 11.5218C19.8597 11.5845 20.1631 11.7809 20.3608 12.0671Z" fill="#3E7E74"/>
<path fill-rule="evenodd" clip-rule="evenodd" d="M6.31362 17.4258C6.66523 17.5137 6.87901 17.87 6.79111 18.2216L6.13486 20.8466C6.04695 21.1983 5.69065 21.412 5.33904 21.3241C4.98742 21.2362 4.77364 20.8799 4.86155 20.5283L5.5178 17.9033C5.6057 17.5517 5.962 17.3379 6.31362 17.4258Z" fill="#3E7E74"/>
<path fill-rule="evenodd" clip-rule="evenodd" d="M15.0485 17.4755C15.3726 17.3134 15.7668 17.4448 15.9289 17.769L17.2414 20.394C17.4035 20.7182 17.2721 21.1124 16.9479 21.2745C16.6238 21.4365 16.2296 21.3051 16.0675 20.981L14.755 18.356C14.5929 18.0318 14.7243 17.6376 15.0485 17.4755Z" fill="#3E7E74"/>
<path fill-rule="evenodd" clip-rule="evenodd" d="M4.95634 3.69032C5.44863 3.19804 6.11631 2.92148 6.8125 2.92148C7.50869 2.92148 8.17637 3.19804 8.66866 3.69032C9.16094 4.18261 9.4375 4.85028 9.4375 5.54648C9.4375 6.24267 9.16094 6.91035 8.66866 7.40263C8.17637 7.89492 7.50869 8.17148 6.8125 8.17148C6.11631 8.17148 5.44863 7.89492 4.95634 7.40263C4.46406 6.91035 4.1875 6.24267 4.1875 5.54648C4.1875 4.85028 4.46406 4.18261 4.95634 3.69032ZM6.8125 4.23398C6.4644 4.23398 6.13056 4.37226 5.88442 4.6184C5.63828 4.86454 5.5 5.19838 5.5 5.54648C5.5 5.89457 5.63828 6.22841 5.88442 6.47456C6.13056 6.7207 6.4644 6.85898 6.8125 6.85898C7.1606 6.85898 7.49444 6.7207 7.74058 6.47456C7.98672 6.22841 8.125 5.89457 8.125 5.54648C8.125 5.19838 7.98672 4.86454 7.74058 4.6184C7.49444 4.37226 7.1606 4.23398 6.8125 4.23398Z" fill="#3E7E74"/>
<path fill-rule="evenodd" clip-rule="evenodd" d="M10.0938 5.54648C10.0938 5.18404 10.3876 4.89023 10.75 4.89023H12.0625C12.4249 4.89023 12.7188 5.18404 12.7188 5.54648C12.7188 5.90892 12.4249 6.20273 12.0625 6.20273H10.75C10.3876 6.20273 10.0938 5.90892 10.0938 5.54648Z" fill="#3E7E74"/>
<path fill-rule="evenodd" clip-rule="evenodd" d="M0.90625 5.54648C0.90625 5.18404 1.20006 4.89023 1.5625 4.89023H2.875C3.23744 4.89023 3.53125 5.18404 3.53125 5.54648C3.53125 5.90892 3.23744 6.20273 2.875 6.20273H1.5625C1.20006 6.20273 0.90625 5.90892 0.90625 5.54648Z" fill="#3E7E74"/>
<path fill-rule="evenodd" clip-rule="evenodd" d="M9.76562 0.431663C10.0795 0.612885 10.187 1.01424 10.0058 1.32812L9.34956 2.46474C9.16834 2.77862 8.76698 2.88616 8.45311 2.70494C8.13923 2.52372 8.03169 2.12236 8.21291 1.80848L8.86916 0.671855C9.05038 0.357978 9.45174 0.25044 9.76562 0.431663Z" fill="#3E7E74"/>
<path fill-rule="evenodd" clip-rule="evenodd" d="M5.17187 8.38802C5.48575 8.56924 5.59329 8.9706 5.41206 9.28448L4.75581 10.4211C4.57459 10.735 4.17323 10.8425 3.85936 10.6613C3.54548 10.4801 3.43794 10.0787 3.61916 9.76484L4.27541 8.62822C4.45663 8.31434 4.85799 8.2068 5.17187 8.38802Z" fill="#3E7E74"/>
<path fill-rule="evenodd" clip-rule="evenodd" d="M3.85936 0.431663C4.17323 0.25044 4.57459 0.357978 4.75581 0.671855L5.41206 1.80848C5.59329 2.12236 5.48575 2.52372 5.17187 2.70494C4.85799 2.88616 4.45663 2.77862 4.27541 2.46474L3.61916 1.32812C3.43794 1.01424 3.54548 0.612885 3.85936 0.431663Z" fill="#3E7E74"/>
<path fill-rule="evenodd" clip-rule="evenodd" d="M8.45311 8.38802C8.76698 8.2068 9.16834 8.31434 9.34956 8.62822L10.0058 9.76484C10.187 10.0787 10.0795 10.4801 9.76562 10.6613C9.45174 10.8425 9.05038 10.735 8.86916 10.4211L8.21291 9.28448C8.03169 8.9706 8.13923 8.56924 8.45311 8.38802Z" fill="#3E7E74"/>
</svg>
