<svg width="23" height="25" viewBox="0 0 23 25" fill="none" xmlns="http://www.w3.org/2000/svg">
<path d="M5.60765 7.04703H6.01617C6.79422 7.04703 7.22363 7.30722 7.72078 7.60851C8.1625 7.87615 8.66297 8.17946 9.40643 8.25848L14.4737 8.94772C14.558 8.95908 14.6459 8.96775 14.7338 8.96775C14.9223 8.96775 15.1111 8.92786 15.2646 8.78928C15.5195 8.5591 15.5088 8.22587 15.4983 7.90315C15.4778 7.28875 14.9291 6.27446 13.9528 5.96823L13.0222 5.67525C12.4158 5.48496 12.345 5.31866 12.3444 5.31866H12.3444C12.3444 5.31817 12.7887 4.71338 12.7887 4.71338C12.9667 4.49192 12.9813 4.47386 13.7193 4.78171L18.1994 6.64826C19.1621 7.04945 19.9618 6.63069 20.2542 6.00965C20.5196 5.44579 20.4042 4.62749 19.5235 4.16332L14.1131 1.3101C14.0981 1.3022 14.0827 1.29519 14.0669 1.28899C12.5878 0.711566 11.3787 1.12327 10.4072 1.45399C10.1792 1.53157 9.96391 1.60488 9.76832 1.65623C8.76544 1.92028 7.31194 1.92028 6.69126 1.92028H5.60765C5.45249 1.65569 5.16562 1.47717 4.83711 1.47717H0.876298C0.628239 1.47717 0.427124 1.67828 0.427124 1.92634C0.427124 2.1744 0.628239 2.37552 0.876298 2.37552L4.83203 2.3748V6.59166H0.876298C0.628239 6.59166 0.427124 6.79277 0.427124 7.04083C0.427124 7.28889 0.628239 7.49 0.876298 7.49H4.83715C5.16562 7.49009 5.45249 7.31153 5.60765 7.04703ZM9.99679 2.52511C10.2231 2.46563 10.4531 2.38733 10.6966 2.3044C11.5675 2.00797 12.5538 1.67222 13.7171 2.11695L19.1046 4.95807C19.4896 5.16098 19.531 5.43672 19.4414 5.62709C19.3306 5.86248 19.0105 6.01306 18.545 5.81914L14.065 3.95263C13.3347 3.64793 12.7039 3.38487 12.0875 4.15204L11.7348 4.59412C11.4056 5.00434 11.417 5.35509 11.4844 5.5771C11.6105 5.99163 12.0256 6.30411 12.7528 6.53231L13.6835 6.82534C14.2994 7.01846 14.5928 7.70491 14.6004 7.9328C14.6014 7.96092 14.603 8.00912 14.6034 8.05876C14.6005 8.05835 14.5974 8.05795 14.5944 8.05755L9.5208 7.36741C9.51613 7.36678 9.5115 7.36624 9.50683 7.36575C8.95968 7.30879 8.60134 7.09159 8.18639 6.84016C7.65151 6.51605 7.04524 6.14868 6.01622 6.14868H5.73038V2.81867H6.69121C7.40224 2.81867 8.88165 2.81867 9.99679 2.52511Z" fill="#3E7E74" stroke="#3E7E74" stroke-width="0.2"/>
<path d="M21.5509 14.2566H17.959L17.6666 13.0629L19.1375 12.2536C19.2453 12.1942 19.3241 12.0931 19.3554 11.974C19.3866 11.8549 19.3676 11.7282 19.3027 11.6235L18.014 9.54303C17.8888 9.34097 17.6278 9.27134 17.4187 9.38437L15.0516 10.6627C15.0162 10.6818 14.9835 10.7056 14.9543 10.7334L13.7228 11.9126L12.2313 11.7176C12.0055 11.6884 11.7932 11.8323 11.7375 12.0533L11.1825 14.2565H5.91538C5.35107 14.2565 4.89197 14.7144 4.89197 15.2773V16.3761C4.89197 16.9323 5.34024 17.3857 5.89534 17.3965L6.90245 23.6224C6.93816 23.843 7.12885 23.9999 7.34529 23.9999C7.36914 23.9999 7.39327 23.998 7.41757 23.9941C7.66248 23.9545 7.82887 23.7238 7.7893 23.4789L6.80551 17.3969H11.7113C11.9594 17.3969 12.1605 17.1958 12.1605 16.9477C12.1605 16.6997 11.9594 16.4986 11.7113 16.4986H5.91538C5.84759 16.4986 5.79032 16.4425 5.79032 16.3761V15.2773C5.79032 15.2109 5.84759 15.1548 5.91538 15.1548H21.5509C21.618 15.1548 21.6747 15.2109 21.6747 15.2773V16.3761C21.6747 16.4425 21.618 16.4986 21.5509 16.4986H15.7538C15.5057 16.4986 15.3046 16.6997 15.3046 16.9477C15.3046 17.1958 15.5057 17.3969 15.7538 17.3969H20.6596L19.6758 23.4789C19.6362 23.7238 19.8026 23.9545 20.0475 23.9941C20.0718 23.998 20.0959 23.9999 20.1198 23.9999C20.3362 23.9999 20.527 23.843 20.5626 23.6224L21.5697 17.3965C22.1246 17.3864 22.573 16.9327 22.573 16.3761V15.2773C22.573 14.7145 22.1144 14.2566 21.5509 14.2566ZM12.5111 12.6603L13.8198 12.8313C13.9545 12.849 14.0903 12.8045 14.1886 12.7104L15.5318 11.4244L17.4731 10.376L18.29 11.6946L16.9319 12.4418C16.7539 12.5397 16.6638 12.7449 16.7122 12.9422L17.0341 14.2566H12.1089L12.5111 12.6603Z" fill="#3E7E74" stroke="#3E7E74" stroke-width="0.2"/>
<path d="M10.4771 20.1562C10.444 19.9104 10.2184 19.7376 9.97201 19.7711C9.72615 19.8042 9.55369 20.0303 9.58684 20.2762L10.036 23.6107C10.0664 23.8362 10.2591 23.9999 10.4806 23.9999C10.5005 23.9999 10.5207 23.9986 10.5411 23.9958C10.787 23.9627 10.9594 23.7366 10.9263 23.4907L10.4771 20.1562Z" fill="#3E7E74" stroke="#3E7E74" stroke-width="0.2"/>
<path d="M17.4928 19.771C17.2472 19.7379 17.0209 19.9105 16.9878 20.1564L16.5399 23.491C16.5069 23.7368 16.6795 23.9629 16.9253 23.9959C16.9456 23.9987 16.9657 24 16.9857 24C17.2072 24 17.4 23.8361 17.4303 23.6105L17.8782 20.276C17.9113 20.0302 17.7387 19.8041 17.4928 19.771Z" fill="#3E7E74" stroke="#3E7E74" stroke-width="0.2"/>
<path d="M13.7325 18.9152C13.4844 18.9152 13.2833 19.1163 13.2833 19.3644V23.5508C13.2833 23.7988 13.4844 23.9999 13.7325 23.9999C13.9806 23.9999 14.1817 23.7988 14.1817 23.5508V19.3644C14.1817 19.1163 13.9806 18.9152 13.7325 18.9152Z" fill="#3E7E74" stroke="#3E7E74" stroke-width="0.2"/>
</svg>
