<svg width="24" height="24" viewBox="0 0 24 24" fill="none" xmlns="http://www.w3.org/2000/svg">
<path d="M0.75 4.79999C1.56444 4.90079 2.3911 4.81842 3.16964 4.55891C3.94818 4.2994 4.65893 3.86929 5.25 3.29999C5.67632 3.77219 6.19699 4.14969 6.77835 4.40806C7.35971 4.66643 7.98881 4.79993 8.625 4.79993C9.26119 4.79993 9.89029 4.66643 10.4716 4.40806C11.053 4.14969 11.5737 3.77219 12 3.29999C12.4263 3.77219 12.947 4.14969 13.5284 4.40806C14.1097 4.66643 14.7388 4.79993 15.375 4.79993C16.0112 4.79993 16.6403 4.66643 17.2216 4.40806C17.803 4.14969 18.3237 3.77219 18.75 3.29999C19.3411 3.86929 20.0518 4.2994 20.8304 4.55891C21.6089 4.81842 22.4356 4.90079 23.25 4.79999" stroke="#3E7E74" stroke-width="1.5" stroke-linecap="round" stroke-linejoin="round"/>
<path d="M2.32903 19.879C7.14803 15.06 8.70003 12.7 13.053 12.7C14.4686 12.7026 15.8626 13.0473 17.1162 13.7048C18.3699 14.3622 19.446 15.313 20.253 16.476C19.4462 17.6392 18.3701 18.5901 17.1164 19.2476C15.8627 19.9051 14.4687 20.2497 13.053 20.252C8.82603 20.252 7.37803 18.12 2.28003 13.023" stroke="#3E7E74" stroke-width="1.5" stroke-linecap="round" stroke-linejoin="round"/>
<path d="M19.8781 8.54999C19.6709 8.54999 19.5031 8.38209 19.5031 8.17499C19.5031 7.96788 19.6709 7.79999 19.8781 7.79999" stroke="#3E7E74" stroke-width="1.5"/>
<path d="M19.8781 8.54999C20.0852 8.54999 20.2531 8.38209 20.2531 8.17499C20.2531 7.96788 20.0852 7.79999 19.8781 7.79999" stroke="#3E7E74" stroke-width="1.5"/>
<path d="M21.375 13.05C21.1679 13.05 21 12.8821 21 12.675C21 12.4679 21.1679 12.3 21.375 12.3" stroke="#3E7E74" stroke-width="1.5"/>
<path d="M21.375 13.05C21.5821 13.05 21.75 12.8821 21.75 12.675C21.75 12.4679 21.5821 12.3 21.375 12.3" stroke="#3E7E74" stroke-width="1.5"/>
<path d="M14.625 16.051C14.4179 16.051 14.25 15.8831 14.25 15.676C14.25 15.4689 14.4179 15.301 14.625 15.301" stroke="#3E7E74" stroke-width="1.5"/>
<path d="M14.625 16.051C14.8321 16.051 15 15.8831 15 15.676C15 15.4689 14.8321 15.301 14.625 15.301" stroke="#3E7E74" stroke-width="1.5"/>
</svg>
