<svg width="22" height="22" viewBox="0 0 22 22" fill="none" xmlns="http://www.w3.org/2000/svg">
<path d="M1 9.2075C1 9.49149 1.09211 9.76781 1.2625 9.995C1.43289 10.2222 1.67237 10.388 1.945 10.4675C4.3075 11.1412 10.59 12.8125 14.7812 12.8125C16.3477 12.8125 17.85 12.1902 18.9576 11.0826C20.0652 9.97496 20.6875 8.47268 20.6875 6.90625C20.6875 5.33982 20.0652 3.83754 18.9576 2.7299C17.85 1.62226 16.3477 1 14.7812 1C10.59 1 4.28125 2.67125 1.945 3.345C1.67237 3.42452 1.43289 3.59031 1.2625 3.8175C1.09211 4.04469 1 4.32101 1 4.605V9.2075Z" stroke="#3E7E74" stroke-width="1.3125" stroke-linecap="round" stroke-linejoin="round"/>
<path d="M15.4375 1.035V12.7775" stroke="#3E7E74" stroke-width="1.3125" stroke-linecap="round" stroke-linejoin="round"/>
<path d="M14.7813 12.8125C13.9832 12.8067 13.1859 12.76 12.3925 12.6725L11.8238 17.7738C11.783 18.1419 11.8207 18.5146 11.9342 18.8672C12.0478 19.2198 12.2346 19.5443 12.4826 19.8196C12.7305 20.0948 13.0339 20.3144 13.3728 20.464C13.7117 20.6136 14.0784 20.6898 14.4488 20.6875H15.455C16.1512 20.6875 16.8189 20.4109 17.3112 19.9187C17.8035 19.4264 18.08 18.7587 18.08 18.0625V11.815C17.1055 12.471 15.9561 12.8185 14.7813 12.8125V12.8125Z" stroke="#3E7E74" stroke-width="1.3125" stroke-linecap="round" stroke-linejoin="round"/>
<path d="M5.375 2.44376V11.3688" stroke="#3E7E74" stroke-width="1.3125" stroke-linecap="round" stroke-linejoin="round"/>
</svg>
