<svg width="23" height="23" viewBox="0 0 23 23" fill="none" xmlns="http://www.w3.org/2000/svg">
<g clip-path="url(#clip0_4875_9956)">
<path d="M17.0114 5.23633V4.36955H21.9686C22.3425 4.36955 22.6451 4.06649 22.6451 3.69308V0.676471C22.6451 0.303059 22.3425 0 21.9686 0H16.335C15.9615 0 15.6585 0.303059 15.6585 0.676471V5.23633H5.77751C2.59178 5.23633 0 7.82812 0 11.0143V18.3062C0 18.6796 0.303059 18.9827 0.676471 18.9827H8.96324V22.3235C8.96324 22.6969 9.26629 23 9.63971 23H13.3603C13.7337 23 14.0368 22.6969 14.0368 22.3235V18.9827H22.3235C22.6969 18.9827 23 18.6796 23 18.3062V11.0143C23 8.04044 20.6952 5.23633 17.0114 5.23633ZM21.6471 17.6297C20.4756 17.6297 12.6258 17.6297 11.5555 17.6297C11.5555 17.4306 11.5555 11.3201 11.5555 11.0143C11.5555 9.24014 10.7518 7.64998 9.48908 6.58927H15.6585V10.1268C14.7006 10.4172 14.002 11.3083 14.002 12.36C14.002 13.6467 15.0483 14.6934 16.335 14.6934C17.6216 14.6934 18.6683 13.6467 18.6683 12.36C18.6683 11.3083 17.9693 10.4172 17.0114 10.1268V6.58927C19.8813 6.58927 21.6471 8.7257 21.6471 11.0143V17.6297ZM12.6838 21.6471H10.3162V18.9827H12.6838V21.6471ZM1.35294 11.0143C1.35294 8.57454 3.33748 6.58927 5.77751 6.58927C8.21776 6.58927 10.2025 8.57436 10.2025 11.0143V17.6297C9.93415 17.6297 1.8754 17.6297 1.35294 17.6297V11.0143ZM16.335 11.3796C16.876 11.3796 17.3154 11.8209 17.3154 12.36C17.3154 12.9007 16.8757 13.3405 16.335 13.3405C15.7947 13.3405 15.355 12.9007 15.355 12.36C15.355 11.8188 15.796 11.3796 16.335 11.3796ZM21.2921 3.01661H17.0114C17.0114 2.41577 17.0114 1.95599 17.0114 1.35294H21.2921V3.01661Z" fill="#3E7E74"/>
<path d="M7.26307 11.9898C7.63648 11.9898 7.93954 11.6867 7.93954 11.3133C7.93954 10.9394 7.63648 10.6368 7.26307 10.6368C6.42266 10.6368 4.14553 10.6368 3.40718 10.6368C3.03377 10.6368 2.73071 10.9394 2.73071 11.3133C2.73071 11.6867 3.03377 11.9898 3.40718 11.9898H7.26307Z" fill="#3E7E74"/>
</g>
<defs>
<clipPath id="clip0_4875_9956">
<rect width="23" height="23" fill="white"/>
</clipPath>
</defs>
</svg>
