<svg width="24" height="24" viewBox="0 0 24 24" fill="none" xmlns="http://www.w3.org/2000/svg">
<path d="M4.5 23.25C6.57107 23.25 8.25 21.5711 8.25 19.5C8.25 17.4289 6.57107 15.75 4.5 15.75C2.42893 15.75 0.75 17.4289 0.75 19.5C0.75 21.5711 2.42893 23.25 4.5 23.25Z" stroke="#3E7E74" stroke-width="1.5" stroke-linecap="round" stroke-linejoin="round"/>
<path d="M4.5 19.875C4.29289 19.875 4.125 19.7071 4.125 19.5C4.125 19.2929 4.29289 19.125 4.5 19.125" stroke="#3E7E74" stroke-width="1.5"/>
<path d="M4.5 19.875C4.70711 19.875 4.875 19.7071 4.875 19.5C4.875 19.2929 4.70711 19.125 4.5 19.125" stroke="#3E7E74" stroke-width="1.5"/>
<path d="M8.25 12.75H5.25C4.05653 12.75 2.91193 13.2241 2.06802 14.068C1.22411 14.9119 0.75 16.0565 0.75 17.25V19.5C0.75 20.4946 1.14509 21.4484 1.84835 22.1517C2.55161 22.8549 3.50544 23.25 4.5 23.25H14.25C14.6478 23.25 15.0294 23.092 15.3107 22.8107C15.592 22.5294 15.75 22.1478 15.75 21.75V20.25C15.75 18.2609 14.9598 16.3532 13.5533 14.9467C12.1468 13.5402 10.2391 12.75 8.25 12.75Z" stroke="#3E7E74" stroke-width="1.5" stroke-linecap="round" stroke-linejoin="round"/>
<path d="M18.75 20.25H20.25C21.0456 20.25 21.8087 20.5661 22.3713 21.1287C22.9339 21.6913 23.25 22.4544 23.25 23.25H20.25C19.8522 23.25 19.4706 23.092 19.1893 22.8107C18.908 22.5294 18.75 22.1478 18.75 21.75V20.25Z" stroke="#3E7E74" stroke-width="1.5" stroke-linecap="round" stroke-linejoin="round"/>
<path d="M18.75 20.25V4.5C18.75 3.50544 18.3549 2.55161 17.6517 1.84835C16.9484 1.14509 15.9946 0.75 15 0.75C14.0054 0.75 13.0516 1.14509 12.3483 1.84835C11.6451 2.55161 11.25 3.50544 11.25 4.5C11.25 6.75 14.25 7.5 14.25 9.75C14.25 11.019 13.296 12.764 12.464 14.05" stroke="#3E7E74" stroke-width="1.5" stroke-linecap="round" stroke-linejoin="round"/>
<path d="M11.25 17.25H15.122" stroke="#3E7E74" stroke-width="1.5" stroke-linecap="round" stroke-linejoin="round"/>
</svg>
