<svg width="24" height="24" viewBox="0 0 24 24" fill="none" xmlns="http://www.w3.org/2000/svg">
<path d="M1.5 11.25L3 18" stroke="#3E7E74" stroke-width="1.5" stroke-linecap="round" stroke-linejoin="round"/>
<path d="M1.5 23.25L3 18H6C6.39782 18 6.77936 18.158 7.06066 18.4393C7.34196 18.7206 7.5 19.1022 7.5 19.5V23.25" stroke="#3E7E74" stroke-width="1.5" stroke-linecap="round" stroke-linejoin="round"/>
<path d="M22.5 11.25L21 18" stroke="#3E7E74" stroke-width="1.5" stroke-linecap="round" stroke-linejoin="round"/>
<path d="M22.5 23.25L21 18H18C17.6022 18 17.2206 18.158 16.9393 18.4393C16.658 18.7206 16.5 19.1022 16.5 19.5V23.25" stroke="#3E7E74" stroke-width="1.5" stroke-linecap="round" stroke-linejoin="round"/>
<path d="M12 6.75V23.25" stroke="#3E7E74" stroke-width="1.5" stroke-linecap="round" stroke-linejoin="round"/>
<path d="M6.75 13.5H17.25" stroke="#3E7E74" stroke-width="1.5" stroke-linecap="round" stroke-linejoin="round"/>
<path d="M1.49997 6.75C1.33201 6.7498 1.16897 6.69322 1.03698 6.58934C0.904998 6.48545 0.811705 6.34027 0.772053 6.17705C0.732401 6.01383 0.748686 5.84203 0.818298 5.68917C0.88791 5.5363 1.00682 5.41123 1.15597 5.334L11.265 0.942996C11.4894 0.816844 11.7425 0.75058 12 0.75058C12.2574 0.75058 12.5105 0.816844 12.735 0.942996L22.844 5.334C22.9931 5.41123 23.112 5.5363 23.1816 5.68917C23.2513 5.84203 23.2675 6.01383 23.2279 6.17705C23.1882 6.34027 23.0949 6.48545 22.963 6.58934C22.831 6.69322 22.6679 6.7498 22.5 6.75H1.49997Z" stroke="#3E7E74" stroke-width="1.5" stroke-linecap="round" stroke-linejoin="round"/>
</svg>
