<svg width="24" height="24" viewBox="0 0 24 24" fill="none" xmlns="http://www.w3.org/2000/svg">
<path d="M13.829 3.75H10.171C9.83654 3.74996 9.51169 3.63815 9.24806 3.43232C8.98444 3.22649 8.79716 2.93846 8.716 2.614L8.25 0.75H15.75L15.284 2.614C15.2028 2.93846 15.0156 3.22649 14.7519 3.43232C14.4883 3.63815 14.1635 3.74996 13.829 3.75Z" stroke="#3E7E74" stroke-width="1.5" stroke-linecap="round" stroke-linejoin="round"/>
<path d="M10.871 13.872C11.3629 14.4584 11.663 15.1816 11.7308 15.9439C11.7986 16.7063 11.6308 17.4711 11.25 18.135C10.9134 18.1611 10.5795 18.0585 10.3157 17.8478C10.0519 17.6371 9.87795 17.3341 9.82903 17C9.32508 17.2754 8.91026 17.689 8.63337 18.1921C8.35648 18.6952 8.22903 19.2669 8.26603 19.84C8.26603 20.7444 8.6253 21.6117 9.2648 22.2512C9.90429 22.8907 10.7716 23.25 11.676 23.25C12.5767 23.2379 13.4371 22.8747 14.0742 22.2379C14.7112 21.601 15.0746 20.7407 15.087 19.84C15.2007 18.5078 14.84 17.1783 14.0686 16.0863C13.2971 14.9943 12.1646 14.21 10.871 13.872V13.872Z" stroke="#3E7E74" stroke-width="1.5" stroke-linecap="round" stroke-linejoin="round"/>
<path d="M12 6.75V10.5" stroke="#3E7E74" stroke-width="1.5" stroke-linecap="round" stroke-linejoin="round"/>
<path d="M15.75 6.75L18.75 10.5" stroke="#3E7E74" stroke-width="1.5" stroke-linecap="round" stroke-linejoin="round"/>
<path d="M8.25 6.75L5.25 10.5" stroke="#3E7E74" stroke-width="1.5" stroke-linecap="round" stroke-linejoin="round"/>
</svg>
