<svg width="24" height="24" viewBox="0 0 24 24" fill="none" xmlns="http://www.w3.org/2000/svg">
<g clip-path="url(#clip0_6177_11214)">
<path d="M4.66235 23.0499C6.82362 23.0499 8.57568 21.2979 8.57568 19.1366C8.57568 16.9753 6.82362 15.2233 4.66235 15.2233C2.50108 15.2233 0.749023 16.9753 0.749023 19.1366C0.749023 21.2979 2.50108 23.0499 4.66235 23.0499Z" stroke="#3E7E74" stroke-width="1.5" stroke-linecap="round" stroke-linejoin="round"/>
<path d="M19.3375 20.6037C21.4988 20.6037 23.2508 18.8516 23.2508 16.6904C23.2508 14.5291 21.4988 12.777 19.3375 12.777C17.1763 12.777 15.4242 14.5291 15.4242 16.6904C15.4242 18.8516 17.1763 20.6037 19.3375 20.6037Z" stroke="#3E7E74" stroke-width="1.5" stroke-linecap="round" stroke-linejoin="round"/>
<path opacity="0.99" d="M8.57568 19.1366V4.8944C8.57555 4.36335 8.76383 3.84948 9.10701 3.44422C9.45019 3.03895 9.92603 2.76858 10.4498 2.68122L20.6387 0.983079C20.9604 0.929416 21.29 0.946568 21.6044 1.03334C21.9189 1.12011 22.2106 1.27442 22.4593 1.4855C22.708 1.69658 22.9077 1.95935 23.0444 2.25551C23.1811 2.55166 23.2516 2.87407 23.2509 3.20026V16.6904" stroke="#3E7E74" stroke-width="1.5" stroke-linecap="round" stroke-linejoin="round"/>
<path d="M8.57568 7.39664L23.2509 4.95044" stroke="#3E7E74" stroke-width="1.5" stroke-linecap="round" stroke-linejoin="round"/>
</g>
<defs>
<clipPath id="clip0_6177_11214">
<rect width="24" height="24" fill="white"/>
</clipPath>
</defs>
</svg>
