<svg width="27" height="21" viewBox="0 0 27 21" fill="none" xmlns="http://www.w3.org/2000/svg">
<path d="M10.9392 1H19.2224C20.3063 0.999037 21.356 1.38012 22.1868 2.0763C23.0177 2.77248 23.5766 3.7392 23.7653 4.80659L26.2914 19.1268C26.3056 19.2062 26.3022 19.2876 26.2814 19.3655C26.2606 19.4434 26.223 19.5157 26.1712 19.5775C26.1195 19.6392 26.0548 19.6889 25.9817 19.7229C25.9087 19.7569 25.829 19.7745 25.7485 19.7744H1C1 18.3241 1.28568 16.888 1.84072 15.5481C2.39576 14.2082 3.20929 12.9908 4.23486 11.9653C5.26043 10.9398 6.47796 10.1264 7.8179 9.57151C9.15785 9.01661 10.594 8.73108 12.0443 8.73122H24.4522" stroke="#3E7E74" stroke-width="1.3125" stroke-linecap="round" stroke-linejoin="round"/>
<path d="M8.16694 14.7154C8.25032 14.7154 8.33183 14.7401 8.40116 14.7864C8.47049 14.8328 8.52452 14.8986 8.55643 14.9756C8.58834 15.0527 8.59669 15.1374 8.58042 15.2192C8.56415 15.301 8.524 15.3761 8.46504 15.4351C8.40608 15.494 8.33097 15.5342 8.24919 15.5505C8.16741 15.5667 8.08264 15.5584 8.00561 15.5265C7.92858 15.4946 7.86273 15.4405 7.81641 15.3712C7.77009 15.3019 7.74536 15.2204 7.74536 15.137C7.74536 15.0252 7.78978 14.9179 7.86884 14.8389C7.9479 14.7598 8.05513 14.7154 8.16694 14.7154" stroke="#3E7E74" stroke-width="1.3125" stroke-linecap="round" stroke-linejoin="round"/>
<path d="M14.069 14.7154C14.1524 14.7154 14.2339 14.7401 14.3033 14.7864C14.3726 14.8328 14.4266 14.8986 14.4585 14.9756C14.4904 15.0527 14.4988 15.1374 14.4825 15.2192C14.4663 15.301 14.4261 15.3761 14.3671 15.4351C14.3082 15.494 14.2331 15.5342 14.1513 15.5505C14.0695 15.5667 13.9847 15.5584 13.9077 15.5265C13.8307 15.4946 13.7648 15.4405 13.7185 15.3712C13.6722 15.3019 13.6475 15.2204 13.6475 15.137C13.6475 15.0252 13.6919 14.9179 13.7709 14.8389C13.85 14.7598 13.9572 14.7154 14.069 14.7154" stroke="#3E7E74" stroke-width="1.3125" stroke-linecap="round" stroke-linejoin="round"/>
<path d="M19.9711 14.7154C20.0545 14.7154 20.136 14.7401 20.2054 14.7864C20.2747 14.8328 20.3287 14.8986 20.3606 14.9756C20.3925 15.0527 20.4009 15.1374 20.3846 15.2192C20.3684 15.301 20.3282 15.3761 20.2692 15.4351C20.2103 15.494 20.1352 15.5342 20.0534 15.5505C19.9716 15.5667 19.8868 15.5584 19.8098 15.5265C19.7328 15.4946 19.6669 15.4405 19.6206 15.3712C19.5743 15.3019 19.5496 15.2204 19.5496 15.137C19.5496 15.0252 19.594 14.9179 19.673 14.8389C19.7521 14.7598 19.8593 14.7154 19.9711 14.7154" stroke="#3E7E74" stroke-width="1.3125" stroke-linecap="round" stroke-linejoin="round"/>
</svg>
