<svg fill="none" height="22" viewBox="0 0 18 22" width="18" xmlns="http://www.w3.org/2000/svg"><g clip-rule="evenodd" fill="#702b68" fill-rule="evenodd"><path d="m6.25 12.1562c-.36244 0-.65625.2939-.65625.6563v3.9375c0 .3624.29381.6562.65625.6562h6.5625c.3624 0 .6563-.2938.6563-.6562v-3.9375c0-.3624-.2939-.6563-.6563-.6563zm-1.96875.6563c0-1.0873.88144-1.9687 1.96875-1.9687h6.5625c1.0873 0 1.9687.8814 1.9687 1.9687v3.9375c0 1.0873-.8814 1.9688-1.9687 1.9688h-6.5625c-1.08731 0-1.96875-.8815-1.96875-1.9688z"/><path d="m17.095 11.598c.1935.1196.3112.3308.3112.5583v5.25c0 .2274-.1177.4386-.3112.5582s-.4351.1304-.6385.0287l-2.625-1.3125c-.2223-.1111-.3627-.3384-.3627-.5869v-2.625c0-.2486.1404-.4759.3627-.587l2.625-1.3125c.2034-.1017.445-.0909.6385.0287zm-2.3138 2.2763v1.8139l1.3126.6562v-3.1263z"/><path d="m9.06721 17.5985c.25628-.2563.6718-.2563.92808 0l2.62501 2.625c.2563.2562.2563.6718 0 .928-.2563.2563-.6718.2563-.9281 0l-2.16095-2.1609-2.16096 2.1609c-.25628.2563-.6718.2563-.92808 0-.25628-.2562-.25628-.6718 0-.928z"/><path d="m4.9375 1.65625c-1.81218 0-3.28125 1.46907-3.28125 3.28125s1.46907 3.28125 3.28125 3.28125 3.28125-1.46907 3.28125-3.28125-1.46907-3.28125-3.28125-3.28125zm-4.59375 3.28125c0-2.53706 2.05669-4.59375 4.59375-4.59375s4.59375 2.05669 4.59375 4.59375-2.05669 4.59375-4.59375 4.59375-4.59375-2.05669-4.59375-4.59375z"/><path d="m14.125 4.28125c-1.0873 0-1.9688.88144-1.9688 1.96875s.8815 1.96875 1.9688 1.96875 1.9688-.88144 1.9688-1.96875-.8815-1.96875-1.9688-1.96875zm-3.2812 1.96875c0-1.81218 1.469-3.28125 3.2812-3.28125s3.2812 1.46907 3.2812 3.28125-1.469 3.28125-3.2812 3.28125-3.2812-1.46907-3.2812-3.28125z"/></g></svg>