<svg width="24" height="23" viewBox="0 0 24 23" fill="none" xmlns="http://www.w3.org/2000/svg">
<path fill-rule="evenodd" clip-rule="evenodd" d="M2.90563 1.55188C2.57427 1.55188 2.25649 1.68351 2.02218 1.91781C1.78788 2.15212 1.65625 2.4699 1.65625 2.80126V19.9519C1.65625 20.2832 1.78788 20.601 2.02218 20.8353C2.25649 21.0696 2.57427 21.2013 2.90563 21.2013H10.0517C10.3831 21.2013 10.7009 21.0696 10.9352 20.8353C11.1695 20.601 11.3011 20.2832 11.3011 19.9519V18.2835C11.3011 17.9211 11.5949 17.6273 11.9574 17.6273C12.3198 17.6273 12.6136 17.9211 12.6136 18.2835V19.9519C12.6136 20.6313 12.3437 21.283 11.8632 21.7634C11.3828 22.2439 10.7312 22.5138 10.0517 22.5138H2.90563C2.22617 22.5138 1.57455 22.2439 1.09411 21.7634C0.613661 21.283 0.34375 20.6313 0.34375 19.9519V2.80126C0.34375 2.1218 0.613661 1.47018 1.09411 0.989736C1.57455 0.509291 2.22617 0.23938 2.90563 0.23938H10.0517C10.7312 0.23938 11.3828 0.509291 11.8632 0.989736C12.3437 1.47018 12.6136 2.1218 12.6136 2.80126V13.9978C12.6136 14.3602 12.3198 14.654 11.9574 14.654C11.5949 14.654 11.3011 14.3602 11.3011 13.9978V2.80126C11.3011 2.4699 11.1695 2.15212 10.9352 1.91781C10.7009 1.68351 10.3831 1.55188 10.0517 1.55188H2.90563Z" fill="#702B68"/>
<path fill-rule="evenodd" clip-rule="evenodd" d="M6.4825 14.3101C6.0039 14.3151 5.54598 14.5074 5.20719 14.8462C4.86389 15.1895 4.67102 15.6551 4.67102 16.1406C4.67102 16.6261 4.86389 17.0917 5.20719 17.435C5.54598 17.7738 6.0039 17.9661 6.4825 17.9711L16.3467 17.3484C16.3604 17.3476 16.3742 17.3471 16.388 17.3471C16.708 17.3471 17.0149 17.22 17.2411 16.9937C17.4674 16.7675 17.5945 16.4606 17.5945 16.1406C17.5945 15.8206 17.4674 15.5138 17.2411 15.2875C17.0149 15.0612 16.708 14.9341 16.388 14.9341C16.3742 14.9341 16.3604 14.9337 16.3467 14.9328L6.4825 14.3101ZM4.27911 13.9181C4.86856 13.3287 5.66801 12.9975 6.50161 12.9975C6.5154 12.9975 6.52919 12.998 6.54296 12.9988L16.4102 13.6217C17.0703 13.6275 17.702 13.8923 18.1692 14.3594C18.6416 14.8318 18.907 15.4725 18.907 16.1406C18.907 16.8087 18.6416 17.4494 18.1692 17.9218C17.702 18.389 17.0703 18.6537 16.4102 18.6595L6.54296 19.2824C6.52919 19.2833 6.5154 19.2837 6.50161 19.2837C5.66801 19.2837 4.86856 18.9526 4.27911 18.3631C3.68967 17.7737 3.35852 16.9742 3.35852 16.1406C3.35852 15.307 3.68967 14.5076 4.27911 13.9181Z" fill="#702B68"/>
<path fill-rule="evenodd" clip-rule="evenodd" d="M20.448 0.318594C20.7456 0.111776 21.1545 0.185398 21.3614 0.483034C22.4819 2.09556 23.0875 4.00973 23.0985 5.97331L23.0985 5.98069L23.0985 5.98069C23.0874 7.94394 22.4817 9.85776 21.3614 11.47C21.1545 11.7676 20.7456 11.8412 20.448 11.6344C20.1503 11.4276 20.0767 11.0186 20.2835 10.721C21.2519 9.32758 21.7756 7.67369 21.786 5.97695C21.7757 4.27991 21.252 2.62568 20.2835 1.23199C20.0767 0.934352 20.1503 0.525412 20.448 0.318594Z" fill="#702B68"/>
<path fill-rule="evenodd" clip-rule="evenodd" d="M18.0304 1.6426C18.3299 1.43838 18.7381 1.51556 18.9424 1.81498C19.7787 3.04125 20.2293 4.48963 20.236 5.97396L20.2361 5.98001H20.236C20.2291 7.46401 19.7786 8.91203 18.9423 10.138C18.7381 10.4374 18.3298 10.5146 18.0304 10.3103C17.731 10.1061 17.6538 9.69781 17.8581 9.39839C18.5462 8.38953 18.9172 7.19808 18.9235 5.97692C18.9174 4.75546 18.5463 3.56368 17.8581 2.55453C17.6538 2.25511 17.731 1.84682 18.0304 1.6426Z" fill="#702B68"/>
<path fill-rule="evenodd" clip-rule="evenodd" d="M15.6166 2.96496C15.9188 2.76478 16.326 2.84744 16.5261 3.14958C17.0815 3.98778 17.3777 4.971 17.3777 5.97649C17.3777 6.98197 17.0815 7.96519 16.5261 8.80339C16.326 9.10553 15.9188 9.18819 15.6166 8.98801C15.3145 8.78783 15.2318 8.38062 15.432 8.07848C15.8449 7.45522 16.0652 6.72413 16.0652 5.97649C16.0652 5.22884 15.8449 4.49776 15.432 3.87449C15.2318 3.57235 15.3145 3.16514 15.6166 2.96496Z" fill="#702B68"/>
<path fill-rule="evenodd" clip-rule="evenodd" d="M4.49012 5.88428C4.65522 5.88428 4.78906 5.75044 4.78906 5.58533C4.78906 5.42023 4.65522 5.28639 4.49012 5.28639C4.32501 5.28639 4.19117 5.42023 4.19117 5.58533C4.19117 5.75044 4.32501 5.88428 4.49012 5.88428ZM3.47656 5.58533C3.47656 5.02556 3.93035 4.57178 4.49012 4.57178C5.04989 4.57178 5.50367 5.02556 5.50367 5.58533C5.50367 6.1451 5.04989 6.59889 4.49012 6.59889C3.93035 6.59889 3.47656 6.1451 3.47656 5.58533Z" fill="#702B68"/>
<path fill-rule="evenodd" clip-rule="evenodd" d="M8.55103 5.88428C8.71613 5.88428 8.84998 5.75044 8.84998 5.58533C8.84998 5.42023 8.71613 5.28639 8.55103 5.28639C8.38593 5.28639 8.25209 5.42023 8.25209 5.58533C8.25209 5.75044 8.38593 5.88428 8.55103 5.88428ZM7.53748 5.58533C7.53748 5.02556 7.99126 4.57178 8.55103 4.57178C9.1108 4.57178 9.56459 5.02556 9.56459 5.58533C9.56459 6.1451 9.1108 6.59889 8.55103 6.59889C7.99126 6.59889 7.53748 6.1451 7.53748 5.58533Z" fill="#702B68"/>
<path fill-rule="evenodd" clip-rule="evenodd" d="M4.49012 9.50403C4.65522 9.50403 4.78906 9.37019 4.78906 9.20508C4.78906 9.03998 4.65522 8.90614 4.49012 8.90614C4.32501 8.90614 4.19117 9.03998 4.19117 9.20508C4.19117 9.37019 4.32501 9.50403 4.49012 9.50403ZM3.47656 9.20508C3.47656 8.64531 3.93035 8.19153 4.49012 8.19153C5.04989 8.19153 5.50367 8.64531 5.50367 9.20508C5.50367 9.76485 5.04989 10.2186 4.49012 10.2186C3.93035 10.2186 3.47656 9.76485 3.47656 9.20508Z" fill="#702B68"/>
<path fill-rule="evenodd" clip-rule="evenodd" d="M8.55103 9.50403C8.71613 9.50403 8.84998 9.37019 8.84998 9.20508C8.84998 9.03998 8.71613 8.90614 8.55103 8.90614C8.38593 8.90614 8.25209 9.03998 8.25209 9.20508C8.25209 9.37019 8.38593 9.50403 8.55103 9.50403ZM7.53748 9.20508C7.53748 8.64531 7.99126 8.19153 8.55103 8.19153C9.1108 8.19153 9.56459 8.64531 9.56459 9.20508C9.56459 9.76485 9.1108 10.2186 8.55103 10.2186C7.99126 10.2186 7.53748 9.76485 7.53748 9.20508Z" fill="#702B68"/>
</svg>
