<svg width="21" height="21" viewBox="0 0 21 21" fill="none" xmlns="http://www.w3.org/2000/svg">
<path fill-rule="evenodd" clip-rule="evenodd" d="M1.96875 2.625C1.7947 2.625 1.62778 2.69414 1.50471 2.81721C1.38164 2.94028 1.3125 3.1072 1.3125 3.28125V8.53125C1.3125 9.74959 1.79648 10.918 2.65798 11.7795C3.51947 12.641 4.68791 13.125 5.90625 13.125C7.12459 13.125 8.29303 12.641 9.15452 11.7795C10.016 10.918 10.5 9.74959 10.5 8.53125V3.28125C10.5 3.1072 10.4309 2.94028 10.3078 2.81721C10.1847 2.69414 10.0178 2.625 9.84375 2.625H8.53125C8.16881 2.625 7.875 2.33119 7.875 1.96875C7.875 1.60631 8.16881 1.3125 8.53125 1.3125H9.84375C10.3659 1.3125 10.8667 1.51992 11.2359 1.88913C11.6051 2.25835 11.8125 2.75911 11.8125 3.28125V8.53125C11.8125 10.0977 11.1902 11.6 10.0826 12.7076C8.97496 13.8152 7.47268 14.4375 5.90625 14.4375C4.33982 14.4375 2.83754 13.8152 1.7299 12.7076C0.622264 11.6 0 10.0977 0 8.53125V3.28125C0 2.7591 0.207421 2.25835 0.576634 1.88913C0.945846 1.51992 1.4466 1.3125 1.96875 1.3125H3.28125C3.64369 1.3125 3.9375 1.60631 3.9375 1.96875C3.9375 2.33119 3.64369 2.625 3.28125 2.625H1.96875Z" fill="#702B68"/>
<path fill-rule="evenodd" clip-rule="evenodd" d="M3.28125 0C3.64369 0 3.9375 0.293813 3.9375 0.65625V3.9375C3.9375 4.29994 3.64369 4.59375 3.28125 4.59375C2.91881 4.59375 2.625 4.29994 2.625 3.9375V0.65625C2.625 0.293813 2.91881 0 3.28125 0Z" fill="#702B68"/>
<path fill-rule="evenodd" clip-rule="evenodd" d="M8.53125 0C8.89369 0 9.1875 0.293813 9.1875 0.65625V3.9375C9.1875 4.29994 8.89369 4.59375 8.53125 4.59375C8.16881 4.59375 7.875 4.29994 7.875 3.9375V0.65625C7.875 0.293813 8.16881 0 8.53125 0Z" fill="#702B68"/>
<path fill-rule="evenodd" clip-rule="evenodd" d="M15.3986 6.21106C16.0139 5.5957 16.8485 5.25 17.7188 5.25C18.589 5.25 19.4236 5.5957 20.0389 6.21106C20.6543 6.82641 21 7.66101 21 8.53125C21 9.40149 20.6543 10.2361 20.0389 10.8514C19.4236 11.4668 18.589 11.8125 17.7188 11.8125C16.8485 11.8125 16.0139 11.4668 15.3986 10.8514C14.7832 10.2361 14.4375 9.40149 14.4375 8.53125C14.4375 7.66101 14.7832 6.82641 15.3986 6.21106ZM17.7188 6.5625C17.1966 6.5625 16.6958 6.76992 16.3266 7.13913C15.9574 7.50835 15.75 8.0091 15.75 8.53125C15.75 9.0534 15.9574 9.55415 16.3266 9.92337C16.6958 10.2926 17.1966 10.5 17.7188 10.5C18.2409 10.5 18.7417 10.2926 19.1109 9.92337C19.4801 9.55415 19.6875 9.0534 19.6875 8.53125C19.6875 8.0091 19.4801 7.50835 19.1109 7.13913C18.7417 6.76992 18.2409 6.5625 17.7188 6.5625Z" fill="#702B68"/>
<path fill-rule="evenodd" clip-rule="evenodd" d="M17.7188 10.5C18.0812 10.5 18.375 10.7938 18.375 11.1562V14.4375C18.375 16.178 17.6836 17.8472 16.4529 19.0779C15.2222 20.3086 13.553 21 11.8125 21C10.072 21 8.40282 20.3086 7.17211 19.0779C5.9414 17.8472 5.25 16.178 5.25 14.4375V13.7812C5.25 13.4188 5.54381 13.125 5.90625 13.125C6.26869 13.125 6.5625 13.4188 6.5625 13.7812V14.4375C6.5625 15.8299 7.11562 17.1652 8.10019 18.1498C9.08476 19.1344 10.4201 19.6875 11.8125 19.6875C13.2049 19.6875 14.5402 19.1344 15.5248 18.1498C16.5094 17.1652 17.0625 15.8299 17.0625 14.4375V11.1562C17.0625 10.7938 17.3563 10.5 17.7188 10.5Z" fill="#702B68"/>
</svg>
