<svg width="21" height="19" viewBox="0 0 21 19" fill="none" xmlns="http://www.w3.org/2000/svg">
<path fill-rule="evenodd" clip-rule="evenodd" d="M8.17981 13.0861C8.79516 12.4707 9.62976 12.125 10.5 12.125C11.3702 12.125 12.2048 12.4707 12.8202 13.0861C13.4355 13.7014 13.7812 14.536 13.7812 15.4062C13.7812 16.2765 13.4355 17.1111 12.8202 17.7264C12.2048 18.3418 11.3702 18.6875 10.5 18.6875C9.62976 18.6875 8.79516 18.3418 8.17981 17.7264C7.56445 17.1111 7.21875 16.2765 7.21875 15.4062C7.21875 14.536 7.56445 13.7014 8.17981 13.0861ZM10.5 13.4375C9.97785 13.4375 9.4771 13.6449 9.10788 14.0141C8.73867 14.3833 8.53125 14.8841 8.53125 15.4062C8.53125 15.9284 8.73867 16.4292 9.10788 16.7984C9.4771 17.1676 9.97785 17.375 10.5 17.375C11.0221 17.375 11.5229 17.1676 11.8921 16.7984C12.2613 16.4292 12.4688 15.9284 12.4688 15.4062C12.4688 14.8841 12.2613 14.3833 11.8921 14.0141C11.5229 13.6449 11.0221 13.4375 10.5 13.4375Z" fill="#702B68"/>
<path fill-rule="evenodd" clip-rule="evenodd" d="M5.39329 10.3021C6.74704 8.94847 8.58303 8.18803 10.4974 8.18803C12.4118 8.18803 14.2478 8.94847 15.6016 10.3021C15.8579 10.5583 15.8579 10.9738 15.6016 11.2301C15.3453 11.4864 14.9298 11.4865 14.6735 11.2302C13.5659 10.1227 12.0637 9.50053 10.4974 9.50053C8.93111 9.50053 7.42893 10.1227 6.32131 11.2302C6.06502 11.4865 5.6495 11.4864 5.39323 11.2301C5.13697 10.9738 5.13699 10.5583 5.39329 10.3021Z" fill="#702B68"/>
<path fill-rule="evenodd" clip-rule="evenodd" d="M2.61166 7.51783C4.70384 5.42579 7.54136 4.2505 10.5001 4.2505C13.4588 4.2505 16.2963 5.42579 18.3885 7.51783C18.6447 7.77411 18.6448 8.18962 18.3885 8.44591C18.1322 8.7022 17.7167 8.70221 17.4604 8.44594C15.6144 6.60002 13.1107 5.563 10.5001 5.563C7.88945 5.563 5.38575 6.60002 3.53971 8.44594C3.28342 8.70221 2.8679 8.7022 2.61163 8.44591C2.35536 8.18962 2.35537 7.77411 2.61166 7.51783Z" fill="#702B68"/>
<path fill-rule="evenodd" clip-rule="evenodd" d="M0.208809 4.36582C3.00291 1.76157 6.68044 0.313477 10.5 0.313477C14.3196 0.313477 17.9971 1.76157 20.7912 4.36582C21.0563 4.61294 21.0709 5.0282 20.8238 5.29333C20.5767 5.55846 20.1614 5.57306 19.8963 5.32594C17.3452 2.94815 13.9874 1.62598 10.5 1.62598C7.01257 1.62598 3.65483 2.94815 1.1037 5.32594C0.838565 5.57306 0.423307 5.55846 0.176191 5.29333C-0.0709246 5.0282 -0.0563211 4.61294 0.208809 4.36582Z" fill="#702B68"/>
</svg>
