<svg xmlns="http://www.w3.org/2000/svg" xmlns:xlink="http://www.w3.org/1999/xlink" viewBox="0 0 101 113.44"><defs><style>.cls-1{fill:#c01c78;}.cls-2{stroke:#fff;stroke-miterlimit:10;stroke-width:4px;fill:url(#New_Gradient_Swatch_1);}.cls-3{fill:url(#New_Gradient_Swatch_1-2);}.cls-4{fill:#fff;}</style><linearGradient id="New_Gradient_Swatch_1" x1="2" y1="80.67" x2="78.74" y2="80.67" gradientUnits="userSpaceOnUse"><stop offset="0" stop-color="#c01c78"/><stop offset="0.14" stop-color="#cc2f61"/><stop offset="0.33" stop-color="#d94549"/><stop offset="0.53" stop-color="#e25437"/><stop offset="0.75" stop-color="#e75d2c"/><stop offset="1" stop-color="#e96029"/><stop offset="1" stop-color="#e96029"/></linearGradient><linearGradient id="New_Gradient_Swatch_1-2" x1="41.62" y1="49.53" x2="86.63" y2="49.53" xlink:href="#New_Gradient_Swatch_1"/></defs><g id="Layer_2" data-name="Layer 2"><g id="Layer_1-2" data-name="Layer 1"><circle class="cls-1" cx="51.01" cy="49.99" r="49.99"/><path class="cls-2" d="M47.23,50,62.46,66.05a.32.32,0,0,1-.1.53c-4.59,1.71-43.62,18.34-43.62,24.87,0,6.14,50.31,16.62,59.77,19.29a.32.32,0,0,1-.08.62C67,111.58,2,112.59,2,93.12c0-20.87,41.92-41.69,44.88-43.2A.3.3,0,0,1,47.23,50Z"/><path class="cls-3" d="M64.13,72a22.51,22.51,0,1,1,22.5-22.51A22.54,22.54,0,0,1,64.13,72Z"/><path class="cls-4" d="M64.13,30a19.51,19.51,0,1,1-19.51,19.5A19.5,19.5,0,0,1,64.13,30m0-6a25.51,25.51,0,1,0,25.5,25.5A25.53,25.53,0,0,0,64.13,24Z"/><path class="cls-4" d="M44.3,64.72,32.86,73.07c-.15.18,14.79-5.19,14.79-5.19Z"/><path class="cls-4" d="M40.23,58.05,24.47,72.11C24.24,72.32,43.14,63,43.14,63Z"/></g></g></svg>