<svg width="18" height="22" viewBox="0 0 18 22" fill="none" xmlns="http://www.w3.org/2000/svg">
<path fill-rule="evenodd" clip-rule="evenodd" d="M1.05159 9.72346C1.17466 9.60039 1.34158 9.53125 1.51562 9.53125H12.0156C12.3781 9.53125 12.6719 9.82506 12.6719 10.1875C12.6719 11.7539 12.0496 13.2562 10.942 14.3638C9.83434 15.4715 8.33206 16.0938 6.76562 16.0938C5.19919 16.0938 3.69691 15.4715 2.58928 14.3638C1.48164 13.2562 0.859375 11.7539 0.859375 10.1875C0.859375 10.0135 0.928515 9.84653 1.05159 9.72346ZM2.21897 10.8438C2.35979 11.8195 2.81206 12.7305 3.51735 13.4358C4.37885 14.2973 5.54729 14.7812 6.76562 14.7812C7.98396 14.7812 9.1524 14.2973 10.0139 13.4358C10.7192 12.7305 11.1715 11.8195 11.3123 10.8438H2.21897Z" fill="#702B68"/>
<path fill-rule="evenodd" clip-rule="evenodd" d="M11.3594 2.3125C11.3594 1.95006 11.6532 1.65625 12.0156 1.65625C14.8171 1.65625 17.2656 3.62199 17.2656 6.25C17.2656 8.87809 14.8161 10.8438 12.0156 10.8438C11.6532 10.8438 11.3594 10.5499 11.3594 10.1875V2.3125ZM12.6719 3.01327V9.4867C14.6018 9.22061 15.9531 7.80028 15.9531 6.25C15.9531 4.6996 14.6023 3.27928 12.6719 3.01327Z" fill="#702B68"/>
<path fill-rule="evenodd" clip-rule="evenodd" d="M12.0156 0.34375C12.3781 0.34375 12.6719 0.637563 12.6719 1V2.3125C12.6719 2.67494 12.3781 2.96875 12.0156 2.96875C11.6532 2.96875 11.3594 2.67494 11.3594 2.3125V1C11.3594 0.637563 11.6532 0.34375 12.0156 0.34375Z" fill="#702B68"/>
<path fill-rule="evenodd" clip-rule="evenodd" d="M2.17188 7.5625C2.17188 7.20006 2.46569 6.90625 2.82812 6.90625H9.39062C9.75306 6.90625 10.0469 7.20006 10.0469 7.5625C10.0469 7.92494 9.75306 8.21875 9.39062 8.21875H2.82812C2.46569 8.21875 2.17188 7.92494 2.17188 7.5625Z" fill="#702B68"/>
<path fill-rule="evenodd" clip-rule="evenodd" d="M4.21748 14.0853C4.5777 14.1253 4.8373 14.4497 4.7973 14.8099L4.13667 20.7599C4.09668 21.1202 3.77224 21.3798 3.41201 21.3398C3.05179 21.2998 2.7922 20.9753 2.83219 20.6151L3.49282 14.6651C3.53281 14.3049 3.85725 14.0453 4.21748 14.0853Z" fill="#702B68"/>
<path fill-rule="evenodd" clip-rule="evenodd" d="M2.97424 19.375C2.97424 19.0126 3.26806 18.7188 3.63049 18.7188H9.90074C10.2632 18.7188 10.557 19.0126 10.557 19.375C10.557 19.7374 10.2632 20.0312 9.90074 20.0312H3.63049C3.26806 20.0312 2.97424 19.7374 2.97424 19.375Z" fill="#702B68"/>
<path fill-rule="evenodd" clip-rule="evenodd" d="M9.31289 14.0853C9.6731 14.0452 9.9976 14.3048 10.0377 14.665L10.6948 20.573C10.7349 20.9332 10.4753 21.2577 10.1151 21.2977C9.75489 21.3378 9.4304 21.0783 9.39033 20.7181L8.73321 14.8101C8.69314 14.4498 8.95267 14.1254 9.31289 14.0853Z" fill="#702B68"/>
</svg>
