<svg width="20" height="23" viewBox="0 0 20 23" fill="none" xmlns="http://www.w3.org/2000/svg">
<path d="M7.30005 6.6C7.30005 5.11479 7.89005 3.69041 8.94025 2.6402C9.99045 1.59 11.4148 1 12.9 1C14.3853 1 15.8096 1.59 16.8598 2.6402C17.9101 3.69041 18.5 5.11479 18.5 6.6V22" stroke="#702B68" stroke-width="1.3125" stroke-linecap="round" stroke-linejoin="round"/>
<path d="M3.1001 10.8C3.1001 9.6861 3.5426 8.61781 4.33025 7.83016C5.1179 7.04251 6.18619 6.60001 7.3001 6.60001C8.41401 6.60001 9.48229 7.04251 10.2699 7.83016C11.0576 8.61781 11.5001 9.6861 11.5001 10.8H3.1001Z" stroke="#702B68" stroke-width="1.3125" stroke-linecap="round" stroke-linejoin="round"/>
<path d="M3.8001 13.6L3.1001 15.7" stroke="#702B68" stroke-width="1.3125" stroke-linecap="round" stroke-linejoin="round"/>
<path d="M1.7 19.9L1 22" stroke="#702B68" stroke-width="1.3125" stroke-linecap="round" stroke-linejoin="round"/>
<path d="M10.8 13.6L11.5 15.7" stroke="#702B68" stroke-width="1.3125" stroke-linecap="round" stroke-linejoin="round"/>
<path d="M12.8999 19.9L13.5999 22" stroke="#702B68" stroke-width="1.3125" stroke-linecap="round" stroke-linejoin="round"/>
<path d="M7.30005 13.6V15.7" stroke="#702B68" stroke-width="1.3125" stroke-linecap="round" stroke-linejoin="round"/>
<path d="M7.30005 22V19.9" stroke="#702B68" stroke-width="1.3125" stroke-linecap="round" stroke-linejoin="round"/>
</svg>
