<svg width="21" height="21" viewBox="0 0 21 21" fill="none" xmlns="http://www.w3.org/2000/svg">
<path fill-rule="evenodd" clip-rule="evenodd" d="M1.41941 2.3707C3.74519 1.69997 10.1399 0 14.4375 0C16.178 0 17.8472 0.691404 19.0779 1.92211C20.3086 3.15282 21 4.82202 21 6.5625C21 8.30298 20.3086 9.97218 19.0779 11.2029C17.8472 12.4336 16.178 13.125 14.4375 13.125C10.1399 13.125 3.77034 11.4248 1.42127 10.7548L1.4175 10.7537C1.00856 10.6345 0.649337 10.3858 0.39375 10.045C0.138163 9.70422 0 9.28973 0 8.86375V4.26125C0 3.83527 0.138163 3.42078 0.39375 3.08C0.649337 2.73922 1.00856 2.49052 1.4175 2.37125L1.4194 2.37069L1.41941 2.3707ZM1.78425 3.63147C1.64825 3.67131 1.52879 3.75411 1.44375 3.8675C1.35855 3.98109 1.3125 4.11926 1.3125 4.26125V8.86375C1.3125 9.00574 1.35855 9.14391 1.44375 9.2575C1.52862 9.37066 1.64778 9.45336 1.78345 9.49329C4.16102 10.1713 10.3539 11.8125 14.4375 11.8125C15.8299 11.8125 17.1652 11.2594 18.1498 10.2748C19.1344 9.29025 19.6875 7.95489 19.6875 6.5625C19.6875 5.17011 19.1344 3.83476 18.1498 2.85019C17.1652 1.86562 15.8299 1.3125 14.4375 1.3125C10.3533 1.3125 4.13185 2.9545 1.78425 3.63147Z" fill="#702B68"/>
<path fill-rule="evenodd" clip-rule="evenodd" d="M15.0938 0.0349998C15.4562 0.0349998 15.75 0.328813 15.75 0.69125V12.4338C15.75 12.7962 15.4562 13.09 15.0938 13.09C14.7313 13.09 14.4375 12.7962 14.4375 12.4338V0.69125C14.4375 0.328813 14.7313 0.0349998 15.0938 0.0349998Z" fill="#702B68"/>
<path fill-rule="evenodd" clip-rule="evenodd" d="M18.0447 10.892C18.2588 11.0059 18.3925 11.2287 18.3925 11.4712V17.7188C18.3925 18.589 18.0468 19.4236 17.4315 20.0389C16.8161 20.6543 15.9815 21 15.1113 21H14.1069C13.6446 21.0025 13.187 20.9073 12.764 20.7206C12.3404 20.5336 11.9612 20.2591 11.6513 19.9151C11.3413 19.571 11.1077 19.1653 10.9658 18.7246C10.8239 18.2838 10.7768 17.818 10.8278 17.3578L11.3966 12.256C11.4367 11.8961 11.7608 11.6368 12.1207 11.6765C12.8915 11.7614 13.6662 11.8069 14.4416 11.8125C15.4844 11.8177 16.5047 11.5091 17.3699 10.9268C17.5711 10.7914 17.8306 10.778 18.0447 10.892ZM14.4375 12.4688L14.4328 13.125C13.8308 13.1206 13.2292 13.0936 12.6294 13.044L12.1323 17.5022C12.1323 17.5023 12.1323 17.5021 12.1323 17.5022C12.1018 17.7783 12.13 18.0579 12.2151 18.3223C12.3003 18.5867 12.4405 18.8301 12.6264 19.0366C12.8124 19.243 13.0399 19.4077 13.2941 19.5199C13.5482 19.6321 13.8232 19.6892 14.1011 19.6875L14.105 19.6875L15.1113 19.6875C15.6334 19.6875 16.1342 19.4801 16.5034 19.1109C16.8726 18.7417 17.08 18.2409 17.08 17.7188V12.5779C16.25 12.9416 15.349 13.1297 14.4342 13.125L14.4375 12.4688Z" fill="#702B68"/>
<path fill-rule="evenodd" clip-rule="evenodd" d="M5.03125 1.44375C5.39369 1.44375 5.6875 1.73756 5.6875 2.1V11.025C5.6875 11.3874 5.39369 11.6813 5.03125 11.6813C4.66881 11.6813 4.375 11.3874 4.375 11.025V2.1C4.375 1.73756 4.66881 1.44375 5.03125 1.44375Z" fill="#702B68"/>
</svg>
