<svg width="20" height="22" viewBox="0 0 20 22" fill="none" xmlns="http://www.w3.org/2000/svg">
<path d="M16.4436 20.6875V15.2056C17.6526 14.0856 18.4958 12.6269 18.8631 11.0202C19.2303 9.41352 19.1045 7.73342 18.5021 6.19932C17.8997 4.66521 16.8487 3.34841 15.4864 2.42087C14.124 1.49332 12.5136 0.998149 10.8655 1.00001C4.61885 1.00001 3.27485 6.14325 1.0436 11.92C1.00545 12.0195 0.992043 12.1267 1.00454 12.2325C1.01703 12.3382 1.05505 12.4394 1.11532 12.5272C1.17559 12.615 1.2563 12.6869 1.35051 12.7366C1.44471 12.7863 1.54959 12.8123 1.6561 12.8125H3.3186V15.4375C3.3186 16.1337 3.59516 16.8014 4.08745 17.2937C4.57973 17.7859 5.24741 18.0625 5.9436 18.0625H7.2561V20.6875" stroke="#702B68" stroke-width="1.3125" stroke-linecap="round" stroke-linejoin="round"/>
<path d="M7.75321 7.08125C7.66872 7.03697 7.59487 6.97486 7.53677 6.8992C7.47867 6.82355 7.43771 6.73617 7.41674 6.64312C7.39576 6.55006 7.39527 6.45356 7.4153 6.3603C7.43532 6.26704 7.47538 6.17924 7.53271 6.103C8.18896 5.23716 9.1308 4.63188 10.191 4.39462C11.2512 4.15735 12.3612 4.30346 13.3239 4.807C14.2866 5.31054 15.0397 6.13893 15.4496 7.14509C15.8594 8.15126 15.8995 9.27011 15.5626 10.303C15.533 10.3937 15.484 10.4769 15.419 10.5468C15.354 10.6166 15.2745 10.6714 15.1861 10.7074C15.0977 10.7434 15.0026 10.7597 14.9072 10.7551C14.8119 10.7506 14.7187 10.7253 14.6342 10.681L7.75321 7.08125Z" stroke="#702B68" stroke-width="1.3125" stroke-linecap="round" stroke-linejoin="round"/>
</svg>
