<svg width="22" height="22" viewBox="0 0 22 22" fill="none" xmlns="http://www.w3.org/2000/svg">
<path fill-rule="evenodd" clip-rule="evenodd" d="M2.53125 17.2925C2.89369 17.2925 3.1875 17.5863 3.1875 17.9488V19.37C3.1891 19.4577 3.20778 19.5442 3.24253 19.6247C3.27773 19.7063 3.32874 19.7801 3.3926 19.8419C3.45646 19.9037 3.53191 19.9523 3.61462 19.9848C3.69732 20.0173 3.78564 20.0331 3.87449 20.0314L3.8875 20.0311L18.2505 20.0312C18.3394 20.033 18.4277 20.0173 18.5104 19.9848C18.5931 19.9523 18.6685 19.9037 18.7324 19.8419C18.7963 19.7801 18.8473 19.7063 18.8825 19.6247C18.9172 19.5442 18.9359 19.4577 18.9375 19.37V17.9488C18.9375 17.5863 19.2313 17.2925 19.5938 17.2925C19.9562 17.2925 20.25 17.5863 20.25 17.9488V19.3835C20.2466 19.6455 20.1914 19.9042 20.0876 20.1447C19.9838 20.3853 19.8334 20.6029 19.6451 20.7851C19.4569 20.9673 19.2344 21.1104 18.9906 21.2063C18.749 21.3013 18.4912 21.348 18.2316 21.3438H3.89335C3.63383 21.348 3.37598 21.3013 3.13438 21.2063C2.89057 21.1104 2.66812 20.9673 2.47986 20.7851C2.29159 20.6029 2.14123 20.3853 2.03744 20.1447C1.93364 19.9042 1.87845 19.6455 1.87506 19.3835L1.87494 19.375L1.875 17.9488C1.875 17.5863 2.16881 17.2925 2.53125 17.2925Z" fill="#702B68"/>
<path fill-rule="evenodd" clip-rule="evenodd" d="M3.14943 7.46474C3.27108 7.80615 3.09293 8.18153 2.75151 8.30318C2.54061 8.37833 2.35261 8.50652 2.20563 8.67542C2.05865 8.84431 1.95764 9.04821 1.91233 9.26747C1.86702 9.48673 1.87894 9.71397 1.94695 9.92728C2.01495 10.1406 2.13674 10.3328 2.30059 10.4854C2.46443 10.638 2.66481 10.7458 2.88243 10.7985C3.10004 10.8511 3.32754 10.8469 3.54303 10.7861C3.75851 10.7253 3.95472 10.6101 4.11274 10.4515C4.27075 10.2928 4.38526 10.0962 4.44523 9.88049C4.50904 9.65091 4.69229 9.47397 4.92395 9.41822C5.15562 9.36246 5.3993 9.43667 5.56058 9.61207C6.20215 10.3098 7.0805 10.7438 8.02451 10.8293C8.96852 10.9149 9.91058 10.646 10.6672 10.0749C10.9011 9.89835 11.2239 9.89835 11.4578 10.0749C12.2144 10.646 13.1565 10.9149 14.1005 10.8293C15.0445 10.7438 15.9229 10.3098 16.5644 9.61207C16.7257 9.43667 16.9694 9.36246 17.201 9.41822C17.4327 9.47397 17.616 9.65091 17.6798 9.88049C17.7397 10.0962 17.8542 10.2928 18.0123 10.4515C18.1703 10.6101 18.3665 10.7253 18.582 10.7861C18.7975 10.8469 19.025 10.8511 19.2426 10.7985C19.4602 10.7458 19.6606 10.638 19.8244 10.4854C19.9883 10.3328 20.1101 10.1406 20.1781 9.92728C20.2461 9.71397 20.258 9.48673 20.2127 9.26747C20.1674 9.04821 20.0664 8.84431 19.9194 8.67542C19.7724 8.50652 19.5844 8.37833 19.3735 8.30318C19.0321 8.18153 18.8539 7.80615 18.9756 7.46474C19.0972 7.12332 19.4726 6.94517 19.814 7.06682C20.2372 7.21762 20.6145 7.47487 20.9094 7.81379C21.2044 8.15271 21.4071 8.56188 21.498 9.00187C21.5889 9.44186 21.565 9.89785 21.4286 10.3259C21.2921 10.754 21.0477 11.1397 20.7189 11.4459C20.3901 11.7521 19.988 11.9685 19.5513 12.0741C19.1146 12.1798 18.6581 12.1713 18.2257 12.0493C17.7933 11.9273 17.3995 11.6961 17.0824 11.3778C17.0003 11.2953 16.924 11.2078 16.854 11.1158C16.0934 11.6924 15.1816 12.0492 14.219 12.1365C13.1099 12.237 12.0028 11.9735 11.0625 11.3929C10.1222 11.9735 9.01511 12.237 7.90603 12.1365C6.9434 12.0492 6.03157 11.6924 5.27098 11.1158C5.20096 11.2078 5.12469 11.2953 5.04256 11.3778C4.72547 11.6961 4.33174 11.9273 3.89933 12.0493C3.46691 12.1713 3.01037 12.1798 2.57369 12.0741C2.137 11.9685 1.7349 11.7521 1.4061 11.4459C1.07731 11.1397 0.83291 10.754 0.69645 10.3259C0.559989 9.89786 0.536066 9.44186 0.626986 9.00187C0.717905 8.56187 0.920603 8.15271 1.21555 7.81379C1.5105 7.47487 1.88776 7.21762 2.31099 7.06682C2.6524 6.94517 3.02778 7.12332 3.14943 7.46474Z" fill="#702B68"/>
<path fill-rule="evenodd" clip-rule="evenodd" d="M13.0312 0.34375C13.9906 0.343598 14.9404 0.534686 15.8251 0.905845C16.7098 1.27702 17.5117 1.82083 18.1838 2.50549C18.8559 3.19015 19.3848 4.00192 19.7396 4.89335C20.0943 5.78479 20.2678 6.73799 20.2499 7.69725C20.2432 8.05485 19.9514 8.34125 19.5937 8.34125H2.53125C2.16881 8.34125 1.875 8.04744 1.875 7.685C1.875 6.2222 2.39538 4.40508 3.55198 2.94141C4.72577 1.45597 6.5508 0.34375 9.09375 0.34375H13.0312C13.0312 0.34375 13.0313 0.34375 13.0312 0.34375ZM13.0312 1.65625H9.09375C6.9817 1.65625 5.52548 2.5609 4.58177 3.75515C3.79023 4.75685 3.35665 5.96847 3.2284 7.02875H18.9145C18.8632 6.46372 18.7307 5.90788 18.5201 5.37865C18.2298 4.6493 17.7971 3.98512 17.2472 3.42495C16.6973 2.86477 16.0412 2.41983 15.3173 2.11615C14.5935 1.81246 13.8162 1.65611 13.0312 1.65625Z" fill="#702B68"/>
<path fill-rule="evenodd" clip-rule="evenodd" d="M3.1875 14.7812C2.8394 14.7812 2.50556 14.9195 2.25942 15.1657C2.01328 15.4118 1.875 15.7457 1.875 16.0938C1.875 16.4418 2.01328 16.7757 2.25942 17.0218C2.50556 17.268 2.8394 17.4062 3.1875 17.4062H11.7188C12.0812 17.4062 12.375 17.7001 12.375 18.0625C12.375 18.4249 12.0812 18.7188 11.7188 18.7188H3.1875C2.49131 18.7188 1.82363 18.4422 1.33134 17.9499C0.839062 17.4576 0.5625 16.7899 0.5625 16.0938C0.5625 15.3976 0.839062 14.7299 1.33134 14.2376C1.82363 13.7453 2.49131 13.4688 3.1875 13.4688H18.9375C19.6337 13.4688 20.3014 13.7453 20.7937 14.2376C21.2859 14.7299 21.5625 15.3976 21.5625 16.0938C21.5625 16.7899 21.2859 17.4576 20.7937 17.9499C20.3014 18.4422 19.6337 18.7188 18.9375 18.7188H18.2812C17.9188 18.7188 17.625 18.4249 17.625 18.0625C17.625 17.7001 17.9188 17.4062 18.2812 17.4062H18.9375C19.2856 17.4062 19.6194 17.268 19.8656 17.0218C20.1117 16.7757 20.25 16.4418 20.25 16.0938C20.25 15.7457 20.1117 15.4118 19.8656 15.1657C19.6194 14.9195 19.2856 14.7812 18.9375 14.7812H3.1875Z" fill="#702B68"/>
<path fill-rule="evenodd" clip-rule="evenodd" d="M2.15239 10.3523C2.42382 10.5925 2.44915 11.0072 2.20896 11.2786C1.9945 11.521 1.87577 11.8332 1.875 12.1569C1.87516 12.5047 2.01343 12.8383 2.25942 13.0843C2.50556 13.3305 2.8394 13.4688 3.1875 13.4688H18.9375C19.2856 13.4688 19.6194 13.3305 19.8656 13.0843C20.1116 12.8383 20.2499 12.5046 20.25 12.1566C20.2492 11.8331 20.1304 11.5209 19.916 11.2786C19.6759 11.0072 19.7012 10.5925 19.9726 10.3523C20.244 10.1121 20.6588 10.1374 20.899 10.4089C21.3253 10.8907 21.5613 11.5116 21.5625 12.155L20.9062 12.1562H21.5625C21.5625 12.8524 21.2859 13.5201 20.7937 14.0124C20.3014 14.5047 19.6337 14.7812 18.9375 14.7812H3.1875C2.49131 14.7812 1.82363 14.5047 1.33134 14.0124C0.839062 13.5201 0.5625 12.8524 0.5625 12.1562H1.21875L0.562501 12.155C0.56372 11.5116 0.79965 10.8907 1.22604 10.4089C1.46622 10.1374 1.88096 10.1121 2.15239 10.3523Z" fill="#702B68"/>
<path fill-rule="evenodd" clip-rule="evenodd" d="M8.53102 13.7874C8.71749 13.4766 9.1206 13.3758 9.43139 13.5623L15.4573 17.1778L17.7352 13.761C17.9363 13.4594 18.3437 13.3779 18.6453 13.579C18.9468 13.78 19.0283 14.1875 18.8273 14.489L16.2023 18.4265C16.008 18.718 15.619 18.8055 15.3186 18.6252L8.75611 14.6877C8.44532 14.5013 8.34455 14.0981 8.53102 13.7874Z" fill="#702B68"/>
<path fill-rule="evenodd" clip-rule="evenodd" d="M6.80125 3.625C6.53902 3.625 6.28752 3.72917 6.1021 3.9146C5.91667 4.10002 5.8125 4.35152 5.8125 4.61375C5.8125 4.80931 5.87049 5.00047 5.97913 5.16307C6.08778 5.32567 6.2422 5.4524 6.42287 5.52724C6.60354 5.60207 6.80235 5.62165 6.99415 5.5835C7.18594 5.54535 7.36212 5.45118 7.5004 5.3129C7.63868 5.17462 7.73285 4.99844 7.771 4.80665C7.80915 4.61485 7.78957 4.41604 7.71474 4.23537C7.6399 4.0547 7.51317 3.90028 7.35057 3.79163C7.18797 3.68299 6.99681 3.625 6.80125 3.625Z" fill="#702B68"/>
<path fill-rule="evenodd" clip-rule="evenodd" d="M10.7388 2.96875C10.4765 2.96875 10.225 3.07292 10.0396 3.25835C9.85417 3.44377 9.75 3.69527 9.75 3.9575C9.75 4.15305 9.80799 4.34422 9.91663 4.50682C10.0253 4.66942 10.1797 4.79615 10.3604 4.87099C10.541 4.94582 10.7398 4.9654 10.9316 4.92725C11.1234 4.8891 11.2996 4.79493 11.4379 4.65665C11.5762 4.51837 11.6704 4.34219 11.7085 4.1504C11.7467 3.9586 11.7271 3.7598 11.6522 3.57912C11.5774 3.39845 11.4507 3.24403 11.2881 3.13538C11.1255 3.02674 10.9343 2.96875 10.7388 2.96875Z" fill="#702B68"/>
<path fill-rule="evenodd" clip-rule="evenodd" d="M14.7394 4.93128C14.8018 4.91888 14.8596 4.88828 14.9052 4.84268C14.9508 4.79707 14.9814 4.73925 14.9938 4.67691C14.9979 4.65626 15 4.63511 15 4.61375C15 4.57103 14.9915 4.52895 14.9754 4.48986C14.9673 4.47036 14.9573 4.4516 14.9454 4.43388C14.9217 4.39836 14.8913 4.36807 14.8561 4.34456C14.8386 4.33284 14.8198 4.3228 14.8001 4.31464C14.7607 4.2983 14.7186 4.29 14.6762 4.29C14.6551 4.29 14.634 4.29206 14.6131 4.29622C14.5503 4.30871 14.4926 4.33955 14.4473 4.38482C14.402 4.4301 14.3712 4.48779 14.3587 4.55059C14.3546 4.57149 14.3525 4.59265 14.3525 4.61375C14.3525 4.65606 14.3608 4.69818 14.3771 4.73764C14.3853 4.75733 14.3953 4.77607 14.4071 4.79362C14.4306 4.8288 14.4609 4.8592 14.4964 4.88294C14.5141 4.89478 14.5329 4.90478 14.5524 4.91286C14.5914 4.92905 14.6335 4.9375 14.6762 4.9375C14.6976 4.9375 14.7188 4.93539 14.7394 4.93128ZM13.9771 3.9146C14.1625 3.72917 14.414 3.625 14.6762 3.625C14.8718 3.625 15.063 3.68299 15.2256 3.79163C15.3882 3.90028 15.5149 4.0547 15.5897 4.23537C15.6646 4.41603 15.6842 4.61484 15.646 4.80665C15.6079 4.99845 15.5137 5.17462 15.3754 5.3129C15.2371 5.45118 15.0609 5.54535 14.8691 5.5835C14.6773 5.62165 14.4785 5.60207 14.2979 5.52724C14.1172 5.4524 13.9628 5.32567 13.8541 5.16307C13.7455 5.00047 13.6875 4.8093 13.6875 4.61375C13.6875 4.35152 13.7917 4.10002 13.9771 3.9146Z" fill="#702B68"/>
</svg>
