<svg width="22" height="18" viewBox="0 0 22 18" fill="none" xmlns="http://www.w3.org/2000/svg">
<path fill-rule="evenodd" clip-rule="evenodd" d="M3.37971 5.62971C3.50278 5.50664 3.6697 5.4375 3.84375 5.4375H18.2812C18.4553 5.4375 18.6223 5.50668 18.7454 5.62981L20.9066 7.79193C21.3262 8.21179 21.5621 8.78102 21.5625 9.37459V12.6554C21.5625 13.1775 21.3551 13.6783 20.9859 14.0475C20.6167 14.4167 20.1159 14.6241 19.5938 14.6241C19.5938 14.6241 19.5938 14.6241 19.5938 14.6241L2.53128 14.625C2.00914 14.625 1.50835 14.4176 1.13913 14.0484C0.769922 13.6792 0.5625 13.1784 0.5625 12.6562V9.375C0.562546 8.781 0.798428 8.21128 1.21831 7.79112L3.37971 5.62971ZM4.11558 6.75L2.14669 8.71888C2.14664 8.71894 2.14675 8.71883 2.14669 8.71888C1.97285 8.89292 1.87503 9.129 1.875 9.375C1.875 9.37502 1.875 9.37498 1.875 9.375V12.6562C1.875 12.8303 1.94414 12.9972 2.06721 13.1203C2.19028 13.2434 2.35719 13.3125 2.53123 13.3125C2.53123 13.3125 2.53122 13.3125 2.53123 13.3125L19.5937 13.3116C19.7678 13.3116 19.9347 13.2425 20.0578 13.1194C20.1809 12.9963 20.25 12.8294 20.25 12.6554V9.37541C20.2498 9.12953 20.1522 8.89376 19.9784 8.71982C19.9783 8.7198 19.9784 8.71984 19.9784 8.71982L18.0093 6.75H4.11558Z" fill="#702B68"/>
<path fill-rule="evenodd" clip-rule="evenodd" d="M7.125 0.1875L15 0.1875C15.5191 0.187719 16.0261 0.346273 16.4527 0.641996C16.8794 0.93772 17.2057 1.35654 17.388 1.84256L18.8958 5.86793C18.9713 6.06949 18.9432 6.29525 18.8205 6.47211C18.6979 6.64897 18.4963 6.75444 18.2811 6.75437L3.84355 6.75C3.62836 6.74993 3.42686 6.64437 3.30431 6.46747C3.18176 6.29058 3.15373 6.06484 3.22928 5.86334L4.73691 1.84272C4.91929 1.3567 5.24564 0.93772 5.67228 0.641996C6.09892 0.346273 6.60589 0.187719 7.125 0.1875ZM14.9997 1.5H7.12528C7.12519 1.5 7.12537 1.5 7.12528 1.5C6.8733 1.50016 6.62708 1.57715 6.41998 1.7207C6.21285 1.86427 6.05443 2.06759 5.96585 2.30354C5.96583 2.30359 5.96587 2.30348 5.96585 2.30354L4.79059 5.43779L17.3346 5.44159L16.1592 2.30369C16.0707 2.06768 15.9122 1.8643 15.705 1.7207C15.4979 1.57715 15.2517 1.50016 14.9997 1.5Z" fill="#702B68"/>
<path fill-rule="evenodd" clip-rule="evenodd" d="M0.5625 4.78125C0.5625 4.41881 0.856313 4.125 1.21875 4.125H2.53125C2.7053 4.125 2.87222 4.19414 2.99529 4.31721L4.30779 5.62971C4.56407 5.88599 4.56407 6.30151 4.30779 6.55779C4.05151 6.81407 3.63599 6.81407 3.37971 6.55779L2.25942 5.4375H1.21875C0.856313 5.4375 0.5625 5.14369 0.5625 4.78125Z" fill="#702B68"/>
<path fill-rule="evenodd" clip-rule="evenodd" d="M19.1297 4.31721C19.2528 4.19414 19.4197 4.125 19.5938 4.125H20.9062C21.2687 4.125 21.5625 4.41881 21.5625 4.78125C21.5625 5.14369 21.2687 5.4375 20.9062 5.4375H19.8656L18.7453 6.55779C18.489 6.81407 18.0735 6.81407 17.8172 6.55779C17.5609 6.30151 17.5609 5.88599 17.8172 5.62971L19.1297 4.31721Z" fill="#702B68"/>
<path fill-rule="evenodd" clip-rule="evenodd" d="M1.875 13.9679C1.875 13.6054 2.16881 13.3116 2.53125 13.3116H5.15625C5.51869 13.3116 5.8125 13.6054 5.8125 13.9679V15.2804C5.8125 15.8025 5.60508 16.3033 5.23587 16.6725C4.86665 17.0417 4.3659 17.2491 3.84375 17.2491C3.3216 17.2491 2.82085 17.0417 2.45163 16.6725C2.08242 16.3033 1.875 15.8025 1.875 15.2804V13.9679ZM3.1875 14.6241V15.2804C3.1875 15.4544 3.25664 15.6213 3.37971 15.7444C3.50278 15.8675 3.6697 15.9366 3.84375 15.9366C4.0178 15.9366 4.18472 15.8675 4.30779 15.7444C4.43086 15.6213 4.5 15.4544 4.5 15.2804V14.6241H3.1875Z" fill="#702B68"/>
<path fill-rule="evenodd" clip-rule="evenodd" d="M16.3125 13.9679C16.3125 13.6054 16.6063 13.3116 16.9688 13.3116H19.5938C19.9562 13.3116 20.25 13.6054 20.25 13.9679V15.2804C20.25 15.8025 20.0426 16.3033 19.6734 16.6725C19.3042 17.0417 18.8034 17.2491 18.2812 17.2491C17.7591 17.2491 17.2583 17.0417 16.8891 16.6725C16.5199 16.3033 16.3125 15.8025 16.3125 15.2804V13.9679ZM17.625 14.6241V15.2804C17.625 15.4544 17.6941 15.6213 17.8172 15.7444C17.9403 15.8675 18.1072 15.9366 18.2812 15.9366C18.4553 15.9366 18.6222 15.8675 18.7453 15.7444C18.8684 15.6213 18.9375 15.4544 18.9375 15.2804V14.6241H17.625Z" fill="#702B68"/>
<path fill-rule="evenodd" clip-rule="evenodd" d="M8.96246 8.06162H13.1638C13.3978 8.06209 13.6275 8.12508 13.829 8.24409C14.0305 8.3631 14.1966 8.5338 14.31 8.73852C14.4234 8.94325 14.4801 9.17456 14.4741 9.40853C14.4681 9.6425 14.3997 9.87062 14.276 10.0693L14.2754 10.0703L13.2621 11.6908C13.07 11.9981 12.6651 12.0915 12.3578 11.8993C12.0505 11.7072 11.9571 11.3023 12.1493 10.995L13.1619 9.37546L13.1616 9.37424L8.96473 9.37412L8.96387 9.37502L8.96476 9.37667L9.97801 10.9945C10.1704 11.3017 10.0773 11.7067 9.77016 11.8991C9.46299 12.0914 9.05803 11.9984 8.86566 11.6912L7.85317 10.0745C7.85302 10.0743 7.85332 10.0748 7.85317 10.0745C7.7286 9.87632 7.65883 9.64768 7.65194 9.41366C7.64504 9.17936 7.70096 8.94749 7.81392 8.74209C7.92688 8.5367 8.09274 8.36528 8.29431 8.24563C8.49587 8.12597 8.72578 8.06244 8.96018 8.06163L8.96246 8.06162Z" fill="#702B68"/>
<path fill-rule="evenodd" clip-rule="evenodd" d="M18.031 8.06162L20.7619 8.06162C21.1243 8.06162 21.4181 8.35544 21.4181 8.71787C21.4181 9.08031 21.1243 9.37412 20.7619 9.37412H18.032L18.0311 9.37496L18.1428 9.59856C18.1428 9.59859 18.1428 9.59854 18.1428 9.59856C18.3061 9.92508 18.5571 10.1998 18.8675 10.392C19.1779 10.584 19.5355 10.686 19.9005 10.6866H20.9062C21.2687 10.6866 21.5625 10.9804 21.5625 11.3429C21.5625 11.7053 21.2687 11.9991 20.9062 11.9991H19.9C19.2915 11.9983 18.6943 11.8283 18.1768 11.508C17.6594 11.1878 17.2412 10.7299 16.9689 10.1857L16.8569 9.96161C16.7572 9.76152 16.7098 9.53854 16.72 9.31521C16.7302 9.09187 16.7972 8.87484 16.9147 8.68465C17.0322 8.49447 17.1963 8.33742 17.3915 8.22839C17.5867 8.11937 17.8074 8.06196 18.031 8.06162Z" fill="#702B68"/>
<path fill-rule="evenodd" clip-rule="evenodd" d="M0.706875 8.71787C0.706875 8.35544 1.00069 8.06162 1.36313 8.06162H4.094C4.31756 8.06196 4.53834 8.11937 4.73351 8.22839C4.92869 8.33742 5.0928 8.49447 5.21031 8.68465C5.32782 8.87484 5.39484 9.09188 5.40501 9.31521C5.41519 9.53854 5.36819 9.76077 5.26847 9.96086L5.15609 10.1856C4.88388 10.7299 4.46564 11.1878 3.94819 11.508C3.43074 11.8283 2.83443 11.9983 2.2259 11.9991L1.21875 11.9991C0.856313 11.9991 0.5625 11.7053 0.5625 11.3429C0.5625 10.9804 0.856313 10.6866 1.21875 10.6866H2.22451C2.58949 10.686 2.94712 10.584 3.25748 10.392C3.56792 10.1998 3.81883 9.92515 3.98216 9.59864C3.98217 9.59861 3.98214 9.59866 3.98216 9.59864L4.09378 9.37539L4.09343 9.37423L1.36313 9.37412C1.00069 9.37412 0.706875 9.08031 0.706875 8.71787Z" fill="#702B68"/>
</svg>
