<svg width="23" height="23" viewBox="0 0 23 23" fill="none" xmlns="http://www.w3.org/2000/svg">
<path d="M19.8374 2.08138L21.6429 1" stroke="#702B68" stroke-width="1.3125" stroke-linecap="round" stroke-linejoin="round"/>
<path d="M19.8374 7.15036L21.6429 8.24139" stroke="#702B68" stroke-width="1.3125" stroke-linecap="round" stroke-linejoin="round"/>
<path d="M19.8374 4.6207H22.0098" stroke="#702B68" stroke-width="1.3125" stroke-linecap="round" stroke-linejoin="round"/>
<path d="M10.1725 10.5297V6.06899H14.0346V1.72416H7.52697C6.95604 1.72289 6.39048 1.8344 5.86277 2.0523C5.33506 2.2702 4.85558 2.59019 4.45187 2.99389C4.04816 3.3976 3.72817 3.87708 3.51028 4.40479C3.29238 4.93251 3.18087 5.49806 3.18214 6.06899H6.31042V10.5297" stroke="#702B68" stroke-width="1.3125" stroke-linecap="round" stroke-linejoin="round"/>
<path d="M10.1724 6.06897C10.1724 6.06897 12.3544 9.68 15.251 9.68" stroke="#702B68" stroke-width="1.3125" stroke-linecap="round" stroke-linejoin="round"/>
<path d="M11.1379 13.3103V11.8621C11.1379 11.478 10.9853 11.1096 10.7137 10.838C10.4421 10.5664 10.0738 10.4138 9.68966 10.4138H6.7931C6.409 10.4138 6.04062 10.5664 5.76902 10.838C5.49741 11.1096 5.34483 11.478 5.34483 11.8621V13.3103C3.18207 13.3103 1 14.7586 1 19.1034C1 19.8717 1.30517 20.6084 1.84838 21.1516C2.39159 21.6948 3.12834 22 3.89655 22H12.5862C13.3544 22 14.0912 21.6948 14.6344 21.1516C15.1776 20.6084 15.4828 19.8717 15.4828 19.1034C15.4828 14.7586 13.32 13.3103 11.1379 13.3103Z" stroke="#702B68" stroke-width="1.3125" stroke-linecap="round" stroke-linejoin="round"/>
<path d="M16.9407 3.17242V5.34484" stroke="#702B68" stroke-width="1.3125" stroke-linecap="round" stroke-linejoin="round"/>
</svg>
