<svg width="23" height="23" viewBox="0 0 23 23" fill="none" xmlns="http://www.w3.org/2000/svg">
<path d="M18.2499 13.1333H6.11655C5.74525 13.1333 5.38915 13.2808 5.1266 13.5434C4.86405 13.8059 4.71655 14.162 4.71655 14.5333V22H19.6499V14.5333C19.6499 14.162 19.5024 13.8059 19.2398 13.5434C18.9773 13.2808 18.6212 13.1333 18.2499 13.1333Z" stroke="#702B68" stroke-width="1.3125" stroke-linecap="round" stroke-linejoin="round"/>
<path d="M12.1829 16.4V22" stroke="#702B68" stroke-width="1.3125" stroke-linecap="round" stroke-linejoin="round"/>
<path d="M4.71631 16.4H19.6496" stroke="#702B68" stroke-width="1.3125" stroke-linecap="round" stroke-linejoin="round"/>
<path d="M7.74976 19.2H9.14976" stroke="#702B68" stroke-width="1.3125" stroke-linecap="round" stroke-linejoin="round"/>
<path d="M15.2163 19.2H16.6163" stroke="#702B68" stroke-width="1.3125" stroke-linecap="round" stroke-linejoin="round"/>
<path d="M14.45 1C14.8213 1 15.1773 1.1475 15.4399 1.41005C15.7025 1.6726 15.85 2.0287 15.85 2.4C15.85 2.7713 15.7025 3.1274 15.4399 3.38995C15.1773 3.6525 14.8213 3.8 14.45 3.8V5.2" stroke="#702B68" stroke-width="1.3125" stroke-linecap="round" stroke-linejoin="round"/>
<path d="M1.1499 2.39999H10.9499" stroke="#702B68" stroke-width="1.3125" stroke-linecap="round" stroke-linejoin="round"/>
<path d="M22.1499 2.39999H19.3499" stroke="#702B68" stroke-width="1.3125" stroke-linecap="round" stroke-linejoin="round"/>
<path d="M9.5498 9.4C9.5498 7.076 11.7431 5.2 14.4498 5.2C17.1565 5.2 19.3498 7.06666 19.3498 9.4H9.5498Z" stroke="#702B68" stroke-width="1.3125" stroke-linecap="round" stroke-linejoin="round"/>
</svg>
