<svg width="22" height="22" viewBox="0 0 22 22" fill="none" xmlns="http://www.w3.org/2000/svg">
<path d="M4.28125 16.0938H3.625C2.92881 16.0937 2.26113 15.8172 1.76884 15.3249C1.27656 14.8326 1 14.1649 1 13.4688V10.8438C1 10.1476 1.27656 9.47988 1.76884 8.98759C2.26113 8.49531 2.92881 8.21875 3.625 8.21875H4.28125C4.4553 8.21875 4.62222 8.28789 4.74529 8.41096C4.86836 8.53403 4.9375 8.70095 4.9375 8.875V15.4375C4.9375 15.6115 4.86836 15.7785 4.74529 15.9015C4.62222 16.0246 4.4553 16.0938 4.28125 16.0938Z" stroke="#702B68" stroke-width="1.3125" stroke-linecap="round" stroke-linejoin="round"/>
<path d="M18.0625 16.0938H17.4062C17.2322 16.0938 17.0653 16.0246 16.9422 15.9015C16.8191 15.7785 16.75 15.6115 16.75 15.4375V8.875C16.75 8.70095 16.8191 8.53403 16.9422 8.41096C17.0653 8.28789 17.2322 8.21875 17.4062 8.21875H18.0625C18.7587 8.21875 19.4264 8.49531 19.9187 8.98759C20.4109 9.47988 20.6875 10.1476 20.6875 10.8438V13.4688C20.6875 14.1649 20.4109 14.8326 19.9187 15.3249C19.4264 15.8172 18.7587 16.0937 18.0625 16.0938Z" stroke="#702B68" stroke-width="1.3125" stroke-linecap="round" stroke-linejoin="round"/>
<path d="M3.625 8.21875C3.625 6.30422 4.38554 4.4681 5.73932 3.11432C7.0931 1.76054 8.92922 1 10.8438 1V1C12.7583 1 14.5944 1.76054 15.9482 3.11432C17.302 4.4681 18.0625 6.30422 18.0625 8.21875" stroke="#702B68" stroke-width="1.3125" stroke-linecap="round" stroke-linejoin="round"/>
<path d="M13.4688 19.375H15.4375C16.1337 19.375 16.8014 19.0984 17.2937 18.6062C17.7859 18.1139 18.0625 17.4462 18.0625 16.75V16.0938" stroke="#702B68" stroke-width="1.3125" stroke-linecap="round" stroke-linejoin="round"/>
<path d="M12.1562 20.6875H10.8438C10.4957 20.6875 10.1618 20.5492 9.91567 20.3031C9.66953 20.0569 9.53125 19.7231 9.53125 19.375C9.53125 19.0269 9.66953 18.6931 9.91567 18.4469C10.1618 18.2008 10.4957 18.0625 10.8438 18.0625H12.1562C12.5043 18.0625 12.8382 18.2008 13.0843 18.4469C13.3305 18.6931 13.4687 19.0269 13.4688 19.375C13.4687 19.7231 13.3305 20.0569 13.0843 20.3031C12.8382 20.5492 12.5043 20.6875 12.1562 20.6875Z" stroke="#702B68" stroke-width="1.3125" stroke-linecap="round" stroke-linejoin="round"/>
</svg>
