<svg width="22" height="17" viewBox="0 0 22 17" fill="none" xmlns="http://www.w3.org/2000/svg">
<path fill-rule="evenodd" clip-rule="evenodd" d="M1.21875 5.8125C1.58119 5.8125 1.875 6.10631 1.875 6.46875V15.665C1.875 16.0274 1.58119 16.3212 1.21875 16.3212C0.856313 16.3212 0.5625 16.0274 0.5625 15.665V6.46875C0.5625 6.10631 0.856313 5.8125 1.21875 5.8125Z" fill="#702B68"/>
<path fill-rule="evenodd" clip-rule="evenodd" d="M0.5625 11.7275C0.5625 11.3651 0.856313 11.0713 1.21875 11.0713H3.84375C4.10229 11.0713 4.3583 11.1222 4.59716 11.2211C4.83602 11.3201 5.05305 11.4651 5.23587 11.6479C5.41868 11.8307 5.5637 12.0477 5.66264 12.2866C5.76158 12.5255 5.8125 12.7815 5.8125 13.04V15.665C5.8125 16.0274 5.51869 16.3212 5.15625 16.3212C4.79381 16.3212 4.5 16.0274 4.5 15.665V13.04C4.5 12.9538 4.48303 12.8685 4.45005 12.7889C4.41707 12.7092 4.36873 12.6369 4.30779 12.576C4.24685 12.515 4.17451 12.4667 4.09489 12.4337C4.01527 12.4007 3.92993 12.3838 3.84375 12.3838H1.21875C0.856313 12.3838 0.5625 12.0899 0.5625 11.7275Z" fill="#702B68"/>
<path fill-rule="evenodd" clip-rule="evenodd" d="M20.9062 5.8125C21.2687 5.8125 21.5625 6.10631 21.5625 6.46875V15.665C21.5625 16.0274 21.2687 16.3212 20.9062 16.3212C20.5438 16.3212 20.25 16.0274 20.25 15.665V6.46875C20.25 6.10631 20.5438 5.8125 20.9062 5.8125Z" fill="#702B68"/>
<path fill-rule="evenodd" clip-rule="evenodd" d="M17.5278 11.2211C17.7667 11.1222 18.0227 11.0713 18.2812 11.0713H20.9062C21.2687 11.0713 21.5625 11.3651 21.5625 11.7275C21.5625 12.0899 21.2687 12.3838 20.9062 12.3838H18.2812C18.1951 12.3838 18.1097 12.4007 18.0301 12.4337C17.9505 12.4667 17.8781 12.515 17.8172 12.576C17.7563 12.6369 17.7079 12.7092 17.675 12.7889C17.642 12.8685 17.625 12.9538 17.625 13.04V15.665C17.625 16.0274 17.3312 16.3212 16.9688 16.3212C16.6063 16.3212 16.3125 16.0274 16.3125 15.665V13.04C16.3125 12.7815 16.3634 12.5255 16.4624 12.2866C16.5613 12.0477 16.7063 11.8307 16.8891 11.6479C17.0719 11.4651 17.289 11.3201 17.5278 11.2211Z" fill="#702B68"/>
<path fill-rule="evenodd" clip-rule="evenodd" d="M5.8125 7.78125C5.8125 7.41881 6.10631 7.125 6.46875 7.125H15.6562C16.0187 7.125 16.3125 7.41881 16.3125 7.78125C16.3125 8.14369 16.0187 8.4375 15.6562 8.4375H6.46875C6.10631 8.4375 5.8125 8.14369 5.8125 7.78125Z" fill="#702B68"/>
<path fill-rule="evenodd" clip-rule="evenodd" d="M11.0625 7.125C11.4249 7.125 11.7188 7.41881 11.7188 7.78125V15.665C11.7188 16.0274 11.4249 16.3212 11.0625 16.3212C10.7001 16.3212 10.4062 16.0274 10.4062 15.665V7.78125C10.4062 7.41881 10.7001 7.125 11.0625 7.125Z" fill="#702B68"/>
<path fill-rule="evenodd" clip-rule="evenodd" d="M8.4375 15.665C8.4375 15.3026 8.73131 15.0088 9.09375 15.0088H13.0312C13.3937 15.0088 13.6875 15.3026 13.6875 15.665C13.6875 16.0274 13.3937 16.3213 13.0312 16.3213H9.09375C8.73131 16.3213 8.4375 16.0274 8.4375 15.665Z" fill="#702B68"/>
<path fill-rule="evenodd" clip-rule="evenodd" d="M11.0625 1C11.0625 0.637563 11.3563 0.34375 11.7188 0.34375H15.6562C16.0187 0.34375 16.3125 0.637563 16.3125 1V2.75C16.3125 3.44619 16.0359 4.11387 15.5437 4.60616C15.0514 5.09844 14.3837 5.375 13.6875 5.375C12.9913 5.375 12.3236 5.09844 11.8313 4.60616C11.3391 4.11387 11.0625 3.44619 11.0625 2.75V1ZM12.375 1.65625V2.75C12.375 3.0981 12.5133 3.43194 12.7594 3.67808C13.0056 3.92422 13.3394 4.0625 13.6875 4.0625C14.0356 4.0625 14.3694 3.92422 14.6156 3.67808C14.8617 3.43194 15 3.0981 15 2.75V1.65625H12.375Z" fill="#702B68"/>
<path fill-rule="evenodd" clip-rule="evenodd" d="M13.6875 4.0625C14.0499 4.0625 14.3438 4.35631 14.3438 4.71875V7.78125C14.3438 8.14369 14.0499 8.4375 13.6875 8.4375C13.3251 8.4375 13.0312 8.14369 13.0312 7.78125V4.71875C13.0312 4.35631 13.3251 4.0625 13.6875 4.0625Z" fill="#702B68"/>
</svg>
