<svg width="22" height="22" viewBox="0 0 22 22" fill="none" xmlns="http://www.w3.org/2000/svg">
<path fill-rule="evenodd" clip-rule="evenodd" d="M2.71364 0.568543C3.07193 0.420135 3.45594 0.34375 3.84375 0.34375C4.23156 0.34375 4.61557 0.420135 4.97386 0.568543C5.33215 0.716952 5.6577 0.934477 5.93192 1.2087C6.20615 1.48292 6.42367 1.80847 6.57208 2.16676C6.72049 2.52505 6.79688 2.90907 6.79688 3.29688C6.79688 3.68468 6.72049 4.0687 6.57208 4.42699C6.42367 4.78528 6.20615 5.11083 5.93192 5.38505C5.6577 5.65927 5.33215 5.8768 4.97386 6.02521C4.61557 6.17362 4.23156 6.25 3.84375 6.25C3.45594 6.25 3.07193 6.17362 2.71364 6.02521C2.35535 5.8768 2.0298 5.65927 1.75558 5.38505C1.48135 5.11083 1.26383 4.78528 1.11542 4.42699C0.96701 4.0687 0.890625 3.68468 0.890625 3.29688C0.890625 2.90907 0.96701 2.52505 1.11542 2.16676C1.26383 1.80847 1.48135 1.48292 1.75558 1.2087C2.0298 0.934477 2.35535 0.716952 2.71364 0.568543ZM3.84375 1.65625C3.6283 1.65625 3.41496 1.69869 3.21591 1.78114C3.01686 1.86358 2.836 1.98443 2.68365 2.13678C2.53131 2.28912 2.41046 2.46999 2.32801 2.66903C2.24556 2.86808 2.20312 3.08142 2.20312 3.29688C2.20312 3.51233 2.24556 3.72567 2.32801 3.92472C2.41046 4.12376 2.53131 4.30463 2.68365 4.45697C2.836 4.60932 3.01686 4.73017 3.21591 4.81262C3.41496 4.89506 3.6283 4.9375 3.84375 4.9375C4.0592 4.9375 4.27254 4.89506 4.47159 4.81262C4.67064 4.73017 4.8515 4.60932 5.00385 4.45697C5.15619 4.30463 5.27704 4.12376 5.35949 3.92472C5.44194 3.72567 5.48438 3.51233 5.48438 3.29688C5.48438 3.08142 5.44194 2.86808 5.35949 2.66903C5.27704 2.46999 5.15619 2.28912 5.00385 2.13678C4.8515 1.98443 4.67064 1.86358 4.47159 1.78114C4.27254 1.69869 4.0592 1.65625 3.84375 1.65625Z" fill="#702B68"/>
<path fill-rule="evenodd" clip-rule="evenodd" d="M2.59018 7.89328C2.4688 7.88233 2.34677 7.9054 2.23777 7.95991C2.12876 8.01441 2.03708 8.09819 1.97301 8.20186C1.90894 8.30554 1.875 8.425 1.875 8.54688V13.7969C1.875 14.319 2.08242 14.8198 2.45163 15.189C2.82085 15.5582 3.3216 15.7656 3.84375 15.7656H6.46875C6.83119 15.7656 7.125 16.0594 7.125 16.4219V19.0469C7.125 19.2209 7.19414 19.3878 7.31721 19.5109C7.44028 19.634 7.6072 19.7031 7.78125 19.7031C7.9553 19.7031 8.12222 19.634 8.24529 19.5109C8.36836 19.3878 8.4375 19.2209 8.4375 19.0469V16.4219C8.4375 15.8997 8.23008 15.399 7.86087 15.0298C7.49165 14.6605 6.9909 14.4531 6.46875 14.4531H3.84375C3.48131 14.4531 3.1875 14.1593 3.1875 13.7969V10.828C3.1875 10.6004 3.30542 10.3891 3.49909 10.2695C3.69277 10.15 3.93454 10.1394 4.13798 10.2414C5.27413 10.8113 6.52006 11.1286 7.79029 11.1718C7.96107 11.1695 8.12435 11.1006 8.24529 10.9797C8.36836 10.8566 8.4375 10.6897 8.4375 10.5156C8.4375 10.3416 8.36836 10.1747 8.24529 10.0516C8.12222 9.92852 7.9553 9.85938 7.78125 9.85938C6.55743 9.85938 5.33736 9.38271 4.46029 8.94195C4.01354 8.71745 3.63759 8.49289 3.37128 8.32314C3.10935 8.15617 2.93396 8.02882 2.94973 8.03955C2.94135 8.03385 2.93311 8.02796 2.925 8.02188C2.8275 7.94875 2.71157 7.90422 2.59018 7.89328ZM1.6508 6.78597C1.97782 6.62246 2.34391 6.55325 2.70805 6.58608C3.0719 6.61889 3.41943 6.75228 3.71178 6.97134C3.82678 7.05333 4.33587 7.41053 5.04962 7.7692C5.86282 8.17786 6.86307 8.54688 7.78125 8.54688C8.30339 8.54688 8.80415 8.7543 9.17337 9.12351C9.54258 9.49272 9.75 9.99348 9.75 10.5156C9.75 11.0378 9.54258 11.5385 9.17337 11.9077C8.80415 12.277 8.30339 12.4844 7.78125 12.4844C7.77413 12.4844 7.767 12.4843 7.75988 12.484C6.64238 12.4476 5.54106 12.2265 4.5 11.8318V13.1406H6.46875C7.33899 13.1406 8.17359 13.4863 8.78894 14.1017C9.4043 14.717 9.75 15.5516 9.75 16.4219V19.0469C9.75 19.569 9.54258 20.0698 9.17337 20.439C8.80415 20.8082 8.30339 21.0156 7.78125 21.0156C7.25911 21.0156 6.75835 20.8082 6.38913 20.439C6.01992 20.0698 5.8125 19.569 5.8125 19.0469V17.0781H3.84375C2.97351 17.0781 2.13891 16.7324 1.52356 16.1171C0.908202 15.5017 0.5625 14.6671 0.5625 13.7969V8.54688C0.5625 8.18126 0.664313 7.82286 0.856531 7.51184C1.04875 7.20083 1.32378 6.94948 1.6508 6.78597Z" fill="#702B68"/>
<path fill-rule="evenodd" clip-rule="evenodd" d="M0.5625 19.0469C0.5625 18.6844 0.856313 18.3906 1.21875 18.3906H3.84375C4.20619 18.3906 4.5 18.6844 4.5 19.0469C4.5 19.4093 4.20619 19.7031 3.84375 19.7031H1.21875C0.856313 19.7031 0.5625 19.4093 0.5625 19.0469Z" fill="#702B68"/>
<path fill-rule="evenodd" clip-rule="evenodd" d="M11.6391 11.0923C12.0083 10.723 12.5091 10.5156 13.0312 10.5156H20.9062C21.2687 10.5156 21.5625 10.8094 21.5625 11.1719C21.5625 11.5343 21.2687 11.8281 20.9062 11.8281H13.0312C12.8572 11.8281 12.6903 11.8973 12.5672 12.0203C12.4441 12.1434 12.375 12.3103 12.375 12.4844C12.375 12.6584 12.4441 12.8253 12.5672 12.9484C12.6903 13.0715 12.8572 13.1406 13.0312 13.1406H20.9062C21.2687 13.1406 21.5625 13.4344 21.5625 13.7969C21.5625 14.1593 21.2687 14.4531 20.9062 14.4531H13.0312C12.5091 14.4531 12.0083 14.2457 11.6391 13.8765C11.2699 13.5073 11.0625 13.0065 11.0625 12.4844C11.0625 11.9622 11.2699 11.4615 11.6391 11.0923Z" fill="#702B68"/>
<path fill-rule="evenodd" clip-rule="evenodd" d="M18.2812 13.1406C18.6437 13.1406 18.9375 13.4344 18.9375 13.7969V20.3594C18.9375 20.7218 18.6437 21.0156 18.2812 21.0156C17.9188 21.0156 17.625 20.7218 17.625 20.3594V13.7969C17.625 13.4344 17.9188 13.1406 18.2812 13.1406Z" fill="#702B68"/>
<path fill-rule="evenodd" clip-rule="evenodd" d="M13.1868 6.81019C13.3115 6.663 13.4946 6.57812 13.6875 6.57812H17.625C17.8179 6.57812 18.001 6.663 18.1257 6.81019C18.2504 6.95738 18.304 7.15198 18.2723 7.34226L17.6161 11.2798C17.5633 11.5962 17.2896 11.8281 16.9688 11.8281H14.3438C14.023 11.8281 13.7492 11.5962 13.6964 11.2798L13.0402 7.34226C13.0085 7.15198 13.0621 6.95738 13.1868 6.81019ZM14.4622 7.89062L14.8997 10.5156H16.4128L16.8503 7.89062H14.4622Z" fill="#702B68"/>
</svg>
