<svg width="21" height="21" viewBox="0 0 21 21" fill="none" xmlns="http://www.w3.org/2000/svg">
<path fill-rule="evenodd" clip-rule="evenodd" d="M13.5248 13.9554C12.5674 14.3563 11.5404 14.5647 10.5025 14.5687L10.4999 13.9125L9.84368 13.915C9.83966 12.8771 10.0401 11.8485 10.4336 10.888C10.8271 9.92754 11.406 9.05397 12.1371 8.31719C12.8682 7.58041 13.7372 6.99485 14.6947 6.59394C15.6521 6.19303 16.6791 5.98463 17.717 5.98063C18.0795 5.97923 18.3744 6.2719 18.3758 6.63433C18.3798 7.67228 18.1793 8.70087 17.7859 9.66135C17.3924 10.6218 16.8135 11.4954 16.0824 12.2322C15.3513 12.969 14.4822 13.5545 13.5248 13.9554ZM11.19 13.2171C11.8176 13.1483 12.4333 12.9896 13.0179 12.7448C13.8163 12.4104 14.5411 11.9221 15.1508 11.3077C15.7605 10.6933 16.2432 9.96475 16.5713 9.16377C16.8116 8.57731 16.9656 7.96041 17.0295 7.33229C16.4019 7.40107 15.7862 7.5598 15.2016 7.80459C14.4032 8.13892 13.6784 8.62724 13.0687 9.24168C12.459 9.85611 11.9763 10.5846 11.6482 11.3856C11.4079 11.9721 11.2539 12.589 11.19 13.2171Z" fill="#702B68"/>
<path fill-rule="evenodd" clip-rule="evenodd" d="M10.5096 0.000869751C10.6849 0.000869095 10.8529 0.0709683 10.9761 0.195548C12.1252 1.35685 12.9257 2.81698 13.2869 4.41024C13.6481 6.0035 13.5555 7.66611 13.0196 9.2094C12.9007 9.55178 12.5267 9.73295 12.1844 9.61405C11.842 9.49516 11.6608 9.12122 11.7797 8.77884C12.2351 7.46732 12.3138 6.05441 12.0069 4.70042C11.7515 3.5738 11.2376 2.5255 10.5096 1.63667C9.77835 2.5296 9.26311 3.58341 9.00893 4.7158C8.70369 6.07566 8.78724 7.49396 9.25002 8.80858C9.37037 9.15046 9.19079 9.52516 8.84892 9.64551C8.50704 9.76586 8.13234 9.58628 8.01199 9.2444C7.46743 7.69747 7.36911 6.02851 7.7283 4.42834C8.08748 2.82816 8.88966 1.36134 10.0431 0.195551C10.1664 0.0709707 10.3344 0.000870407 10.5096 0.000869751Z" fill="#702B68"/>
<path fill-rule="evenodd" clip-rule="evenodd" d="M10.5001 13.9125L11.1563 13.915C11.1644 11.8191 10.3397 9.8058 8.86361 8.31787C7.38748 6.82993 5.38079 5.98921 3.28488 5.98063C3.11081 5.97991 2.94359 6.04839 2.82001 6.17099C2.69643 6.29358 2.62662 6.46026 2.62595 6.63433C2.61783 8.73024 3.44253 10.7436 4.91866 12.2315C6.39478 13.7194 8.40147 14.5602 10.4974 14.5687L10.5001 13.9125ZM5.85042 11.3071C6.91767 12.3829 8.31747 13.053 9.81001 13.2169C9.65799 11.7231 8.99908 10.318 7.93184 9.24224C6.8646 8.16646 5.46479 7.49637 3.97225 7.33246C4.12427 8.82625 4.78318 10.2313 5.85042 11.3071Z" fill="#702B68"/>
<path fill-rule="evenodd" clip-rule="evenodd" d="M10.5009 13.2562C10.8633 13.2562 11.1571 13.5501 11.1571 13.9125V17.0634C11.1571 17.4258 10.8633 17.7196 10.5009 17.7196C10.1384 17.7196 9.8446 17.4258 9.8446 17.0634V13.9125C9.8446 13.5501 10.1384 13.2562 10.5009 13.2562Z" fill="#702B68"/>
<path fill-rule="evenodd" clip-rule="evenodd" d="M10.5009 17.7196C7.09317 17.7196 3.77732 18.8246 1.05081 20.8688C0.760825 21.0862 0.349496 21.0274 0.13208 20.7374C-0.0853355 20.4474 -0.0265071 20.0361 0.263477 19.8187C3.21714 17.6042 6.80925 16.4071 10.5009 16.4071C14.1925 16.4071 17.7846 17.6042 20.7383 19.8187C21.0283 20.0361 21.0871 20.4474 20.8697 20.7374C20.6523 21.0274 20.241 21.0862 19.951 20.8688C17.2245 18.8246 13.9086 17.7196 10.5009 17.7196Z" fill="#702B68"/>
</svg>
