<svg width="22" height="22" viewBox="0 0 22 22" fill="none" xmlns="http://www.w3.org/2000/svg">
<path d="M1 10.8438C1 13.4545 2.03711 15.9583 3.88317 17.8043C5.72923 19.6504 8.23303 20.6875 10.8438 20.6875C13.4545 20.6875 15.9583 19.6504 17.8043 17.8043C19.6504 15.9583 20.6875 13.4545 20.6875 10.8438C20.6875 8.23303 19.6504 5.72923 17.8043 3.88317C15.9583 2.03711 13.4545 1 10.8438 1C8.23303 1 5.72923 2.03711 3.88317 3.88317C2.03711 5.72923 1 8.23303 1 10.8438V10.8438Z" stroke="#702B68" stroke-width="1.3125" stroke-linecap="round" stroke-linejoin="round"/>
<path d="M17.8043 3.88313L3.88477 17.8026" stroke="#702B68" stroke-width="1.3125" stroke-linecap="round" stroke-linejoin="round"/>
<path d="M11.5 6.25H6.90625C6.38411 6.25 5.88335 6.45742 5.51413 6.82663C5.14492 7.19585 4.9375 7.69661 4.9375 8.21875C4.9375 8.74089 5.14492 9.24165 5.51413 9.61087C5.88335 9.98008 6.38411 10.1875 6.90625 10.1875V11.5" stroke="#702B68" stroke-width="1.3125" stroke-linecap="round" stroke-linejoin="round"/>
<path d="M16.75 8.21875C16.75 8.74089 16.5426 9.24165 16.1734 9.61087C15.8042 9.98008 15.3034 10.1875 14.7812 10.1875V15.4375H10.1875" stroke="#702B68" stroke-width="1.3125" stroke-linecap="round" stroke-linejoin="round"/>
</svg>
