<svg width="16" height="22" viewBox="0 0 16 22" fill="none" xmlns="http://www.w3.org/2000/svg">
<path fill-rule="evenodd" clip-rule="evenodd" d="M5.10888 15.641C5.19077 15.994 4.97094 16.3466 4.61788 16.4285C3.68354 16.6452 2.94738 16.9465 2.46196 17.2761C1.95982 17.617 1.8446 17.8995 1.8446 18.0643C1.8446 18.1881 1.90466 18.3725 2.155 18.6093C2.40672 18.8473 2.80619 19.0919 3.35423 19.3111C4.44666 19.7481 6.00084 20.033 7.75085 20.033C9.50087 20.033 11.055 19.7481 12.1475 19.3111C12.6955 19.0919 13.095 18.8473 13.3467 18.6093C13.597 18.3725 13.6571 18.1881 13.6571 18.0643C13.6571 17.8981 13.5415 17.6155 13.0403 17.275C12.5554 16.9457 11.8201 16.6448 10.8866 16.4286C10.5335 16.3468 10.3136 15.9942 10.3954 15.6411C10.4772 15.288 10.8298 15.0681 11.1829 15.1499C12.2094 15.3878 13.1133 15.738 13.7778 16.1893C14.4259 16.6296 14.9696 17.2574 14.9696 18.0643C14.9696 18.6653 14.6624 19.1715 14.2485 19.5629C13.8361 19.9529 13.2745 20.274 12.6349 20.5298C11.3522 21.0429 9.62509 21.3455 7.75085 21.3455C5.87662 21.3455 4.14954 21.0429 2.8668 20.5298C2.22724 20.274 1.66563 19.9529 1.25317 19.5629C0.839326 19.1715 0.532104 18.6653 0.532104 18.0643C0.532104 17.2578 1.07664 16.6302 1.72469 16.1902C2.38946 15.7389 3.29392 15.3883 4.32133 15.15C4.6744 15.0681 5.027 15.2879 5.10888 15.641Z" fill="#702B68"/>
<path fill-rule="evenodd" clip-rule="evenodd" d="M7.39819 0.448243C7.58579 0.327447 7.82191 0.310244 8.02503 0.402574L15.2438 3.68382C15.4865 3.79415 15.6384 4.04037 15.628 4.30679C15.6176 4.57321 15.4471 4.80687 15.1965 4.89799L8.40972 7.36591V20.6875C8.40972 21.0499 8.11591 21.3438 7.75347 21.3438C7.39104 21.3438 7.09722 21.0499 7.09722 20.6875V6.92155C7.09699 6.91136 7.09699 6.90119 7.09722 6.89105V1C7.09722 0.776878 7.21059 0.56904 7.39819 0.448243ZM8.40972 5.96932L13.2377 4.2137L8.40972 2.01916V5.96932Z" fill="#702B68"/>
</svg>
