<svg width="24" height="24" viewBox="0 0 24 24" fill="none" xmlns="http://www.w3.org/2000/svg">
<g clip-path="url(#clip0_6190_11517)">
<path d="M23.25 17.25C23.25 18.4367 22.8981 19.5967 22.2388 20.5834C21.5795 21.5701 20.6425 22.3392 19.5461 22.7933C18.4497 23.2474 17.2433 23.3662 16.0795 23.1347C14.9156 22.9032 13.8465 22.3318 13.0074 21.4926C12.1682 20.6535 11.5968 19.5844 11.3653 18.4205C11.1338 17.2567 11.2526 16.0503 11.7067 14.9539C12.1609 13.8575 12.9299 12.9205 13.9166 12.2612C14.9033 11.6019 16.0633 11.25 17.25 11.25" stroke="#3E7E74" stroke-width="1.5" stroke-linecap="round" stroke-linejoin="round"/>
<path d="M23.25 12.75L17.78 18.219C17.7104 18.2887 17.6278 18.3439 17.5369 18.3816C17.4459 18.4193 17.3484 18.4388 17.25 18.4388C17.1516 18.4388 17.0541 18.4193 16.9631 18.3816C16.8722 18.3439 16.7896 18.2887 16.72 18.219L15 16.5" stroke="#3E7E74" stroke-width="1.5" stroke-linecap="round" stroke-linejoin="round"/>
<path d="M10.4999 23.25H2.24695C1.84912 23.25 1.46759 23.092 1.18629 22.8107C0.904984 22.5294 0.746948 22.1478 0.746948 21.75V2.25C0.746948 1.85218 0.904984 1.47064 1.18629 1.18934C1.46759 0.908035 1.84912 0.75 2.24695 0.75H17.9999C18.3978 0.75 18.7793 0.908035 19.0606 1.18934C19.3419 1.47064 19.4999 1.85218 19.4999 2.25V9.75" stroke="#3E7E74" stroke-width="1.5" stroke-linecap="round" stroke-linejoin="round"/>
<path d="M8.99097 13.279H5.99097C5.79205 13.279 5.60129 13.2 5.46064 13.0593C5.31998 12.9187 5.24097 12.7279 5.24097 12.529V10.279" stroke="#3E7E74" stroke-width="1.5" stroke-linecap="round" stroke-linejoin="round"/>
<path d="M3.74097 8.02899L8.24097 4.27899L12.741 8.02899" stroke="#3E7E74" stroke-width="1.5" stroke-linecap="round" stroke-linejoin="round"/>
</g>
<defs>
<clipPath id="clip0_6190_11517">
<rect width="24" height="24" fill="white"/>
</clipPath>
</defs>
</svg>
