<svg width="24" height="24" viewBox="0 0 24 24" fill="none" xmlns="http://www.w3.org/2000/svg">
<g clip-path="url(#clip0_6190_11484)">
<path d="M23.25 7.815H19.25C18.9848 7.815 18.7304 7.70965 18.5429 7.52211C18.3554 7.33457 18.25 7.08022 18.25 6.815V6.315C18.25 6.04979 18.1446 5.79543 17.9571 5.6079C17.7696 5.42036 17.5152 5.315 17.25 5.315H16.25C15.9848 5.315 15.7304 5.42036 15.5429 5.6079C15.3554 5.79543 15.25 6.04979 15.25 6.315V6.815C15.25 7.87587 15.6714 8.89328 16.4216 9.64343C17.1717 10.3936 18.1891 10.815 19.25 10.815H23.25" stroke="#3E7E74" stroke-width="1.5" stroke-linecap="round" stroke-linejoin="round"/>
<g clip-path="url(#clip1_6190_11484)">
<path d="M8.55188 6.54381C10.0044 6.54381 11.1819 5.36632 11.1819 3.91381C11.1819 2.4613 10.0044 1.28381 8.55188 1.28381C7.09937 1.28381 5.92188 2.4613 5.92188 3.91381C5.92188 5.36632 7.09937 6.54381 8.55188 6.54381Z" stroke="#3E7E74" stroke-width="1.5" stroke-linecap="round" stroke-linejoin="round"/>
<path d="M15.6019 12.1638C15.2673 12.1711 14.9354 12.1029 14.6307 11.9644C14.326 11.826 14.0564 11.6207 13.8419 11.3638C13.1249 10.459 12.213 9.72742 11.1742 9.22361C10.1354 8.7198 8.99643 8.45667 7.84192 8.4538C6.25062 8.4538 4.7245 9.08594 3.59928 10.2112C2.47406 11.3364 1.84192 12.8625 1.84192 14.4538C1.84192 14.8516 1.99995 15.2332 2.28126 15.5145C2.56256 15.7958 2.94409 15.9538 3.34192 15.9538C3.73974 15.9538 4.12127 15.7958 4.40258 15.5145C4.68388 15.2332 4.84192 14.8516 4.84192 14.4538C4.84297 13.7895 5.06446 13.1444 5.47166 12.6195C5.87886 12.0947 6.44874 11.7199 7.09192 11.5538C7.18921 14.9517 6.22824 18.2959 4.34192 21.1238C4.12046 21.4553 4.03977 21.8612 4.1176 22.2522C4.19543 22.6433 4.4254 22.9873 4.75692 23.2088C5.08844 23.4303 5.49436 23.5109 5.88537 23.4331C6.27638 23.3553 6.62046 23.1253 6.84192 22.7938C7.77676 21.3531 8.51969 19.7967 9.05192 18.1638C10.6118 19.1392 11.7879 20.6225 12.3819 22.3638C12.5145 22.7404 12.7913 23.0489 13.1514 23.2214C13.5115 23.394 13.9253 23.4164 14.3019 23.2838C14.6785 23.1512 14.987 22.8744 15.1596 22.5143C15.3321 22.1543 15.3545 21.7404 15.2219 21.3638C14.3108 18.6321 12.3649 16.3666 9.80192 15.0538C9.96689 14.0119 10.0505 12.9587 10.0519 11.9038C10.6105 12.2073 11.1033 12.6186 11.5019 13.1138C11.9884 13.7369 12.6104 14.2408 13.3209 14.5874C14.0313 14.934 14.8115 15.114 15.6019 15.1138C15.9997 15.1138 16.3813 14.9558 16.6626 14.6745C16.9439 14.3932 17.1019 14.0116 17.1019 13.6138C17.1019 13.216 16.9439 12.8344 16.6626 12.5531C16.3813 12.2718 15.9997 12.1138 15.6019 12.1138V12.1638Z" stroke="#3E7E74" stroke-width="1.5" stroke-linecap="round" stroke-linejoin="round"/>
</g>
</g>
<defs>
<clipPath id="clip0_6190_11484">
<rect width="24" height="24" fill="white" transform="matrix(-1 0 0 1 24 0)"/>
</clipPath>
<clipPath id="clip1_6190_11484">
<rect width="24" height="24" fill="white" transform="matrix(-1 0 0 1 21.4919 0.363831)"/>
</clipPath>
</defs>
</svg>
