<svg width="24" height="24" viewBox="0 0 24 24" fill="none" xmlns="http://www.w3.org/2000/svg">
<path d="M16.5 23.25H7.5V13.5L11.376 7.68603C11.4445 7.58331 11.5373 7.49909 11.6461 7.44084C11.755 7.38259 11.8765 7.35211 12 7.35211C12.1235 7.35211 12.245 7.38259 12.3539 7.44084C12.4627 7.49909 12.5555 7.58331 12.624 7.68603L16.5 13.5V23.25Z" stroke="#3E7E74" stroke-width="1.5" stroke-linecap="round" stroke-linejoin="round"/>
<path d="M13.5 23.25H10.5V20.25C10.5 19.8522 10.658 19.4706 10.9393 19.1893C11.2206 18.908 11.6022 18.75 12 18.75C12.3978 18.75 12.7794 18.908 13.0607 19.1893C13.342 19.4706 13.5 19.8522 13.5 20.25V23.25Z" stroke="#3E7E74" stroke-width="1.5" stroke-linecap="round" stroke-linejoin="round"/>
<path d="M1.5 9.75H7.5V23.25H2.5C2.23478 23.25 1.98043 23.1446 1.79289 22.9571C1.60536 22.7696 1.5 22.5152 1.5 22.25V9.75Z" stroke="#3E7E74" stroke-width="1.5" stroke-linecap="round" stroke-linejoin="round"/>
<path d="M16.5 9.75H22.5V22.25C22.5 22.5152 22.3946 22.7696 22.2071 22.9571C22.0196 23.1446 21.7652 23.25 21.5 23.25H16.5V9.75Z" stroke="#3E7E74" stroke-width="1.5" stroke-linecap="round" stroke-linejoin="round"/>
<path d="M2.25 9.75L4.5 5.25L6.75 9.75" stroke="#3E7E74" stroke-width="1.5" stroke-linecap="round" stroke-linejoin="round"/>
<path d="M17.25 9.75L19.5 5.25L21.75 9.75" stroke="#3E7E74" stroke-width="1.5" stroke-linecap="round" stroke-linejoin="round"/>
<path d="M4.5 0.75V5.25" stroke="#3E7E74" stroke-width="1.5" stroke-linecap="round" stroke-linejoin="round"/>
<path d="M19.5 0.75V5.25" stroke="#3E7E74" stroke-width="1.5" stroke-linecap="round" stroke-linejoin="round"/>
<path d="M4.5 14.25V15.75" stroke="#3E7E74" stroke-width="1.5" stroke-linecap="round" stroke-linejoin="round"/>
<path d="M19.5 14.25V15.75" stroke="#3E7E74" stroke-width="1.5" stroke-linecap="round" stroke-linejoin="round"/>
<path d="M1.5 15.75H7.5" stroke="#3E7E74" stroke-width="1.5" stroke-linecap="round" stroke-linejoin="round"/>
<path d="M16.5 15.75H22.5" stroke="#3E7E74" stroke-width="1.5" stroke-linecap="round" stroke-linejoin="round"/>
<path d="M4.5 18.75V20.25" stroke="#3E7E74" stroke-width="1.5" stroke-linecap="round" stroke-linejoin="round"/>
<path d="M19.5 18.75V20.25" stroke="#3E7E74" stroke-width="1.5" stroke-linecap="round" stroke-linejoin="round"/>
<path d="M12 14.625C11.7929 14.625 11.625 14.4571 11.625 14.25C11.625 14.0429 11.7929 13.875 12 13.875" stroke="#3E7E74" stroke-width="1.5"/>
<path d="M12 14.625C12.2071 14.625 12.375 14.4571 12.375 14.25C12.375 14.0429 12.2071 13.875 12 13.875" stroke="#3E7E74" stroke-width="1.5"/>
</svg>
