<svg width="24" height="24" viewBox="0 0 24 24" fill="none" xmlns="http://www.w3.org/2000/svg">
<path d="M14.3356 21.1838L14.3471 21.1919C15.3387 21.8233 16.516 22.0975 17.6844 21.9691C18.8529 21.8408 19.9427 21.3176 20.7736 20.486L21.4954 19.7641C21.6554 19.6042 21.7823 19.4144 21.8689 19.2054C21.9554 18.9965 22 18.7726 22 18.5464C22 18.3202 21.9554 18.0963 21.8689 17.8873C21.7823 17.6784 21.6554 17.4885 21.4954 17.3287L18.4509 14.2861C18.291 14.1261 18.1012 13.9992 17.8923 13.9126C17.6834 13.826 17.4594 13.7815 17.2333 13.7815C17.0071 13.7815 16.7832 13.826 16.5743 13.9126C16.3654 13.9992 16.1755 14.1261 16.0157 14.2861C15.6929 14.6088 15.2551 14.7901 14.7987 14.7901C14.3422 14.7901 13.9045 14.6088 13.5816 14.2861L8.71357 9.41636C8.39086 9.09351 8.20957 8.65571 8.20957 8.19921C8.20957 7.74271 8.39086 7.30491 8.71357 6.98207V6.98207C8.87353 6.82219 9.00042 6.63236 9.087 6.42341C9.17358 6.21447 9.21814 5.99052 9.21814 5.76435C9.21814 5.53817 9.17358 5.31422 9.087 5.10528C9.00042 4.89634 8.87353 4.7065 8.71357 4.54663L5.67016 1.50405C5.34735 1.18131 4.90959 1 4.45314 1C3.99669 1 3.55892 1.18131 3.23612 1.50405L2.51314 2.22596C1.68181 3.05711 1.15889 4.14703 1.03077 5.31563C0.902656 6.48423 1.17701 7.66158 1.80851 8.65313L1.8154 8.66461C5.15051 13.5995 9.4006 17.8493 14.3356 21.1838V21.1838Z" stroke="#3E7E74" stroke-width="1.5" stroke-linecap="round" stroke-linejoin="round"/>
</svg>
