<svg width="22" height="21" viewBox="0 0 22 21" fill="none" xmlns="http://www.w3.org/2000/svg">
<path d="M3.625 10.1875C3.625 8.09892 4.45469 6.09588 5.93153 4.61903C7.40838 3.14219 9.41142 2.3125 11.5 2.3125C13.5886 2.3125 15.5916 3.14219 17.0685 4.61903C18.5453 6.09588 19.375 8.09892 19.375 10.1875H3.625Z" stroke="#3E7E74" stroke-width="1.3125" stroke-linecap="round" stroke-linejoin="round"/>
<path d="M2.3125 10.1875H20.6875" stroke="#3E7E74" stroke-width="1.3125" stroke-linecap="round" stroke-linejoin="round"/>
<path d="M11.5 1V2.3125" stroke="#3E7E74" stroke-width="1.3125" stroke-linecap="round" stroke-linejoin="round"/>
<path d="M1 19.375L4.28125 16.1725L8.875 20.11L19.4275 12.4888C19.5743 12.3916 19.6937 12.2582 19.7739 12.1015C19.8541 11.9447 19.8926 11.77 19.8856 11.594C19.8785 11.4181 19.8262 11.2469 19.7337 11.0971C19.6412 10.9473 19.5116 10.8239 19.3575 10.7388V10.7388C18.7643 10.3838 18.0881 10.1913 17.397 10.1805C16.7058 10.1698 16.0239 10.3412 15.42 10.6775L12.8563 13.0138C11.9862 13.5019 10.9617 13.6366 9.995 13.39C9.2775 13.215 9.12 12.8825 8.5425 12.34L7.58875 10.9488C7.19918 10.56 6.69728 10.3036 6.154 10.2156C5.61073 10.1277 5.05356 10.2128 4.56125 10.4588V10.4588C4.45598 10.5126 4.36488 10.5906 4.29536 10.6862C4.22583 10.7819 4.17983 10.8926 4.16108 11.0093C4.14233 11.1261 4.15136 11.2456 4.18744 11.3582C4.22352 11.4709 4.28564 11.5734 4.36875 11.6575L4.77125 12.06C5.2277 12.5207 5.56443 13.0861 5.75204 13.7069C5.93964 14.3276 5.97242 14.9849 5.8475 15.6213L5.52375 17.2313" stroke="#3E7E74" stroke-width="1.3125" stroke-linecap="round" stroke-linejoin="round"/>
</svg>
