<svg width="24" height="24" viewBox="0 0 24 24" fill="none" xmlns="http://www.w3.org/2000/svg">
<path d="M15.1671 7.57202C14.1996 7.03276 13.1103 6.74969 12.0026 6.74969C10.895 6.74969 9.80567 7.03276 8.83813 7.57202" stroke="#3E7E74" stroke-width="1.5" stroke-linecap="round" stroke-linejoin="round"/>
<path d="M16.7471 4.98601C15.2971 4.17553 13.6637 3.75 12.0026 3.75C10.3414 3.75 8.70803 4.17553 7.25806 4.98601" stroke="#3E7E74" stroke-width="1.5" stroke-linecap="round" stroke-linejoin="round"/>
<path d="M18.3101 2.42903C16.39 1.32883 14.2155 0.75 12.0026 0.75C9.78962 0.75 7.61515 1.32883 5.69507 2.42903" stroke="#3E7E74" stroke-width="1.5" stroke-linecap="round" stroke-linejoin="round"/>
<path d="M12.0002 23.25C10.6082 23.2495 9.27349 22.6961 8.28951 21.7115C7.30554 20.727 6.75291 19.3919 6.75317 18V15C6.75317 13.6081 7.30589 12.2732 8.2898 11.2888C9.27372 10.3043 10.6083 9.7508 12.0002 9.75V9.75C12.6898 9.74974 13.3728 9.88533 14.01 10.149C14.6473 10.4127 15.2263 10.7994 15.7141 11.2869C16.2019 11.7744 16.5889 12.3533 16.853 12.9904C17.1171 13.6275 17.253 14.3103 17.2532 15V18C17.2532 18.6897 17.1173 19.3726 16.8533 20.0098C16.5892 20.6469 16.2023 21.2258 15.7144 21.7134C15.2266 22.2009 14.6475 22.5876 14.0102 22.8512C13.3729 23.1149 12.6899 23.2504 12.0002 23.25V23.25Z" stroke="#3E7E74" stroke-width="1.5" stroke-linecap="round" stroke-linejoin="round"/>
<path d="M12.0032 12.75V14.25" stroke="#3E7E74" stroke-width="1.5" stroke-linecap="round" stroke-linejoin="round"/>
</svg>
