<svg width="22" height="22" viewBox="0 0 22 22" fill="none" xmlns="http://www.w3.org/2000/svg">
<path fill-rule="evenodd" clip-rule="evenodd" d="M6.346 18.7731C6.5991 18.5337 6.99513 18.5338 7.2481 18.7733C8.10125 19.581 9.23145 20.0312 10.4063 20.0312C11.5812 20.0312 12.7113 19.581 13.5645 18.7733C13.8176 18.5337 14.2137 18.5337 14.4668 18.7733C15.2723 19.5358 16.3265 19.981 17.4347 20.0269C18.5429 20.0728 19.6303 19.7162 20.4961 19.0229C20.779 18.7963 21.192 18.842 21.4186 19.1249C21.6451 19.4078 21.5994 19.8208 21.3165 20.0474C20.2033 20.9388 18.8053 21.3973 17.3804 21.3383C16.1543 21.2875 14.9795 20.8565 14.0157 20.1125C12.9863 20.9073 11.7179 21.3437 10.4063 21.3437C9.0946 21.3437 7.82619 20.9072 6.79672 20.1123C6.06206 20.6791 5.20191 21.0668 4.28477 21.2405C3.17254 21.451 2.02324 21.338 0.973387 20.9146C0.637248 20.7791 0.474629 20.3967 0.610168 20.0606C0.745706 19.7244 1.12808 19.5618 1.46422 19.6974C2.28105 20.0267 3.17525 20.1147 4.04061 19.9509C4.90597 19.787 5.70611 19.3783 6.346 18.7731Z" fill="#3E7E74"/>
<path fill-rule="evenodd" clip-rule="evenodd" d="M18.2812 1.65625C17.7591 1.65625 17.2583 1.86367 16.8891 2.23288C16.5199 2.6021 16.3125 3.10285 16.3125 3.625V16.75C16.3125 17.1124 16.0187 17.4062 15.6562 17.4062C15.2938 17.4062 15 17.1124 15 16.75V3.625C15 2.75476 15.3457 1.92016 15.9611 1.30481C16.5764 0.689452 17.411 0.34375 18.2812 0.34375C19.1515 0.34375 19.9861 0.689452 20.6014 1.30481C21.2168 1.92016 21.5625 2.75476 21.5625 3.625C21.5625 3.98744 21.2687 4.28125 20.9062 4.28125C20.5438 4.28125 20.25 3.98744 20.25 3.625C20.25 3.10285 20.0426 2.6021 19.6734 2.23288C19.3042 1.86367 18.8034 1.65625 18.2812 1.65625Z" fill="#3E7E74"/>
<path fill-rule="evenodd" clip-rule="evenodd" d="M10.4062 1.65625C9.8841 1.65625 9.38335 1.86367 9.01413 2.23288C8.64492 2.6021 8.4375 3.10285 8.4375 3.625V16.75C8.4375 17.1124 8.14369 17.4062 7.78125 17.4062C7.41881 17.4062 7.125 17.1124 7.125 16.75V3.625C7.125 2.75476 7.4707 1.92016 8.08606 1.30481C8.70141 0.689452 9.53601 0.34375 10.4062 0.34375C11.2765 0.34375 12.1111 0.689452 12.7264 1.30481C13.3418 1.92016 13.6875 2.75476 13.6875 3.625C13.6875 3.98744 13.3937 4.28125 13.0312 4.28125C12.6688 4.28125 12.375 3.98744 12.375 3.625C12.375 3.10285 12.1676 2.6021 11.7984 2.23288C11.4292 1.86367 10.9284 1.65625 10.4062 1.65625Z" fill="#3E7E74"/>
<path fill-rule="evenodd" clip-rule="evenodd" d="M7.125 10.1875C7.125 9.82506 7.41881 9.53125 7.78125 9.53125H15.6562C16.0187 9.53125 16.3125 9.82506 16.3125 10.1875C16.3125 10.5499 16.0187 10.8438 15.6562 10.8438H7.78125C7.41881 10.8438 7.125 10.5499 7.125 10.1875Z" fill="#3E7E74"/>
<path fill-rule="evenodd" clip-rule="evenodd" d="M7.125 14.125C7.125 13.7626 7.41881 13.4688 7.78125 13.4688H15.6562C16.0187 13.4688 16.3125 13.7626 16.3125 14.125C16.3125 14.4874 16.0187 14.7812 15.6562 14.7812H7.78125C7.41881 14.7812 7.125 14.4874 7.125 14.125Z" fill="#3E7E74"/>
<path fill-rule="evenodd" clip-rule="evenodd" d="M7.125 6.25C7.125 5.88756 7.41881 5.59375 7.78125 5.59375H15.6562C16.0187 5.59375 16.3125 5.88756 16.3125 6.25C16.3125 6.61244 16.0187 6.90625 15.6562 6.90625H7.78125C7.41881 6.90625 7.125 6.61244 7.125 6.25Z" fill="#3E7E74"/>
</svg>
