<svg width="21" height="19" viewBox="0 0 21 19" fill="none" xmlns="http://www.w3.org/2000/svg">
<path fill-rule="evenodd" clip-rule="evenodd" d="M1.96875 1.3125C1.60631 1.3125 1.3125 1.60631 1.3125 1.96875V12.4688C1.3125 12.8312 1.60631 13.125 1.96875 13.125H19.0312C19.3937 13.125 19.6875 12.8312 19.6875 12.4688V1.96875C19.6875 1.60631 19.3937 1.3125 19.0312 1.3125H1.96875ZM0 1.96875C0 0.881439 0.881439 0 1.96875 0H19.0312C20.1186 0 21 0.881439 21 1.96875V12.4688C21 13.5561 20.1186 14.4375 19.0312 14.4375H1.96875C0.881439 14.4375 0 13.5561 0 12.4688V1.96875Z" fill="#3E7E74"/>
<path fill-rule="evenodd" clip-rule="evenodd" d="M7.22768 13.6734C7.28042 13.3569 7.5542 13.125 7.87501 13.125H13.125C13.4458 13.125 13.7196 13.3569 13.7723 13.6734L14.4286 17.6109C14.4603 17.8011 14.4067 17.9957 14.282 18.1429C14.1573 18.2901 13.9742 18.375 13.7813 18.375H7.21875C7.02585 18.375 6.84271 18.2901 6.71802 18.1429C6.59333 17.9957 6.53972 17.8011 6.57143 17.6109L7.22768 13.6734ZM8.43093 14.4375L7.99343 17.0625H13.0066L12.5691 14.4375H8.43093Z" fill="#3E7E74"/>
<path fill-rule="evenodd" clip-rule="evenodd" d="M4.59375 17.7188C4.59375 17.3563 4.88756 17.0625 5.25 17.0625H15.75C16.1124 17.0625 16.4062 17.3563 16.4062 17.7188C16.4062 18.0812 16.1124 18.375 15.75 18.375H5.25C4.88756 18.375 4.59375 18.0812 4.59375 17.7188Z" fill="#3E7E74"/>
</svg>
