<svg width="23" height="23" viewBox="0 0 23 23" fill="none" xmlns="http://www.w3.org/2000/svg">
<path d="M21.0667 1H1.93335V22H21.0667V1Z" stroke="#3E7E74" stroke-width="1.3125" stroke-linecap="round" stroke-linejoin="round"/>
<path d="M1 1H22" stroke="#3E7E74" stroke-width="1.3125" stroke-linecap="round" stroke-linejoin="round"/>
<path d="M1 22H22" stroke="#3E7E74" stroke-width="1.3125" stroke-linecap="round" stroke-linejoin="round"/>
<path d="M16.4374 10.5667H6.56275C6.0679 10.5667 5.66675 10.9678 5.66675 11.4627V18.0707C5.66675 18.5655 6.0679 18.9667 6.56275 18.9667H16.4374C16.9323 18.9667 17.3334 18.5655 17.3334 18.0707V11.4627C17.3334 10.9678 16.9323 10.5667 16.4374 10.5667Z" stroke="#3E7E74" stroke-width="1.3125" stroke-linecap="round" stroke-linejoin="round"/>
<path d="M8.93335 13.3667H14.0667" stroke="#3E7E74" stroke-width="1.3125" stroke-linecap="round" stroke-linejoin="round"/>
<path d="M5.2002 4.14532C5.29427 4.14532 5.38448 4.18269 5.45099 4.2492C5.5175 4.31572 5.55487 4.40593 5.55487 4.49999C5.55489 4.54614 5.54565 4.59182 5.52772 4.63434C5.50978 4.67685 5.48351 4.71535 5.45045 4.74754C5.41738 4.77973 5.37821 4.80497 5.33522 4.82177C5.29224 4.83856 5.24633 4.84657 5.2002 4.84532C5.1545 4.84661 5.10902 4.83856 5.06654 4.82166C5.02406 4.80476 4.98548 4.77937 4.95315 4.74705C4.92082 4.71472 4.89543 4.67613 4.87853 4.63365C4.86163 4.59117 4.85358 4.54569 4.85487 4.49999C4.85362 4.45386 4.86163 4.40795 4.87843 4.36497C4.89522 4.32199 4.92046 4.28281 4.95266 4.24975C4.98485 4.21669 5.02334 4.19041 5.06586 4.17248C5.10838 4.15454 5.15406 4.14531 5.2002 4.14532" stroke="#3E7E74" stroke-width="1.3125" stroke-linecap="round" stroke-linejoin="round"/>
<path d="M8.4668 4.14532C8.56087 4.14532 8.65108 4.18269 8.71759 4.2492C8.7841 4.31572 8.82147 4.40593 8.82147 4.49999C8.82149 4.54614 8.81226 4.59182 8.79432 4.63434C8.77639 4.67685 8.75011 4.71535 8.71705 4.74754C8.68399 4.77973 8.64481 4.80497 8.60183 4.82177C8.55884 4.83856 8.51293 4.84657 8.4668 4.84532C8.4211 4.84661 8.37562 4.83856 8.33314 4.82166C8.29066 4.80476 8.25208 4.77937 8.21975 4.74705C8.18742 4.71472 8.16203 4.67613 8.14513 4.63365C8.12823 4.59117 8.12018 4.54569 8.12147 4.49999C8.12022 4.45386 8.12823 4.40795 8.14503 4.36497C8.16183 4.32199 8.18707 4.28281 8.21926 4.24975C8.25145 4.21669 8.28994 4.19041 8.33246 4.17248C8.37498 4.15454 8.42066 4.14531 8.4668 4.14532" stroke="#3E7E74" stroke-width="1.3125" stroke-linecap="round" stroke-linejoin="round"/>
<path d="M1.93335 7.76666H21.0667" stroke="#3E7E74" stroke-width="1.3125" stroke-linecap="round" stroke-linejoin="round"/>
<path d="M12.8999 4.5H17.7999" stroke="#3E7E74" stroke-width="1.3125" stroke-linecap="round" stroke-linejoin="round"/>
</svg>
