<svg width="21" height="21" viewBox="0 0 21 21" fill="none" xmlns="http://www.w3.org/2000/svg">
<path fill-rule="evenodd" clip-rule="evenodd" d="M1.79561 8.51744C1.51026 8.99303 1.3125 9.6924 1.3125 10.5C1.3125 11.3076 1.51026 12.007 1.79561 12.4826C2.0888 12.9712 2.40242 13.125 2.625 13.125C2.84758 13.125 3.1612 12.9712 3.45439 12.4826C3.73974 12.007 3.9375 11.3076 3.9375 10.5C3.9375 9.6924 3.73974 8.99303 3.45439 8.51744C3.1612 8.0288 2.84758 7.875 2.625 7.875C2.40242 7.875 2.0888 8.0288 1.79561 8.51744ZM0.670154 7.84217C1.08951 7.14323 1.76027 6.5625 2.625 6.5625C3.48973 6.5625 4.16049 7.14323 4.57985 7.84217C5.00704 8.55416 5.25 9.49542 5.25 10.5C5.25 11.5046 5.00704 12.4458 4.57985 13.1578C4.16049 13.8568 3.48973 14.4375 2.625 14.4375C1.76027 14.4375 1.08951 13.8568 0.670154 13.1578C0.242956 12.4458 0 11.5046 0 10.5C0 9.49542 0.242956 8.55416 0.670154 7.84217Z" fill="#3E7E74"/>
<path fill-rule="evenodd" clip-rule="evenodd" d="M6.38936 1.95494C6.10401 2.43053 5.90625 3.1299 5.90625 3.9375C5.90625 4.7451 6.10401 5.44447 6.38936 5.92006C6.68255 6.4087 6.99617 6.5625 7.21875 6.5625C7.44133 6.5625 7.75495 6.4087 8.04814 5.92006C8.33349 5.44447 8.53125 4.7451 8.53125 3.9375C8.53125 3.1299 8.33349 2.43053 8.04814 1.95494C7.75495 1.4663 7.44133 1.3125 7.21875 1.3125C6.99617 1.3125 6.68255 1.4663 6.38936 1.95494ZM5.2639 1.27967C5.68326 0.580734 6.35402 0 7.21875 0C8.08348 0 8.75424 0.580734 9.1736 1.27967C9.60079 1.99166 9.84375 2.93292 9.84375 3.9375C9.84375 4.94208 9.60079 5.88334 9.1736 6.59533C8.75424 7.29427 8.08348 7.875 7.21875 7.875C6.35402 7.875 5.68326 7.29427 5.2639 6.59533C4.83671 5.88334 4.59375 4.94208 4.59375 3.9375C4.59375 2.93292 4.83671 1.99166 5.2639 1.27967Z" fill="#3E7E74"/>
<path fill-rule="evenodd" clip-rule="evenodd" d="M17.5456 7.86119C17.2603 8.33678 17.0625 9.03615 17.0625 9.84375C17.0625 10.6514 17.2603 11.3507 17.5456 11.8263C17.8388 12.315 18.1524 12.4688 18.375 12.4688C18.5976 12.4688 18.9112 12.315 19.2044 11.8263C19.4897 11.3507 19.6875 10.6514 19.6875 9.84375C19.6875 9.03615 19.4897 8.33678 19.2044 7.86119C18.9112 7.37255 18.5976 7.21875 18.375 7.21875C18.1524 7.21875 17.8388 7.37255 17.5456 7.86119ZM16.4202 7.18592C16.8395 6.48698 17.5103 5.90625 18.375 5.90625C19.2397 5.90625 19.9105 6.48698 20.3298 7.18592C20.757 7.89791 21 8.83917 21 9.84375C21 10.8483 20.757 11.7896 20.3298 12.5016C19.9105 13.2005 19.2397 13.7812 18.375 13.7812C17.5103 13.7812 16.8395 13.2005 16.4202 12.5016C15.993 11.7896 15.75 10.8483 15.75 9.84375C15.75 8.83917 15.993 7.89791 16.4202 7.18592Z" fill="#3E7E74"/>
<path fill-rule="evenodd" clip-rule="evenodd" d="M12.9519 1.95494C12.6665 2.43053 12.4688 3.1299 12.4688 3.9375C12.4688 4.7451 12.6665 5.44447 12.9519 5.92006C13.2451 6.4087 13.5587 6.5625 13.7812 6.5625C14.0038 6.5625 14.3174 6.4087 14.6106 5.92006C14.896 5.44447 15.0938 4.7451 15.0938 3.9375C15.0938 3.1299 14.896 2.43053 14.6106 1.95494C14.3174 1.4663 14.0038 1.3125 13.7812 1.3125C13.5587 1.3125 13.2451 1.4663 12.9519 1.95494ZM11.8264 1.27967C12.2458 0.580734 12.9165 0 13.7812 0C14.646 0 15.3167 0.580734 15.7361 1.27967C16.1633 1.99166 16.4062 2.93292 16.4062 3.9375C16.4062 4.94208 16.1633 5.88334 15.7361 6.59533C15.3167 7.29427 14.646 7.875 13.7812 7.875C12.9165 7.875 12.2458 7.29427 11.8264 6.59533C11.3992 5.88334 11.1562 4.94208 11.1562 3.9375C11.1562 2.93292 11.3992 1.99166 11.8264 1.27967Z" fill="#3E7E74"/>
<path fill-rule="evenodd" clip-rule="evenodd" d="M7.71577 9.68452C8.45419 8.94609 9.45571 8.53125 10.5 8.53125C11.5443 8.53125 12.5458 8.94609 13.2842 9.68452C14.0227 10.4229 14.4375 11.4245 14.4375 12.4688C14.4375 12.494 14.436 12.5193 14.4331 12.5444C14.4192 12.6644 14.4358 12.7859 14.4813 12.8978C14.5247 13.0044 14.5931 13.099 14.6807 13.1735C15.1891 13.5394 15.6084 14.0157 15.907 14.5666C16.2096 15.125 16.3802 15.7453 16.4057 16.3799C16.4061 16.3887 16.4062 16.3975 16.4062 16.4062C16.4062 17.7525 15.68 18.9161 14.6042 19.7208C13.5292 20.5249 12.0754 21 10.5 21C8.92385 21 7.47006 20.5223 6.39545 19.7172C5.32048 18.912 4.59375 17.7486 4.59375 16.4062C4.59375 16.3975 4.59393 16.3887 4.59428 16.3799C4.61981 15.7453 4.79042 15.125 5.09303 14.5666C5.39182 14.0153 5.81146 13.5388 6.32041 13.1727C6.40807 13.0988 6.47655 13.0046 6.51985 12.8982C6.56515 12.787 6.58143 12.666 6.56715 12.5467C6.56405 12.5209 6.5625 12.4948 6.5625 12.4688C6.5625 11.4245 6.97734 10.4229 7.71577 9.68452ZM14.28 13.6937L13.8664 14.2032C13.6011 13.9879 13.3945 13.7091 13.2657 13.3927C13.1424 13.0898 13.0941 12.7617 13.1248 12.4366C13.1164 11.752 12.8408 11.0973 12.3562 10.6126C11.8639 10.1203 11.1962 9.84375 10.5 9.84375C9.80381 9.84375 9.13613 10.1203 8.64384 10.6126C8.15938 11.0971 7.88384 11.7514 7.87521 12.4356C7.90683 12.7612 7.85897 13.0898 7.73546 13.3932C7.60627 13.7105 7.39856 13.9897 7.13182 14.2047C7.12149 14.213 7.11091 14.221 7.10009 14.2287C6.74586 14.4804 6.45401 14.8099 6.24697 15.192C6.04204 15.5701 5.92558 15.9898 5.90629 16.4193C5.91095 17.251 6.36069 18.0513 7.18237 18.6668C8.00869 19.2858 9.1799 19.6875 10.5 19.6875C11.8209 19.6875 12.9921 19.2876 13.818 18.6698C14.6389 18.0558 15.0891 17.2558 15.0937 16.4193C15.0744 15.9898 14.958 15.5701 14.753 15.192C14.546 14.8099 14.2541 14.4804 13.8999 14.2287L14.28 13.6937Z" fill="#3E7E74"/>
</svg>
