<svg width="24" height="24" viewBox="0 0 24 24" fill="none" xmlns="http://www.w3.org/2000/svg">
<path d="M8.72607 23.245L23.2261 15.745V23.245H8.72607Z" stroke="#3E7E74" stroke-width="1.5" stroke-linecap="round" stroke-linejoin="round"/>
<path d="M9.37307 19.193C8.20828 19.9889 6.78224 20.3067 5.38973 20.0808C3.99723 19.855 2.74475 19.1027 1.89121 17.9795C1.03768 16.8563 0.648363 15.4481 0.803744 14.046C0.959125 12.6439 1.64732 11.3551 2.72607 10.446" stroke="#3E7E74" stroke-width="1.5" stroke-linecap="round" stroke-linejoin="round"/>
<path d="M6.72607 5.255C7.96871 5.255 8.97607 4.24765 8.97607 3.005C8.97607 1.76236 7.96871 0.755005 6.72607 0.755005C5.48343 0.755005 4.47607 1.76236 4.47607 3.005C4.47607 4.24765 5.48343 5.255 6.72607 5.255Z" stroke="#3E7E74" stroke-width="1.5" stroke-linecap="round" stroke-linejoin="round"/>
<path d="M8.22607 9.005V12.755H9.76807C10.2927 12.7545 10.8108 12.8722 11.2837 13.0994C11.7567 13.3265 12.1724 13.6572 12.5001 14.067L13.9001 15.818C14.0275 15.9713 14.1231 16.1485 14.1813 16.3391C14.2395 16.5298 14.2591 16.7301 14.239 16.9285C14.2188 17.1268 14.1594 17.3191 14.064 17.4942C13.9687 17.6693 13.8395 17.8236 13.6838 17.9482C13.5281 18.0727 13.3492 18.165 13.1575 18.2196C12.9658 18.2742 12.7651 18.29 12.5672 18.2662C12.3693 18.2423 12.1781 18.1793 12.0048 18.0807C11.8316 17.9821 11.6797 17.85 11.5581 17.692L10.1581 15.943C10.1112 15.8843 10.0517 15.8369 9.98403 15.8044C9.91634 15.7718 9.84218 15.755 9.76707 15.755H7.72607C7.06303 15.755 6.42715 15.4916 5.95831 15.0228C5.48947 14.5539 5.22607 13.918 5.22607 13.255V9.005C5.22607 8.60718 5.38411 8.22565 5.66541 7.94434C5.94672 7.66304 6.32825 7.505 6.72607 7.505V7.505C7.1239 7.505 7.50543 7.66304 7.78673 7.94434C8.06804 8.22565 8.22607 8.60718 8.22607 9.005V9.005Z" stroke="#3E7E74" stroke-width="1.5" stroke-linecap="round" stroke-linejoin="round"/>
</svg>
