<svg width="24" height="24" viewBox="0 0 24 24" fill="none" xmlns="http://www.w3.org/2000/svg">
<path d="M2.25 12.75C1.85218 12.75 1.47064 12.592 1.18934 12.3107C0.908035 12.0294 0.75 11.6478 0.75 11.25V3.75C0.75 2.95435 1.06607 2.19129 1.62868 1.62868C2.19129 1.06607 2.95435 0.75 3.75 0.75H20.25C21.0456 0.75 21.8087 1.06607 22.3713 1.62868C22.9339 2.19129 23.25 2.95435 23.25 3.75V11.25C23.25 11.6478 23.092 12.0294 22.8107 12.3107C22.5294 12.592 22.1478 12.75 21.75 12.75" stroke="#3E7E74" stroke-width="1.5" stroke-linecap="round" stroke-linejoin="round"/>
<path d="M0.75 9.75H23.25" stroke="#3E7E74" stroke-width="1.5" stroke-linecap="round" stroke-linejoin="round"/>
<path d="M19.5 4.875C19.2929 4.875 19.125 4.70711 19.125 4.5C19.125 4.29289 19.2929 4.125 19.5 4.125" stroke="#3E7E74" stroke-width="1.5"/>
<path d="M19.5 4.875C19.7071 4.875 19.875 4.70711 19.875 4.5C19.875 4.29289 19.7071 4.125 19.5 4.125" stroke="#3E7E74" stroke-width="1.5"/>
<path d="M5.25 14.25V17.25C5.25 18.0456 4.93393 18.8087 4.37132 19.3713C3.80871 19.9339 3.04565 20.25 2.25 20.25" stroke="#3E7E74" stroke-width="1.5" stroke-linecap="round" stroke-linejoin="round"/>
<path d="M9.75 14.25V21.75C9.75 22.1478 9.59196 22.5294 9.31066 22.8107C9.02936 23.092 8.64782 23.25 8.25 23.25" stroke="#3E7E74" stroke-width="1.5" stroke-linecap="round" stroke-linejoin="round"/>
<path d="M18.75 14.25V17.25C18.75 18.0456 19.0661 18.8087 19.6287 19.3713C20.1913 19.9339 20.9544 20.25 21.75 20.25" stroke="#3E7E74" stroke-width="1.5" stroke-linecap="round" stroke-linejoin="round"/>
<path d="M14.25 14.25V21.75C14.25 22.1478 14.408 22.5294 14.6893 22.8107C14.9706 23.092 15.3522 23.25 15.75 23.25" stroke="#3E7E74" stroke-width="1.5" stroke-linecap="round" stroke-linejoin="round"/>
</svg>
