<svg width="24" height="24" viewBox="0 0 24 24" fill="none" xmlns="http://www.w3.org/2000/svg">
<path d="M20.9179 11.25C21.1248 11.2372 21.3319 11.2704 21.5244 11.3469C21.717 11.4235 21.8903 11.5417 22.0319 11.6931C22.1734 11.8444 22.2799 12.0251 22.3435 12.2224C22.4071 12.4196 22.4264 12.6284 22.3999 12.834C21.9066 14.7842 20.7627 16.5077 19.1572 17.7198C17.5517 18.9318 15.5807 19.5598 13.5699 19.5C11.5585 19.5607 9.58657 18.9332 7.98024 17.7211C6.3739 16.5089 5.22937 14.7849 4.73592 12.834C4.70937 12.6281 4.72872 12.4189 4.79257 12.2213C4.85642 12.0238 4.96319 11.8428 5.10523 11.6914C5.24727 11.54 5.42105 11.4219 5.61412 11.3456C5.80718 11.2693 6.01474 11.2366 6.22192 11.25H20.9179Z" stroke="#3E7E74" stroke-width="1.5" stroke-linecap="round" stroke-linejoin="round"/>
<path d="M13.5699 19.5V23.25" stroke="#3E7E74" stroke-width="1.5" stroke-linecap="round" stroke-linejoin="round"/>
<path d="M10.5699 23.25H16.5699" stroke="#3E7E74" stroke-width="1.5" stroke-linecap="round" stroke-linejoin="round"/>
<path d="M6.14299 11.252C6.03874 10.7385 6.04322 10.2089 6.15616 9.69721C6.2691 9.18555 6.48798 8.70322 6.79871 8.28132C7.10943 7.85941 7.5051 7.50729 7.96022 7.24764C8.41534 6.98798 8.91982 6.82657 9.44113 6.77378C9.96244 6.721 10.489 6.77802 10.987 6.94117C11.4849 7.10433 11.9431 7.36999 12.3321 7.72105C12.7211 8.07211 13.0322 8.50077 13.2454 8.9794C13.4586 9.45804 13.5692 9.97604 13.57 10.5V11.25" stroke="#3E7E74" stroke-width="1.5" stroke-linecap="round" stroke-linejoin="round"/>
<path d="M20.9999 11.252C21.1018 10.7394 21.0954 10.2111 20.9812 9.70102C20.8669 9.19097 20.6474 8.71043 20.3365 8.29022C20.0257 7.87 19.6305 7.51939 19.1762 7.26086C18.7219 7.00233 18.2186 6.8416 17.6986 6.78896C17.1786 6.73633 16.6533 6.79296 16.1564 6.95522C15.6596 7.11749 15.2021 7.3818 14.8134 7.73121C14.4246 8.08062 14.1132 8.50742 13.8991 8.98423C13.685 9.46104 13.5729 9.97734 13.5699 10.5V11.25" stroke="#3E7E74" stroke-width="1.5" stroke-linecap="round" stroke-linejoin="round"/>
<path d="M17.3199 6.75C17.3199 5.75544 16.9249 4.80161 16.2216 4.09835C15.5183 3.39509 14.5645 3 13.5699 3C12.5754 3 11.6216 3.39509 10.9183 4.09835C10.215 4.80161 9.81995 5.75544 9.81995 6.75" stroke="#3E7E74" stroke-width="1.5" stroke-linecap="round" stroke-linejoin="round"/>
<path d="M7.12495 7.892L1.56995 0.75" stroke="#3E7E74" stroke-width="1.5" stroke-linecap="round" stroke-linejoin="round"/>
</svg>
