<svg width="22" height="22" viewBox="0 0 22 22" fill="none" xmlns="http://www.w3.org/2000/svg">
<path d="M18.9368 13.9874V12.6749C18.9368 12.4428 18.8446 12.2203 18.6805 12.0562C18.5164 11.8921 18.2938 11.7999 18.0618 11.7999H13.7988L12.159 13.9874C12.053 14.1187 11.9201 14.2258 11.7691 14.3013C11.6181 14.3768 11.4527 14.4189 11.284 14.4249H9.74927" stroke="#3E7E74" stroke-width="1.3125" stroke-linecap="round" stroke-linejoin="round"/>
<path d="M9.74927 18.3624H12.3743L13.6868 19.2374H18.4993C19.1354 19.2374 19.5353 19.1928 19.8118 18.3624C20.0821 17.0499 20.37 16.1058 20.5389 14.9901C20.5573 14.8657 20.5486 14.7388 20.5135 14.6181C20.4784 14.4973 20.4176 14.3855 20.3354 14.2904C20.2532 14.1952 20.1514 14.1189 20.0371 14.0666C19.9227 14.0143 19.7984 13.9873 19.6726 13.9874H16.3153" stroke="#3E7E74" stroke-width="1.3125" stroke-linecap="round" stroke-linejoin="round"/>
<path d="M13.9895 2.61237H12.677C12.4449 2.61237 12.2224 2.70456 12.0583 2.86866C11.8942 3.03275 11.802 3.25531 11.802 3.48737V7.74775L13.9895 9.3875C14.1212 9.49321 14.2284 9.62612 14.3039 9.77715C14.3795 9.92818 14.4214 10.0937 14.427 10.2625V11.7999" stroke="#3E7E74" stroke-width="1.3125" stroke-linecap="round" stroke-linejoin="round"/>
<path d="M18.3645 11.7999V9.17488L19.2395 7.86238V3.04988C19.2395 2.41375 19.1949 2.01388 18.3645 1.73738C17.052 1.46613 16.1088 1.17825 14.9923 1.00938C14.8678 0.991016 14.7409 0.999688 14.6202 1.0348C14.4994 1.06992 14.3877 1.13065 14.2925 1.21286C14.1973 1.29507 14.121 1.39683 14.0687 1.5112C14.0164 1.62557 13.9894 1.74987 13.9895 1.87563V5.23125" stroke="#3E7E74" stroke-width="1.3125" stroke-linecap="round" stroke-linejoin="round"/>
<path d="M2.6145 7.68738V8.99988C2.6145 9.23194 2.70669 9.4545 2.87078 9.6186C3.03488 9.78269 3.25744 9.87488 3.4895 9.87488H7.7525L9.39225 7.68738C9.49823 7.55601 9.63121 7.44896 9.78218 7.37348C9.93314 7.298 10.0986 7.25584 10.2673 7.24988H11.802" stroke="#3E7E74" stroke-width="1.3125" stroke-linecap="round" stroke-linejoin="round"/>
<path d="M11.8021 3.31238H9.17712L7.86462 2.43738H3.05212C2.41599 2.43738 2.01612 2.482 1.73962 3.31238C1.46574 4.62488 1.17787 5.57163 1.00899 6.68725C0.991046 6.81146 1.00003 6.93808 1.03533 7.05852C1.07064 7.17895 1.13143 7.29038 1.2136 7.38524C1.29577 7.48011 1.39738 7.55619 1.51154 7.60832C1.6257 7.66045 1.74974 7.68741 1.87524 7.68738H5.23612" stroke="#3E7E74" stroke-width="1.3125" stroke-linecap="round" stroke-linejoin="round"/>
<path d="M7.56177 19.0624H8.87427C9.10633 19.0624 9.32889 18.9702 9.49299 18.8061C9.65708 18.642 9.74927 18.4194 9.74927 18.1874V13.927L7.56177 12.2873C7.4301 12.1815 7.32283 12.0486 7.24732 11.8976C7.17181 11.7466 7.12983 11.581 7.12427 11.4123V9.87488" stroke="#3E7E74" stroke-width="1.3125" stroke-linecap="round" stroke-linejoin="round"/>
<path d="M3.18677 9.87488V12.4999L2.31177 13.8124V18.6249C2.31177 19.261 2.35639 19.6609 3.18677 19.9374C4.49927 20.2086 5.44252 20.4965 6.55902 20.6654C6.68343 20.6837 6.81033 20.6751 6.93109 20.64C7.05184 20.6048 7.16361 20.5441 7.25878 20.4619C7.35394 20.3797 7.43027 20.2779 7.48255 20.1636C7.53484 20.0492 7.56186 19.9249 7.56177 19.7991V16.4435" stroke="#3E7E74" stroke-width="1.3125" stroke-linecap="round" stroke-linejoin="round"/>
</svg>
