<svg width="21" height="22" viewBox="0 0 21 22" fill="none" xmlns="http://www.w3.org/2000/svg">
<path fill-rule="evenodd" clip-rule="evenodd" d="M1.53125 1.3125C1.41044 1.3125 1.3125 1.41044 1.3125 1.53125V19.4688C1.3125 19.5896 1.41044 19.6875 1.53125 19.6875H19.4688C19.5896 19.6875 19.6875 19.5896 19.6875 19.4688V1.53125C19.6875 1.41044 19.5896 1.3125 19.4688 1.3125H1.53125ZM0 1.53125C0 0.685564 0.685564 0 1.53125 0H19.4688C20.3144 0 21 0.685564 21 1.53125V19.4688C21 20.3144 20.3144 21 19.4688 21H1.53125C0.685564 21 0 20.3144 0 19.4688V1.53125Z" fill="#3E7E74"/>
<path fill-rule="evenodd" clip-rule="evenodd" d="M0 10.5C0 10.1376 0.293813 9.84375 0.65625 9.84375H20.3438C20.7062 9.84375 21 10.1376 21 10.5C21 10.8624 20.7062 11.1562 20.3438 11.1562H0.65625C0.293813 11.1562 0 10.8624 0 10.5Z" fill="#3E7E74"/>
<path fill-rule="evenodd" clip-rule="evenodd" d="M10.5 3.28125C10.5 2.91881 10.7938 2.625 11.1562 2.625H14.4375C14.7999 2.625 15.0938 2.91881 15.0938 3.28125V10.5C15.0938 10.8624 14.7999 11.1562 14.4375 11.1562H11.1562C10.7938 11.1562 10.5 10.8624 10.5 10.5V3.28125ZM11.8125 3.9375V9.84375H13.7812V3.9375H11.8125Z" fill="#3E7E74"/>
<path fill-rule="evenodd" clip-rule="evenodd" d="M13.7812 5.25C13.7812 4.88756 14.0751 4.59375 14.4375 4.59375H17.7188C18.0812 4.59375 18.375 4.88756 18.375 5.25V10.5C18.375 10.8624 18.0812 11.1562 17.7188 11.1562H14.4375C14.0751 11.1562 13.7812 10.8624 13.7812 10.5V5.25ZM15.0938 5.90625V9.84375H17.0625V5.90625H15.0938Z" fill="#3E7E74"/>
<path fill-rule="evenodd" clip-rule="evenodd" d="M3.28125 13.125C3.28125 12.7626 3.57506 12.4688 3.9375 12.4688H7.21875C7.58119 12.4688 7.875 12.7626 7.875 13.125V20.3438C7.875 20.7062 7.58119 21 7.21875 21H3.9375C3.57506 21 3.28125 20.7062 3.28125 20.3438V13.125ZM4.59375 13.7812V19.6875H6.5625V13.7812H4.59375Z" fill="#3E7E74"/>
<path fill-rule="evenodd" clip-rule="evenodd" d="M6.5625 13.125C6.5625 12.7626 6.85631 12.4688 7.21875 12.4688H10.5C10.8624 12.4688 11.1562 12.7626 11.1562 13.125V20.3438C11.1562 20.7062 10.8624 21 10.5 21H7.21875C6.85631 21 6.5625 20.7062 6.5625 20.3438V13.125ZM7.875 13.7812V19.6875H9.84375V13.7812H7.875Z" fill="#3E7E74"/>
<path fill-rule="evenodd" clip-rule="evenodd" d="M11.2014 13.8586C11.0696 13.521 11.2365 13.1404 11.5741 13.0086L14.6307 11.8155C14.9684 11.6837 15.3489 11.8506 15.4807 12.1882L18.1056 18.9128C18.2374 19.2504 18.0705 19.6309 17.7329 19.7627L14.6763 20.9559C14.3386 21.0877 13.9581 20.9208 13.8263 20.5832L11.2014 13.8586ZM12.6627 13.9926L14.8103 19.4946L16.6443 18.7787L14.4967 13.2768L12.6627 13.9926Z" fill="#3E7E74"/>
</svg>
