<svg width="24" height="24" viewBox="0 0 24 24" fill="none" xmlns="http://www.w3.org/2000/svg">
<path d="M14.25 17.5H2.25C1.85218 17.5 1.47064 17.342 1.18934 17.0607C0.908035 16.7794 0.75 16.3978 0.75 16V4C0.75 3.60218 0.908035 3.22064 1.18934 2.93934C1.47064 2.65804 1.85218 2.5 2.25 2.5H21.75C22.1478 2.5 22.5294 2.65804 22.8107 2.93934C23.092 3.22064 23.25 3.60218 23.25 4V16C23.25 16.3978 23.092 16.7794 22.8107 17.0607C22.5294 17.342 22.1478 17.5 21.75 17.5" stroke="#3E7E74" stroke-width="1.5" stroke-linecap="round" stroke-linejoin="round"/>
<path d="M12 11.5L22.5 22" stroke="#3E7E74" stroke-width="1.5" stroke-linecap="round" stroke-linejoin="round"/>
<path d="M5.625 7.75C5.41789 7.75 5.25 7.58211 5.25 7.375C5.25 7.16789 5.41789 7 5.625 7" stroke="#3E7E74" stroke-width="1.5"/>
<path d="M5.625 7.75C5.83211 7.75 6 7.58211 6 7.375C6 7.16789 5.83211 7 5.625 7" stroke="#3E7E74" stroke-width="1.5"/>
<path d="M5.625 12.25C5.41789 12.25 5.25 12.0821 5.25 11.875C5.25 11.6679 5.41789 11.5 5.625 11.5" stroke="#3E7E74" stroke-width="1.5"/>
<path d="M5.625 12.25C5.83211 12.25 6 12.0821 6 11.875C6 11.6679 5.83211 11.5 5.625 11.5" stroke="#3E7E74" stroke-width="1.5"/>
<path d="M8.625 10C8.41789 10 8.25 9.83211 8.25 9.625C8.25 9.41789 8.41789 9.25 8.625 9.25" stroke="#3E7E74" stroke-width="1.5"/>
<path d="M8.625 10C8.83211 10 9 9.83211 9 9.625C9 9.41789 8.83211 9.25 8.625 9.25" stroke="#3E7E74" stroke-width="1.5"/>
<path d="M17.625 8.5C17.4179 8.5 17.25 8.33211 17.25 8.125C17.25 7.91789 17.4179 7.75 17.625 7.75" stroke="#3E7E74" stroke-width="1.5"/>
<path d="M17.625 8.5C17.8321 8.5 18 8.33211 18 8.125C18 7.91789 17.8321 7.75 17.625 7.75" stroke="#3E7E74" stroke-width="1.5"/>
</svg>
