<svg width="23" height="23" viewBox="0 0 23 23" fill="none" xmlns="http://www.w3.org/2000/svg">
<path d="M18.1 13.1333H5.96665C5.59535 13.1333 5.23925 13.2808 4.9767 13.5434C4.71415 13.8059 4.56665 14.162 4.56665 14.5333V22H19.5V14.5333C19.5 14.162 19.3525 13.8059 19.0899 13.5434C18.8274 13.2808 18.4713 13.1333 18.1 13.1333Z" stroke="#3E7E74" stroke-width="1.3125" stroke-linecap="round" stroke-linejoin="round"/>
<path d="M12.033 16.4V22" stroke="#3E7E74" stroke-width="1.3125" stroke-linecap="round" stroke-linejoin="round"/>
<path d="M4.56641 16.4H19.4997" stroke="#3E7E74" stroke-width="1.3125" stroke-linecap="round" stroke-linejoin="round"/>
<path d="M7.59985 19.2H8.99985" stroke="#3E7E74" stroke-width="1.3125" stroke-linecap="round" stroke-linejoin="round"/>
<path d="M15.0664 19.2H16.4664" stroke="#3E7E74" stroke-width="1.3125" stroke-linecap="round" stroke-linejoin="round"/>
<path d="M14.3 1C14.6714 1 15.0274 1.1475 15.29 1.41005C15.5525 1.6726 15.7 2.0287 15.7 2.4C15.7 2.7713 15.5525 3.1274 15.29 3.38995C15.0274 3.6525 14.6714 3.8 14.3 3.8V5.2" stroke="#3E7E74" stroke-width="1.3125" stroke-linecap="round" stroke-linejoin="round"/>
<path d="M1 2.4H10.8" stroke="#3E7E74" stroke-width="1.3125" stroke-linecap="round" stroke-linejoin="round"/>
<path d="M22 2.4H19.2" stroke="#3E7E74" stroke-width="1.3125" stroke-linecap="round" stroke-linejoin="round"/>
<path d="M9.3999 9.4C9.3999 7.076 11.5932 5.2 14.2999 5.2C17.0066 5.2 19.1999 7.06666 19.1999 9.4H9.3999Z" stroke="#3E7E74" stroke-width="1.3125" stroke-linecap="round" stroke-linejoin="round"/>
</svg>
