<svg width="22" height="13" viewBox="0 0 22 13" fill="none" xmlns="http://www.w3.org/2000/svg">
<path d="M7.5625 6.25H14.125" stroke="#3E7E74" stroke-width="1.3125" stroke-linecap="round" stroke-linejoin="round"/>
<path d="M6.25 11.5C5.9019 11.5 5.56806 11.3617 5.32192 11.1156C5.07578 10.8694 4.9375 10.5356 4.9375 10.1875V2.3125C4.9375 1.9644 5.07578 1.63056 5.32192 1.38442C5.56806 1.13828 5.9019 1 6.25 1C6.5981 1 6.93194 1.13828 7.17808 1.38442C7.42422 1.63056 7.5625 1.9644 7.5625 2.3125V10.1875C7.5625 10.5356 7.42422 10.8694 7.17808 11.1156C6.93194 11.3617 6.5981 11.5 6.25 11.5Z" stroke="#3E7E74" stroke-width="1.3125" stroke-linecap="round" stroke-linejoin="round"/>
<path d="M2.3125 6.25H1" stroke="#3E7E74" stroke-width="1.3125" stroke-linecap="round" stroke-linejoin="round"/>
<path d="M3.625 3.625C3.2769 3.625 2.94306 3.76328 2.69692 4.00942C2.45078 4.25556 2.3125 4.5894 2.3125 4.9375V7.5625C2.3125 7.9106 2.45078 8.24444 2.69692 8.49058C2.94306 8.73672 3.2769 8.875 3.625 8.875C3.9731 8.875 4.30694 8.73672 4.55308 8.49058C4.79922 8.24444 4.9375 7.9106 4.9375 7.5625V4.9375C4.9375 4.5894 4.79922 4.25556 4.55308 4.00942C4.30694 3.76328 3.9731 3.625 3.625 3.625Z" stroke="#3E7E74" stroke-width="1.3125" stroke-linecap="round" stroke-linejoin="round"/>
<path d="M15.4375 11.5C15.7856 11.5 16.1194 11.3617 16.3656 11.1156C16.6117 10.8694 16.75 10.5356 16.75 10.1875V2.3125C16.75 1.9644 16.6117 1.63056 16.3656 1.38442C16.1194 1.13828 15.7856 1 15.4375 1C15.0894 1 14.7556 1.13828 14.5094 1.38442C14.2633 1.63056 14.125 1.9644 14.125 2.3125V10.1875C14.125 10.5356 14.2633 10.8694 14.5094 11.1156C14.7556 11.3617 15.0894 11.5 15.4375 11.5Z" stroke="#3E7E74" stroke-width="1.3125" stroke-linecap="round" stroke-linejoin="round"/>
<path d="M19.375 6.25H20.6875" stroke="#3E7E74" stroke-width="1.3125" stroke-linecap="round" stroke-linejoin="round"/>
<path d="M18.0625 3.625C18.4106 3.625 18.7444 3.76328 18.9906 4.00942C19.2367 4.25556 19.375 4.5894 19.375 4.9375V7.5625C19.375 7.9106 19.2367 8.24444 18.9906 8.49058C18.7444 8.73672 18.4106 8.875 18.0625 8.875C17.7144 8.875 17.3806 8.73672 17.1344 8.49058C16.8883 8.24444 16.75 7.9106 16.75 7.5625V4.9375C16.75 4.5894 16.8883 4.25556 17.1344 4.00942C17.3806 3.76328 17.7144 3.625 18.0625 3.625Z" stroke="#3E7E74" stroke-width="1.3125" stroke-linecap="round" stroke-linejoin="round"/>
</svg>
