<svg width="22" height="17" viewBox="0 0 22 17" fill="none" xmlns="http://www.w3.org/2000/svg">
<path d="M8.73587 1H15.1829C16.0265 0.999251 16.8435 1.29586 17.4902 1.83771C18.1368 2.37956 18.5718 3.13197 18.7188 3.96275L20.6849 15.1085C20.6959 15.1702 20.6932 15.2337 20.677 15.2943C20.6609 15.3549 20.6316 15.4112 20.5913 15.4592C20.551 15.5073 20.5007 15.5459 20.4438 15.5724C20.3869 15.5989 20.325 15.6126 20.2622 15.6125H1C1 14.4837 1.22235 13.366 1.65435 12.3231C2.08635 11.2802 2.71954 10.3327 3.51776 9.53452C4.31599 8.73638 5.26361 8.10328 6.30652 7.67139C7.34943 7.2395 8.4672 7.01726 9.596 7.01738H19.2534" stroke="#702B68" stroke-width="1.3125" stroke-linecap="round" stroke-linejoin="round"/>
<path d="M6.57812 11.675C6.64302 11.675 6.70646 11.6942 6.76042 11.7303C6.81438 11.7663 6.85644 11.8176 6.88127 11.8775C6.90611 11.9375 6.91261 12.0035 6.89995 12.0671C6.88728 12.1308 6.85603 12.1892 6.81014 12.2351C6.76426 12.281 6.70579 12.3123 6.64214 12.3249C6.57849 12.3376 6.51251 12.3311 6.45256 12.3063C6.3926 12.2814 6.34135 12.2394 6.3053 12.1854C6.26924 12.1314 6.25 12.068 6.25 12.0031C6.25 11.9161 6.28457 11.8326 6.34611 11.7711C6.40764 11.7096 6.4911 11.675 6.57812 11.675" stroke="#702B68" stroke-width="1.3125" stroke-linecap="round" stroke-linejoin="round"/>
<path d="M11.1719 11.675C11.2368 11.675 11.3002 11.6942 11.3542 11.7303C11.4081 11.7663 11.4502 11.8176 11.475 11.8775C11.4999 11.9375 11.5064 12.0035 11.4937 12.0671C11.481 12.1308 11.4498 12.1892 11.4039 12.2351C11.358 12.281 11.2995 12.3123 11.2359 12.3249C11.1722 12.3376 11.1063 12.3311 11.0463 12.3063C10.9864 12.2814 10.9351 12.2394 10.899 12.1854C10.863 12.1314 10.8438 12.068 10.8438 12.0031C10.8438 11.9161 10.8783 11.8326 10.9399 11.7711C11.0014 11.7096 11.0849 11.675 11.1719 11.675" stroke="#702B68" stroke-width="1.3125" stroke-linecap="round" stroke-linejoin="round"/>
<path d="M15.7656 11.675C15.8305 11.675 15.894 11.6942 15.9479 11.7303C16.0019 11.7663 16.0439 11.8176 16.0688 11.8775C16.0936 11.9375 16.1001 12.0035 16.0874 12.0671C16.0748 12.1308 16.0435 12.1892 15.9976 12.2351C15.9518 12.281 15.8933 12.3123 15.8296 12.3249C15.766 12.3376 15.7 12.3311 15.6401 12.3063C15.5801 12.2814 15.5289 12.2394 15.4928 12.1854C15.4567 12.1314 15.4375 12.068 15.4375 12.0031C15.4375 11.9161 15.4721 11.8326 15.5336 11.7711C15.5951 11.7096 15.6786 11.675 15.7656 11.675" stroke="#702B68" stroke-width="1.3125" stroke-linecap="round" stroke-linejoin="round"/>
</svg>
