<svg width="21" height="20" viewBox="0 0 21 20" fill="none" xmlns="http://www.w3.org/2000/svg">
<path fill-rule="evenodd" clip-rule="evenodd" d="M10.519 1.31767L10.5186 1.31801L10.5185 1.31791C9.91699 1.88421 9.43335 2.56385 9.09542 3.31773C8.76035 4.06523 8.57509 4.8711 8.55005 5.68975C8.58648 6.6006 8.81613 7.49339 9.22387 8.30887C9.5525 8.96612 9.9907 9.56096 10.5184 10.0684C11.0462 9.56096 11.4844 8.96612 11.813 8.30887C12.2207 7.49339 12.4504 6.60062 12.4868 5.68977C12.4617 4.87118 12.2765 4.06537 11.9415 3.31786C11.6037 2.56397 11.1203 1.88424 10.519 1.31774L10.519 1.31767ZM10.5184 10.9428L10.1057 11.453C9.24564 10.7573 8.54466 9.88529 8.04994 8.89584C7.55521 7.90639 7.27822 6.82242 7.23762 5.71693C7.23711 5.70295 7.23705 5.68895 7.23743 5.67497C7.26464 4.67618 7.48905 3.69262 7.89774 2.78087C8.30567 1.87082 8.88916 1.05024 9.61476 0.366123C9.85707 0.131372 10.1813 0 10.5189 0C10.8565 0 11.1808 0.13141 11.4231 0.366224C12.1484 1.05054 12.7316 1.87118 13.1393 2.78118C13.5478 3.69286 13.7721 4.67627 13.7994 5.67491C13.7998 5.68891 13.7998 5.70293 13.7992 5.71693C13.7586 6.82242 13.4817 7.90639 12.9869 8.89584C12.4922 9.88529 11.7912 10.7573 10.9312 11.453L10.5184 10.9428Z" fill="#702B68"/>
<path fill-rule="evenodd" clip-rule="evenodd" d="M17.323 4.13446C15.9399 4.12658 14.587 4.53886 13.4433 5.31673C13.1436 5.52056 12.7354 5.44285 12.5316 5.14316C12.3278 4.84348 12.4055 4.43529 12.7052 4.23146C14.0686 3.3041 15.6815 2.81259 17.3305 2.82198C17.6756 2.82319 18.0063 2.96044 18.2508 3.20401C18.494 3.44621 18.6324 3.77403 18.6365 4.11698C18.664 5.11103 18.4954 6.10078 18.1405 7.02974C17.7847 7.9607 17.2487 8.8123 16.5632 9.53573C16.5536 9.54584 16.5437 9.55564 16.5335 9.56512C15.7231 10.3181 14.7607 10.8886 13.7113 11.2384C12.6618 11.5882 11.5495 11.709 10.4494 11.5928C10.089 11.5548 9.82767 11.2317 9.86574 10.8713C9.90381 10.5109 10.2269 10.2495 10.5873 10.2876C11.5009 10.3841 12.4247 10.2837 13.2963 9.99324C14.1613 9.70496 14.955 9.23607 15.6249 8.61777C16.1847 8.02299 16.6228 7.32436 16.9144 6.56123C17.2085 5.79159 17.3478 4.97148 17.3244 4.1479L17.3242 4.13446L17.323 4.13446Z" fill="#702B68"/>
<path fill-rule="evenodd" clip-rule="evenodd" d="M3.67258 2.82197C5.33626 2.80417 6.9649 3.3004 8.33601 4.24292C8.63469 4.44823 8.71038 4.85679 8.50506 5.15547C8.29975 5.45414 7.89119 5.52983 7.59251 5.32452C6.44341 4.53462 5.07836 4.11897 3.68403 4.13443L3.67761 4.1345L3.67736 4.1484C3.65327 4.97221 3.79206 5.79267 4.08576 6.56273C4.3768 7.32584 4.81431 8.02457 5.37355 8.6196C6.05015 9.2391 6.85025 9.7085 7.7213 9.99686C8.59943 10.2876 9.52947 10.3876 10.4493 10.2902C10.8098 10.2521 11.1329 10.5134 11.171 10.8738C11.2091 11.2342 10.9479 11.5573 10.5874 11.5954C9.48193 11.7124 8.36418 11.5922 7.30882 11.2429C6.25346 10.8935 5.28477 10.323 4.46744 9.56945C4.4565 9.55937 4.4459 9.54891 4.43567 9.5381C3.75034 8.8141 3.21468 7.96193 2.85942 7.03045C2.50491 6.10094 2.33699 5.11071 2.36524 4.11633C2.36975 3.77307 2.50869 3.44512 2.7524 3.20303C2.99714 2.95993 3.32774 2.82307 3.67258 2.82197Z" fill="#702B68"/>
<path fill-rule="evenodd" clip-rule="evenodd" d="M3.93921 11.1563C4.30165 11.1563 4.59546 11.4502 4.59546 11.8126C4.59546 12.3381 5.03729 12.9887 6.15468 13.547C7.23317 14.0859 8.76913 14.4376 10.5017 14.4376C12.234 14.4376 13.77 14.0851 14.8486 13.5458C15.9664 12.9869 16.408 12.3362 16.408 11.8126C16.408 11.4502 16.7018 11.1563 17.0642 11.1563C17.4266 11.1563 17.7205 11.4502 17.7205 11.8126C17.7205 13.1011 16.6929 14.0911 15.4355 14.7197C14.1389 15.368 12.3936 15.7501 10.5017 15.7501C8.61004 15.7501 6.86475 15.369 5.56805 14.7211C4.31025 14.0927 3.28296 13.1027 3.28296 11.8126C3.28296 11.4502 3.57677 11.1563 3.93921 11.1563Z" fill="#702B68"/>
<path fill-rule="evenodd" clip-rule="evenodd" d="M19.1545 8.64196C19.4544 8.43843 19.8625 8.51654 20.066 8.81643C20.6646 9.69847 20.9895 10.7376 21 11.8035L21 11.81H21C21 13.9098 19.7232 15.7305 17.8245 16.9963C15.9212 18.2652 13.3297 19.0287 10.5 19.0287C7.67043 19.0287 5.07892 18.2659 3.1756 16.9977C1.27685 15.7326 0 13.9125 0 11.8126V11.8064L2.87294e-05 11.8064C0.00999767 10.7408 0.334177 9.70175 0.931963 8.81948C1.13526 8.51943 1.54331 8.441 1.84336 8.6443C2.14341 8.8476 2.22184 9.25565 2.01854 9.5557C1.56621 10.2233 1.32065 11.0093 1.3125 11.8156C1.31374 13.3389 2.24045 14.7975 3.90337 15.9055C5.56283 17.0112 7.89319 17.7162 10.5 17.7162C13.1067 17.7162 15.437 17.0106 17.0965 15.9043C18.7594 14.7957 19.6862 13.3365 19.6875 11.8133C19.679 11.0068 19.4329 10.2208 18.98 9.55349C18.7765 9.2536 18.8546 8.84549 19.1545 8.64196Z" fill="#702B68"/>
</svg>
