<svg width="22" height="22" viewBox="0 0 22 22" fill="none" xmlns="http://www.w3.org/2000/svg">
<path d="M20.6891 5.73835C20.6891 6.46329 20.1015 7.05096 19.3765 7.05096C18.6516 7.05096 18.0639 6.46329 18.0639 5.73835C18.0639 5.01342 18.6516 4.42575 19.3765 4.42575C20.1015 4.42575 20.6891 5.01342 20.6891 5.73835ZM20.6891 5.73835V1.43475C20.6887 1.3719 20.6748 1.30988 20.6483 1.2529C20.6218 1.19593 20.5833 1.14533 20.5355 1.10456C20.4876 1.06379 20.4316 1.0338 20.3711 1.01664C20.3107 0.999471 20.2472 0.995531 20.1851 1.00509L15.3722 1.7454C15.2688 1.7613 15.1745 1.81375 15.1064 1.89322C15.0383 1.97269 15.001 2.07392 15.0012 2.17856L15.0012 7.05096M15.0012 7.05096C15.0012 7.7759 14.4135 8.36357 13.6886 8.36357C12.9636 8.36357 12.3759 7.7759 12.3759 7.05096C12.3759 6.32603 12.9636 5.73835 13.6886 5.73835C14.4135 5.73835 15.0012 6.32603 15.0012 7.05096ZM20.6891 10.1303V17.5518C20.6891 17.7839 20.5969 18.0065 20.4328 18.1706C20.2687 18.3347 20.0462 18.4269 19.8141 18.4269H1.87507C1.64299 18.4269 1.42041 18.3347 1.2563 18.1706C1.09219 18.0065 1 17.7839 1 17.5518V6.39466C1 6.16258 1.09219 5.94 1.2563 5.77589C1.42041 5.61178 1.64299 5.51959 1.87507 5.51959H9.70785M5.8129 18.4269L4.71906 20.6146M15.8762 18.4269L16.9701 20.6146M14.6739 11.3266V15.3694M7.2454 10.1303V14.8155C7.24558 14.9134 7.2717 15.0094 7.32108 15.0939C7.37047 15.1784 7.44137 15.2484 7.52656 15.2965C7.61174 15.3447 7.70818 15.3695 7.80605 15.3683C7.90392 15.3671 7.99972 15.34 8.08372 15.2898L11.9874 12.9472C12.0693 12.8981 12.1371 12.8286 12.1842 12.7454C12.2313 12.6623 12.256 12.5684 12.256 12.4729C12.256 12.3774 12.2313 12.2835 12.1842 12.2004C12.1371 12.1173 12.0693 12.0478 11.9874 11.9986L8.08372 9.65606C7.99972 9.6058 7.90392 9.5787 7.80605 9.57751C7.70818 9.57632 7.61174 9.60109 7.52656 9.64928C7.44137 9.69748 7.37047 9.76739 7.32108 9.85189C7.2717 9.93639 7.24558 10.0325 7.2454 10.1303Z" stroke="#702B68" stroke-width="1.31261" stroke-linecap="round" stroke-linejoin="round"/>
</svg>
