<svg width="22" height="22" viewBox="0 0 22 22" fill="none" xmlns="http://www.w3.org/2000/svg">
<path d="M8.0585 16.2449C6.36289 15.6821 4.59428 15.3697 2.8085 15.3174C2.47348 15.2994 2.1583 15.1529 1.92851 14.9084C1.69872 14.664 1.57202 14.3404 1.57475 14.0049V2.31486C1.57443 2.13567 1.6108 1.95831 1.68163 1.79371C1.75246 1.62911 1.85624 1.48076 1.98658 1.3578C2.11693 1.23483 2.27107 1.13986 2.43951 1.07873C2.60796 1.0176 2.78713 0.991613 2.966 1.00236C8.50475 1.29111 11.4097 3.26861 11.4097 4.77361M11.4097 4.77361C11.4097 3.27736 14.6647 1.31736 19.8447 1.01111C20.0253 0.996516 20.207 1.01971 20.3781 1.07921C20.5492 1.13872 20.706 1.23323 20.8385 1.35672C20.9711 1.48021 21.0764 1.62997 21.1479 1.79645C21.2193 1.96293 21.2553 2.14246 21.2535 2.32361V13.3486M11.4097 4.77361V8.17736M9.08225 6.03362C7.50843 5.46281 5.87239 5.08097 4.2085 4.89612M17.8936 8.36987C18.1998 8.31737 18.5061 8.27362 18.8298 8.23862M9.08225 9.36737C7.5063 8.80553 5.87098 8.42679 4.2085 8.23862M9.08229 12.9111C7.49238 12.3421 5.84242 11.9575 4.16479 11.7649M13.9473 6.04237C15.5399 5.47252 17.1929 5.08791 18.8735 4.89612M21.1572 20.6461C21.1914 20.2634 21.2448 19.6661 21.2448 19.6661C21.3024 19.0302 21.1263 18.3951 20.7494 17.8797C20.3725 17.3643 19.8207 17.004 19.1973 16.8661L16.0035 16.1574V11.1349C16.02 10.9093 15.9898 10.6828 15.9148 10.4695C15.8398 10.2562 15.7217 10.0606 15.5677 9.89497C15.4138 9.72935 15.2273 9.59725 15.02 9.50692C14.8127 9.41659 14.589 9.36997 14.3629 9.36997C14.1367 9.36997 13.9131 9.41659 13.7058 9.50692C13.4984 9.59725 13.312 9.72935 13.158 9.89497C13.0041 10.0606 12.8859 10.2562 12.8109 10.4695C12.736 10.6828 12.7058 10.9093 12.7222 11.1349V19.1849L11.4097 18.2136C11.1516 18.0168 10.8307 17.9205 10.5069 17.9426C10.183 17.9647 9.87826 18.1038 9.64927 18.3338C9.42027 18.5639 9.28267 18.8693 9.26206 19.1933C9.24146 19.5172 9.33925 19.8376 9.53725 20.0949C9.53725 20.0949 9.7879 20.4308 9.9485 20.6461" stroke="#702B68" stroke-width="1.3125" stroke-linecap="round" stroke-linejoin="round"/>
</svg>
