<svg width="22" height="22" viewBox="0 0 22 22" fill="none" xmlns="http://www.w3.org/2000/svg">
<path fill-rule="evenodd" clip-rule="evenodd" d="M4.54034 0.347543C4.88458 0.326145 5.2284 0.395556 5.53738 0.548828C5.8463 0.702073 6.10955 0.933773 6.30078 1.22073L6.95887 2.20787L7.35025 1.83322C7.56989 1.61586 7.83764 1.45323 8.13185 1.35853C8.42839 1.26308 8.74335 1.23937 9.05084 1.28934C9.35834 1.3393 9.64958 1.46153 9.90065 1.64596C10.1517 1.8304 10.3554 2.07178 10.495 2.35027L12.3057 5.97165C12.4074 6.17508 12.3966 6.41667 12.277 6.61014C12.1574 6.80362 11.9462 6.92138 11.7188 6.92138H1.21875C0.991309 6.92138 0.780084 6.80362 0.660511 6.61014C0.540938 6.41667 0.530068 6.17508 0.631783 5.97165L2.90151 1.4322C2.90152 1.43218 2.9015 1.43221 2.90151 1.4322C3.05573 1.12371 3.2883 0.861104 3.57591 0.670757C3.86352 0.4804 4.1961 0.368942 4.54034 0.347543ZM6.32782 3.62743L6.57897 4.00415C6.78001 4.30572 7.18746 4.38721 7.48902 4.18616C7.77675 3.99435 7.86413 3.61464 7.69694 3.31827L8.26218 2.77719L8.27172 2.76786C8.34526 2.69455 8.43514 2.63973 8.53399 2.60791C8.63284 2.57609 8.73783 2.56819 8.84032 2.58484C8.94282 2.6015 9.0399 2.64224 9.12359 2.70372C9.20725 2.76518 9.27514 2.84561 9.32168 2.9384C9.32166 2.93838 9.32169 2.93843 9.32168 2.9384L10.6569 5.60888H2.28059L4.07547 2.01911C4.12688 1.91628 4.20442 1.82871 4.30029 1.76525C4.39616 1.7018 4.50702 1.66465 4.62177 1.65751C4.73652 1.65038 4.85112 1.67352 4.95412 1.72461C5.05711 1.7757 5.14487 1.85295 5.20862 1.94863L6.27389 3.54654C6.28965 3.57448 6.30762 3.60153 6.32782 3.62743Z" fill="#702B68"/>
<path fill-rule="evenodd" clip-rule="evenodd" d="M18.2813 2.31274C18.5572 2.31274 18.8037 2.48538 18.898 2.74473L21.523 9.96348C21.5962 10.1647 21.5666 10.3889 21.4438 10.5642C21.321 10.7396 21.1203 10.844 20.9063 10.844H15.6563C15.4422 10.844 15.2416 10.7396 15.1187 10.5642C14.9959 10.3889 14.9664 10.1647 15.0395 9.96348L17.6645 2.74473C17.7588 2.48538 18.0053 2.31274 18.2813 2.31274ZM16.5932 9.53149H19.9693L18.2813 4.8893L16.5932 9.53149Z" fill="#702B68"/>
<path fill-rule="evenodd" clip-rule="evenodd" d="M18.2812 9.53149C18.6437 9.53149 18.9375 9.82531 18.9375 10.1877V12.8127C18.9375 13.1752 18.6437 13.469 18.2812 13.469C17.9188 13.469 17.625 13.1752 17.625 12.8127V10.1877C17.625 9.82531 17.9188 9.53149 18.2812 9.53149Z" fill="#702B68"/>
<path fill-rule="evenodd" clip-rule="evenodd" d="M3.84375 10.1877C4.11971 10.1877 4.36619 10.3604 4.46049 10.6197L7.08549 17.8385C7.15865 18.0397 7.12908 18.2639 7.00627 18.4392C6.88345 18.6146 6.68283 18.719 6.46875 18.719H1.21875C1.00468 18.719 0.804056 18.6146 0.681241 18.4392C0.558426 18.2639 0.528855 18.0397 0.602015 17.8385L3.22701 10.6197C3.32132 10.3604 3.5678 10.1877 3.84375 10.1877ZM2.15568 17.4065H5.53183L3.84375 12.7643L2.15568 17.4065Z" fill="#702B68"/>
<path fill-rule="evenodd" clip-rule="evenodd" d="M3.84375 17.4065C4.20619 17.4065 4.5 17.7003 4.5 18.0627V20.6877C4.5 21.0502 4.20619 21.344 3.84375 21.344C3.48131 21.344 3.1875 21.0502 3.1875 20.6877V18.0627C3.1875 17.7003 3.48131 17.4065 3.84375 17.4065Z" fill="#702B68"/>
<path fill-rule="evenodd" clip-rule="evenodd" d="M17.1511 17.1275C17.4019 16.8658 17.8173 16.8569 18.079 17.1076C18.6767 17.6803 19.1187 18.3958 19.3632 19.1867C19.4703 19.5329 19.2764 19.9004 18.9301 20.0075C18.5838 20.1145 18.2163 19.9206 18.1093 19.5743C17.9306 18.9965 17.6077 18.4738 17.171 18.0554C16.9093 17.8047 16.9004 17.3892 17.1511 17.1275Z" fill="#702B68"/>
<path fill-rule="evenodd" clip-rule="evenodd" d="M13.0496 15.8068C13.1348 15.4545 13.4894 15.238 13.8417 15.3231C14.0359 15.3701 14.2377 15.4114 14.4489 15.4464C14.9328 15.5248 15.4092 15.6437 15.8732 15.8018C16.2163 15.9187 16.3996 16.2916 16.2827 16.6347C16.1658 16.9777 15.7929 17.1611 15.4498 17.0442C15.0551 16.9096 14.6497 16.8085 14.238 16.7418L14.2358 16.7415L14.2358 16.7415C13.9924 16.7012 13.7588 16.6534 13.5334 16.5989C13.1811 16.5137 12.9645 16.1591 13.0496 15.8068Z" fill="#702B68"/>
<path fill-rule="evenodd" clip-rule="evenodd" d="M9.63036 12.5912C9.95423 12.4285 10.3487 12.5592 10.5114 12.883C10.7571 13.3723 11.0926 13.811 11.5004 14.1764C11.7703 14.4183 11.7931 14.8331 11.5512 15.1031C11.3093 15.373 10.8944 15.3957 10.6245 15.1539C10.0943 14.6788 9.6581 14.1084 9.33853 13.4722C9.17584 13.1484 9.30649 12.7539 9.63036 12.5912Z" fill="#702B68"/>
<path fill-rule="evenodd" clip-rule="evenodd" d="M9.09585 8.219C9.45829 8.22018 9.75114 8.51496 9.74995 8.87739C9.74835 9.36563 9.77261 9.8536 9.82263 10.3393C9.85976 10.6998 9.59759 11.0222 9.23706 11.0593C8.87653 11.0964 8.55416 10.8343 8.51703 10.4737C8.46227 9.94196 8.43571 9.40767 8.43746 8.8731C8.43865 8.51066 8.73342 8.21781 9.09585 8.219Z" fill="#702B68"/>
</svg>
