<svg width="22" height="22" viewBox="0 0 22 22" fill="none" xmlns="http://www.w3.org/2000/svg">
<path d="M1 10.8438C1 13.4545 2.03711 15.9583 3.88317 17.8043C5.72923 19.6504 8.23303 20.6875 10.8438 20.6875C13.4545 20.6875 15.9583 19.6504 17.8043 17.8043C19.6504 15.9583 20.6875 13.4545 20.6875 10.8438C20.6875 8.23303 19.6504 5.72923 17.8043 3.88317C15.9583 2.03711 13.4545 1 10.8438 1C8.23303 1 5.72923 2.03711 3.88317 3.88317C2.03711 5.72923 1 8.23303 1 10.8438V10.8438Z" stroke="#702B68" stroke-width="1.3125" stroke-linecap="round" stroke-linejoin="round"/>
<path d="M10.8438 1V20.6875" stroke="#702B68" stroke-width="1.3125" stroke-linecap="round" stroke-linejoin="round"/>
<path d="M3.67236 17.5874L10.8439 10.4159L18.1632 17.4264" stroke="#702B68" stroke-width="1.3125" stroke-linecap="round" stroke-linejoin="round"/>
</svg>
