<svg width="21" height="21" viewBox="0 0 21 21" fill="none" xmlns="http://www.w3.org/2000/svg">
<path fill-rule="evenodd" clip-rule="evenodd" d="M3.26313 5.91558C3.51942 5.6593 3.93493 5.6593 4.19121 5.91558L15.057 16.7813C15.3132 17.0376 15.3132 17.4531 15.057 17.7094C14.8007 17.9657 14.3852 17.9657 14.1289 17.7094L3.26313 6.84366C3.00685 6.58738 3.00685 6.17187 3.26313 5.91558Z" fill="#702B68"/>
<path fill-rule="evenodd" clip-rule="evenodd" d="M8.15549 0.199816C8.47397 0.0678976 8.81531 0 9.16003 0C9.50475 0 9.8461 0.0678976 10.1646 0.199816C10.4831 0.331735 10.7724 0.525091 11.0162 0.768845C11.2599 1.0126 11.4533 1.30198 11.5852 1.62046C11.7171 1.93894 11.785 2.28028 11.785 2.625C11.785 2.96972 11.7171 3.31106 11.5852 3.62954C11.4533 3.94802 11.2599 4.2374 11.0162 4.48116C10.7724 4.72491 10.4831 4.91826 10.1646 5.05018C9.8461 5.1821 9.50475 5.25 9.16003 5.25C8.81531 5.25 8.47397 5.1821 8.15549 5.05018C7.83701 4.91826 7.54763 4.72491 7.30388 4.48116C7.06013 4.2374 6.86677 3.94802 6.73485 3.62954C6.60293 3.31106 6.53503 2.96972 6.53503 2.625C6.53503 2.28028 6.60293 1.93894 6.73485 1.62046C6.86677 1.30198 7.06013 1.0126 7.30388 0.768845C7.54763 0.525091 7.83701 0.331735 8.15549 0.199816ZM9.16003 1.3125C8.98767 1.3125 8.817 1.34645 8.65776 1.41241C8.49852 1.47837 8.35383 1.57505 8.23196 1.69692C8.11008 1.8188 8.0134 1.96349 7.94744 2.12273C7.88148 2.28197 7.84753 2.45264 7.84753 2.625C7.84753 2.79736 7.88148 2.96803 7.94744 3.12727C8.0134 3.28651 8.11008 3.4312 8.23196 3.55308C8.35383 3.67496 8.49852 3.77163 8.65776 3.83759C8.817 3.90355 8.98767 3.9375 9.16003 3.9375C9.33239 3.9375 9.50307 3.90355 9.66231 3.83759C9.82155 3.77163 9.96623 3.67496 10.0881 3.55308C10.21 3.4312 10.3067 3.28651 10.3726 3.12727C10.4386 2.96803 10.4725 2.79736 10.4725 2.625C10.4725 2.45264 10.4386 2.28197 10.3726 2.12273C10.3067 1.96349 10.21 1.8188 10.0881 1.69692C9.96623 1.57505 9.82155 1.47837 9.66231 1.41241C9.50307 1.34645 9.33239 1.3125 9.16003 1.3125Z" fill="#702B68"/>
<path fill-rule="evenodd" clip-rule="evenodd" d="M12.7346 0.683236C12.8024 0.327184 13.1459 0.0934547 13.502 0.161187C14.8178 0.411496 16.063 0.946455 17.1503 1.72859C18.2376 2.51073 19.1408 3.52114 19.7966 4.68904C20.4524 5.85694 20.8449 7.15409 20.9467 8.48963C21.0484 9.82518 20.857 11.1668 20.3857 12.4206C19.9144 13.6744 19.1747 14.8099 18.2185 15.7478C17.2622 16.6856 16.1124 17.4031 14.8497 17.8498C13.587 18.2966 12.2419 18.4619 10.9086 18.3342C9.7452 18.2227 8.61536 17.8905 7.57905 17.357L4.74805 20.188C4.21929 20.6978 3.51142 20.9797 2.77691 20.9729C2.04241 20.9662 1.3399 20.6713 0.820584 20.1519C0.301264 19.6324 0.00663829 18.9298 0.00011081 18.1953C-0.00641673 17.4608 0.275675 16.7531 0.785682 16.2245L0.793847 16.216L3.6165 13.3935C2.8838 11.9701 2.53428 10.3769 2.607 8.77168C2.68745 6.99584 3.2812 5.28145 4.31632 3.83625C4.52736 3.54159 4.93731 3.47381 5.23196 3.68486C5.52662 3.8959 5.5944 4.30585 5.38335 4.6005C4.49607 5.83931 3.98711 7.30886 3.91816 8.83108C3.8492 10.3533 4.2232 11.8628 4.99484 13.1768C5.14617 13.4345 5.1043 13.7619 4.893 13.9732L1.72653 17.1396C1.45771 17.4203 1.3091 17.7949 1.31256 18.1837C1.31603 18.5742 1.47268 18.9477 1.7488 19.2239C2.02491 19.5001 2.39843 19.6569 2.78895 19.6605C3.17768 19.664 3.55233 19.5156 3.83304 19.2468L6.99942 16.0805C7.21074 15.8691 7.53816 15.8273 7.79584 15.9787C8.78578 16.5601 9.89088 16.9182 11.0337 17.0277C12.1766 17.1372 13.3296 16.9955 14.4119 16.6125C15.4943 16.2296 16.4798 15.6146 17.2995 14.8107C18.1192 14.0068 18.7532 13.0335 19.1571 11.9588C19.5611 10.8841 19.7252 9.73412 19.638 8.58935C19.5508 7.44457 19.2143 6.33271 18.6522 5.33164C18.0901 4.33057 17.3159 3.46449 16.3839 2.79408C15.4519 2.12366 14.3846 1.66512 13.2567 1.45056C12.9006 1.38283 12.6669 1.03929 12.7346 0.683236Z" fill="#702B68"/>
</svg>
