<svg width="22" height="22" viewBox="0 0 22 22" fill="none" xmlns="http://www.w3.org/2000/svg">
<path d="M5.5675 11.6488C2.00625 11.6488 1.1925 17.03 1 19.5238C1.00306 19.6908 1.04028 19.8555 1.10935 20.0077C1.17843 20.1598 1.27791 20.2963 1.40167 20.4085C1.52543 20.5208 1.67085 20.6066 1.829 20.6606C1.98714 20.7146 2.15466 20.7357 2.32125 20.7225H8.7875C8.95409 20.7357 9.12161 20.7146 9.27975 20.6606C9.4379 20.6066 9.58332 20.5208 9.70708 20.4085C9.83084 20.2963 9.93032 20.1598 9.9994 20.0077C10.0685 19.8555 10.1057 19.6908 10.1087 19.5238C9.9425 17.03 9.0675 11.6488 5.5675 11.6488Z" stroke="#702B68" stroke-width="1.3125" stroke-linecap="round" stroke-linejoin="round"/>
<path d="M14.0986 1H16.7236" stroke="#702B68" stroke-width="1.3125" stroke-linecap="round" stroke-linejoin="round"/>
<path d="M15.4111 3.625V1" stroke="#702B68" stroke-width="1.3125" stroke-linecap="round" stroke-linejoin="round"/>
<path d="M18.9111 3.625H11.9111C10.9446 3.625 10.1611 4.4085 10.1611 5.375C10.1611 6.3415 10.9446 7.125 11.9111 7.125H18.9111C19.8776 7.125 20.6611 6.3415 20.6611 5.375C20.6611 4.4085 19.8776 3.625 18.9111 3.625Z" stroke="#702B68" stroke-width="1.3125" stroke-linecap="round" stroke-linejoin="round"/>
<path d="M18.0361 7.125H12.7861V11.5H18.0361V7.125Z" stroke="#702B68" stroke-width="1.3125" stroke-linecap="round" stroke-linejoin="round"/>
<path d="M12.7863 20.6875H19.3488C19.6969 20.6875 20.0307 20.5492 20.2769 20.3031C20.523 20.0569 20.6613 19.7231 20.6613 19.375V14.125C20.6613 13.4288 20.3847 12.7611 19.8924 12.2688C19.4002 11.7766 18.7325 11.5 18.0363 11.5H12.7863C12.2735 11.4988 11.7716 11.6479 11.3425 11.9287" stroke="#702B68" stroke-width="1.3125" stroke-linecap="round" stroke-linejoin="round"/>
<path d="M5.56741 14.125C5.64524 14.1377 5.716 14.1777 5.76706 14.2379C5.81812 14.298 5.84615 14.3743 5.84615 14.4531C5.84615 14.532 5.81812 14.6083 5.76706 14.6684C5.716 14.7285 5.64524 14.7685 5.56741 14.7812C5.51983 14.789 5.47113 14.7864 5.42468 14.7735C5.37822 14.7606 5.33513 14.7377 5.29838 14.7065C5.26164 14.6753 5.23212 14.6365 5.21188 14.5927C5.19164 14.549 5.18115 14.5013 5.18115 14.4531C5.18115 14.4049 5.19164 14.3573 5.21188 14.3135C5.23212 14.2698 5.26164 14.2309 5.29838 14.1997C5.33513 14.1685 5.37822 14.1456 5.42468 14.1327C5.47113 14.1198 5.51983 14.1172 5.56741 14.125" stroke="#702B68" stroke-width="1.3125" stroke-linecap="round" stroke-linejoin="round"/>
</svg>
