<svg width="22" height="21" viewBox="0 0 22 21" fill="none" xmlns="http://www.w3.org/2000/svg">
<path fill-rule="evenodd" clip-rule="evenodd" d="M11.7188 0.288757C12.0812 0.288757 12.375 0.58257 12.375 0.945007V1.62652C14.3975 1.78248 16.3067 2.65548 17.7513 4.1C19.1958 5.54452 20.0688 7.45372 20.2247 9.47626H20.9062C21.2687 9.47626 21.5625 9.77007 21.5625 10.1325C21.5625 10.4949 21.2687 10.7888 20.9062 10.7888H20.5634C20.6825 11.0118 20.7499 11.2593 20.76 11.5128C20.7716 11.8015 20.7085 12.0883 20.5768 12.3455C20.4474 12.5983 20.2561 12.814 20.0209 12.9727L9.47798 20.587C9.23221 20.7645 8.89685 20.7506 8.66667 20.5533L4.52874 17.0065L1.67712 19.7896C1.41774 20.0428 1.00226 20.0378 0.74911 19.7784C0.49596 19.519 0.501006 19.1035 0.760381 18.8504L4.04163 15.6479C4.28484 15.4105 4.66905 15.3981 4.92708 15.6192L5.31871 15.9549L5.42229 15.4398C5.42238 15.4394 5.42248 15.4389 5.42257 15.4384C5.52652 14.9076 5.49907 14.3595 5.3426 13.8417C5.18612 13.3239 4.90537 12.8523 4.52482 12.4679C4.52449 12.4676 4.52416 12.4672 4.52383 12.4669L4.12346 12.0665L4.12066 12.0637C3.96507 11.9062 3.84878 11.7143 3.78123 11.5035C3.71368 11.2926 3.69678 11.0689 3.73188 10.8503C3.73519 10.8297 3.73895 10.8092 3.74316 10.7888H2.53125C2.16881 10.7888 1.875 10.4949 1.875 10.1325C1.875 9.77007 2.16881 9.47626 2.53125 9.47626H3.21276C3.36872 7.45372 4.24173 5.54452 5.68625 4.1C7.13076 2.65548 9.03996 1.78248 11.0625 1.62652V0.945007C11.0625 0.58257 11.3563 0.288757 11.7188 0.288757ZM6.14482 9.47626C6.01701 9.46879 5.88917 9.46882 5.76192 9.47626H4.52987C4.68261 7.80239 5.4161 6.2263 6.61432 5.02808C7.9681 3.6743 9.80422 2.91376 11.7188 2.91376C13.6333 2.91376 15.4694 3.6743 16.8232 5.02808C18.0214 6.2263 18.7549 7.80239 18.9076 9.47626H17.816C17.7528 9.47265 17.6894 9.47035 17.6259 9.46936C17.5146 9.46763 17.4036 9.46995 17.2929 9.47626H6.14482ZM5.80512 10.7888H6.10161C6.15713 10.793 6.21261 10.7995 6.2679 10.8085C6.65668 10.8714 7.0172 11.0494 7.30325 11.3188L8.21998 12.6561C8.24668 12.695 8.27751 12.731 8.31193 12.7633C8.40474 12.8505 8.49276 12.942 8.58168 13.0345C8.93697 13.4039 9.3067 13.7883 10.0547 13.9717C11.1838 14.2589 12.38 14.1011 13.3961 13.5311C13.4396 13.5067 13.4802 13.4774 13.517 13.4438L16.0219 11.1612C16.4288 10.9462 16.8758 10.8197 17.3335 10.7888H17.7755C18.2919 10.8236 18.7937 10.9803 19.2393 11.2469C19.2458 11.2508 19.2524 11.2546 19.259 11.2582C19.3144 11.2888 19.3609 11.3331 19.3941 11.3869C19.4273 11.4407 19.4461 11.5021 19.4486 11.5653C19.4511 11.6284 19.4373 11.6912 19.4085 11.7474C19.3797 11.8037 19.3369 11.8516 19.2842 11.8864C19.2767 11.8914 19.2693 11.8965 19.262 11.9017L9.12846 19.2204L6.46066 16.9337L6.70962 15.6956L6.71021 15.6927C6.85576 14.9512 6.81758 14.1853 6.59898 13.462C6.38038 12.7387 5.98802 12.0799 5.45617 11.5431L5.05434 11.1413C5.05409 11.141 5.05385 11.1408 5.05361 11.1405C5.04334 11.1299 5.03566 11.1171 5.03115 11.103C5.02653 11.0886 5.02538 11.0733 5.02777 11.0584C5.03017 11.0434 5.03606 11.0293 5.04495 11.017C5.05348 11.0053 5.06454 10.9957 5.07732 10.9888C5.30603 10.8752 5.5533 10.8078 5.80512 10.7888ZM14.482 10.7888H8.53117L9.2629 11.8562C9.42884 12.0139 9.55055 12.1385 9.64835 12.2386C9.92615 12.5231 10.0111 12.6101 10.3693 12.6974L10.376 12.6991C11.1562 12.8981 11.9818 12.7983 12.6911 12.4208L14.482 10.7888Z" fill="#702B68"/>
</svg>
