<svg fill="none" height="21" viewBox="0 0 22 21" width="22" xmlns="http://www.w3.org/2000/svg"><g clip-rule="evenodd" fill="#702b68" fill-rule="evenodd"><path d="m.663208 5.34888c.362432 0 .656252.29381.656252.65625v13.67187h18.37504v-13.67187c0-.36244.2938-.65625.6562-.65625s.6563.29381.6563.65625v14.32817c0 .3624-.2939.6562-.6563.6562h-19.687492c-.362437 0-.65624999-.2938-.65624999-.6562v-14.32817c0-.36244.29381299-.65625.65624999-.65625z"/><path d="m17.4528 8.09026c.3624 0 .6562.29381.6562.65625v5.32259c0 .3625-.2938.6563-.6562.6563h-13.89067c-.36243 0-.65625-.2938-.65625-.6563v-5.30422c0-.36244.29382-.65625.65625-.65625.36244 0 .65625.29381.65625.65625v4.64802h12.57812v-4.66639c0-.36244.2938-.65625.6563-.65625z"/><path d="m8.51089.03061c.35423.0767.57921.426036.50251.780264l-1.15325 5.326126c-.0767.35423-.42603.57921-.78026.50251s-.57921-.42604-.50251-.78027l1.15325-5.326121c.0767-.354228.42603-.5792089.78026-.502509z"/><path d="m3.059 1.3125c-.04773.00004-.09435.01437-.13386.04115-.03572.02421-.06414.0576-.08235.09654l-1.52825 4.64686c.02706.64831.32075 1.11894.7604 1.44809.48038.35965 1.15486.56011 1.86265.5602.70779.0001 1.3822-.20019 1.8625-.55973.46159-.34554.76241-.8473.76241-1.54748 0-.36244.29381-.65625.65625-.65625s.65625.29381.65625.65625c0 .69965.30073 1.20135.76244 1.54701.48038.35965 1.15486.56011 1.86266.5602.7078.0001 1.3822-.20019 1.8625-.55973.4616-.34554.7624-.8473.7624-1.54748 0-.36244.2938-.65625.6562-.65625.3625 0 .6563.29381.6563.65625 0 .69886.3009 1.20093.7636 1.5474.4813.3604 1.157.56171 1.8658.56266.7088.00094 1.3841-.19858 1.8648-.55744.44-.32843.7339-.79857.7608-1.44727l-1.5213-4.6541c-.0183-.03865-.0466-.07177-.0821-.09583-.0396-.02676-.0862-.04106-.134-.04105zm-.00013-1.31249999c-.31026.00006199-.61338.09315239-.8702.26724599-.25681.174094-.45553.421193-.57047.709377-.00501.012556-.00963.025267-.01385.038107l-1.5715017 4.77837c-.0217601.06617-.0328483.13537-.0328483.20503 0 1.14222.519578 2.02214 1.28834 2.59769.75009.56157 1.71623.8219 2.64907.82202.93284.00013 1.89905-.25995 2.64922-.82151.23713-.17751.45055-.38399.63231-.6182.18169.23399.39496.44029.6319.61769.75009.56157 1.71623.8219 2.64906.82202.9328.00013 1.8991-.25995 2.6492-.82151.2373-.17761.4508-.38422.6326-.61859.182.23424.3955.44078.6327.6184.7505.56196 1.7172.8233 2.6507.82455.9335.00124 1.9007-.25752 2.6517-.81817.7699-.57472 1.2902-1.45448 1.2902-2.59739 0-.06926-.011-.13807-.0325-.2039l-1.5645-4.78625c-.0044-.01344-.0092-.026741-.0145-.039873-.1151-.287901-.314-.534678-.5708-.708489-.2567-.1737863-.5597-.26665238-.8697-.26661799h-14.89613c-.00004 0 .00004 0 0 0z"/><path d="m12.5047.0302616c.3544-.0758099.7032.1500484.779.5044674l1.1393 5.326121c.0758.35442-.1501.70319-.5045.779s-.7032-.15004-.779-.50446l-1.1393-5.326129c-.0758-.35442.1501-.70319.5045-.7789994z"/><path d="m4.88684 13.7576c.36244 0 .65625.2938.65625.6563v5.7531c0 .3624-.29381.6563-.65625.6563s-.65625-.2939-.65625-.6563v-5.7531c0-.3625.29381-.6563.65625-.6563z"/><path d="m16.1271 13.7576c.3624 0 .6562.2938.6562.6563v5.7531c0 .3624-.2938.6563-.6562.6563-.3625 0-.6563-.2939-.6563-.6563v-5.7531c0-.3625.2938-.6563.6563-.6563z"/><path d="m10.507 13.7576c.3624 0 .6562.2938.6562.6563v5.7531c0 .3624-.2938.6563-.6562.6563-.3625 0-.65629-.2939-.65629-.6563v-5.7531c0-.3625.29379-.6563.65629-.6563z"/><path d="m.216064 5.34187c0-.36243.293814-.65625.65625-.65625h19.261386c.3624 0 .6562.29382.6562.65625 0 .36244-.2938.65625-.6562.65625h-19.261386c-.362436 0-.65625-.29381-.65625-.65625z"/></g></svg>