<svg width="23" height="23" viewBox="0 0 23 23" fill="none" xmlns="http://www.w3.org/2000/svg">
<path d="M21.3365 3.86801L18.2102 6.99334H16.0067V4.78977L19.132 1.6635C18.1664 1.13605 17.0631 0.91491 15.9688 1.02947C14.8744 1.14403 13.8409 1.58886 13.0054 2.30486C12.17 3.02085 11.5721 3.97412 11.2914 5.038C11.0106 6.10188 11.0602 7.226 11.4336 8.26101L1.68534 18.0055C1.24652 18.4444 1 19.0395 1 19.6601C1 20.2807 1.24652 20.8758 1.68534 21.3147C2.12416 21.7535 2.71932 22 3.3399 22C3.96049 22 4.55565 21.7535 4.99447 21.3147L14.7399 11.5654C15.7749 11.9388 16.8991 11.9884 17.9629 11.7077C19.0268 11.4269 19.9801 10.8291 20.6961 9.99364C21.4121 9.15817 21.8569 8.12462 21.9715 7.0303C22.086 5.93598 21.8649 4.8327 21.3374 3.86707L21.3365 3.86801Z" stroke="#702B68" stroke-width="1.3125" stroke-linecap="round" stroke-linejoin="round"/>
</svg>
