<svg xmlns="http://www.w3.org/2000/svg" viewBox="0 0 116.16 116.16"><defs><style>.cls-1{fill:#c11377;}</style></defs><g id="Layer_2" data-name="Layer 2"><g id="Layer_1-2" data-name="Layer 1"><path class="cls-1" d="M13.94,69.72v39.47a7,7,0,0,0,7,7H95.25a7,7,0,0,0,7-7V69.72L58.08,26.51ZM62.32,53.29v3a1.31,1.31,0,0,0,1,1.27,21,21,0,0,1,5.54,2.3,1.33,1.33,0,0,0,1.62-.18l2.39-2.39a1.31,1.31,0,0,1,1.85,0l4.14,4.14c.51.51.51,1.34-.24,2.1L76.48,65.7a1.33,1.33,0,0,0-.18,1.62,21.12,21.12,0,0,1,2.3,5.54,1.32,1.32,0,0,0,1.28,1h3.36a1.32,1.32,0,0,1,1.32,1.32V81c0,.73-.59,1.32-1.66,1.32h-3a1.31,1.31,0,0,0-1.27,1,21.17,21.17,0,0,1-1.34,3.7l-1,1.85a1.31,1.31,0,0,0,.18,1.62l2.38,2.38a1.32,1.32,0,0,1,0,1.86l-4.32,4.31c-.41.41-1.07.42-1.74-.25l-2.32-2.31a1.3,1.3,0,0,0-1.61-.18l-1.85,1a21.17,21.17,0,0,1-3.7,1.34,1.32,1.32,0,0,0-1,1.28v3.36A1.32,1.32,0,0,1,61,104.59H54.9c-.58,0-1.06-.47-1.06-1.41V99.9a1.31,1.31,0,0,0-1-1.27,20.65,20.65,0,0,1-5.54-2.3,1.31,1.31,0,0,0-1.62.19L43.28,98.9a1.32,1.32,0,0,1-1.86,0l-4.13-4.13a1.43,1.43,0,0,1,.24-2.1l2.15-2.15a1.33,1.33,0,0,0,.18-1.62,20.65,20.65,0,0,1-2.3-5.54,1.32,1.32,0,0,0-1.28-1H32.92A1.32,1.32,0,0,1,31.6,81V75.19c0-.73.59-1.32,1.66-1.32h3a1.31,1.31,0,0,0,1.27-1,20.79,20.79,0,0,1,2.3-5.54,1.31,1.31,0,0,0-.19-1.62l-2.38-2.39a1.31,1.31,0,0,1,0-1.85l4.13-4.14a1.43,1.43,0,0,1,2.1.24l2.15,2.15a1.33,1.33,0,0,0,1.62.18,21,21,0,0,1,5.54-2.3,1.32,1.32,0,0,0,1-1.28V53a1.32,1.32,0,0,1,1.32-1.32H61C61.73,51.63,62.32,52.22,62.32,53.29Z"/><polygon class="cls-1" points="97.57 39.49 97.57 9.29 83.64 9.29 83.64 25.55 58.08 0 0 58.08 9.29 67.37 58.08 18.59 106.87 67.37 116.16 58.08 97.57 39.49"/><circle class="cls-1" cx="58.08" cy="78.11" r="15.24" transform="translate(-38.22 63.95) rotate(-45)"/></g></g></svg>