<svg width="48" height="53" viewBox="0 0 48 53" fill="none" xmlns="http://www.w3.org/2000/svg">
<path d="M24 0C10.745 0 0 10.7358 0 23.9829C0 31.6278 3.58616 38.4333 9.16277 42.8254C8.00561 39.6232 7.37475 36.158 7.35451 32.5817V24.0233C7.368 23.3559 7.74248 22.7593 8.30587 22.5031C8.30587 22.5031 18.2277 19.9515 23.4096 13.51C23.4096 13.51 23.6761 13.2538 23.9764 13.2403H24.0236C24.3576 13.2336 24.5904 13.51 24.5904 13.51C29.3472 19.7627 39.6941 22.5031 39.6941 22.5031C40.271 22.7661 40.6421 23.3795 40.6421 24.0638V32.4165C40.6421 36.0536 40.0079 39.5726 38.8338 42.8254C44.4138 38.4333 48 31.6278 48 23.9829C48.0034 10.7358 37.2584 0 24 0Z" fill="#C01C78"/>
<path d="M36.1349 25.5875C36.1349 25.5875 28.1361 23.5145 24.4588 18.782C24.4588 18.782 24.2766 18.573 24.0202 18.5797H23.9831C23.7503 18.5865 23.5445 18.782 23.5445 18.782C19.5367 23.6561 11.8684 25.5875 11.8684 25.5875C11.4332 25.783 11.1431 26.2347 11.133 26.737V33.2088C11.1802 41.8615 16.072 49.6311 23.5513 52.9041C23.8381 53.0322 24.1619 53.0322 24.452 52.9041C31.9651 49.6176 36.867 41.7874 36.867 33.0875V26.7673C36.867 26.2516 36.5802 25.7864 36.1349 25.5875ZM30.6629 31.5841L23.5412 38.4234C22.9812 38.9593 22.0703 38.9593 21.5069 38.4234L17.4922 34.6043C16.9322 34.0717 16.9322 33.2054 17.4922 32.6729C18.0523 32.1403 18.9632 32.1403 19.5232 32.6729L22.5223 35.5245L28.6252 29.6527C29.1852 29.1201 30.0961 29.1201 30.6595 29.6527C31.2229 30.1852 31.2229 31.0515 30.6629 31.5841Z" fill="url(#paint0_linear)"/>
<defs>
<linearGradient id="paint0_linear" x1="11.1347" y1="35.7899" x2="36.8686" y2="35.7899" gradientUnits="userSpaceOnUse">
<stop stop-color="#C01C78"/>
<stop offset="0.0461" stop-color="#C42672"/>
<stop offset="0.1659" stop-color="#CE3A64"/>
<stop offset="0.2902" stop-color="#D64757"/>
<stop offset="0.4174" stop-color="#DD5149"/>
<stop offset="0.5484" stop-color="#E2583C"/>
<stop offset="0.6848" stop-color="#E65D31"/>
<stop offset="0.8299" stop-color="#E8602B"/>
<stop offset="0.9987" stop-color="#E96029"/>
<stop offset="1" stop-color="#E96029"/>
</linearGradient>
</defs>
</svg>
