<svg width="48" height="53" viewBox="0 0 48 53" fill="none" xmlns="http://www.w3.org/2000/svg">
<path d="M17.2178 26.1894C17.2482 25.689 17.4674 23.6641 19.0597 21.3034C20.9015 18.5801 23.0436 14.772 23.7959 12.2199C23.8668 11.9781 23.9005 11.8975 23.9275 11.8707C23.9511 11.8371 23.9747 11.8136 23.9949 11.8136C24.0523 11.8136 24.0894 11.8371 24.2007 12.2199C24.953 14.772 27.0985 18.5801 28.937 21.3034C30.5292 23.6641 30.7485 25.6857 30.7788 26.1894L47.8819 26.2498C47.9595 25.4741 48 24.6883 48 23.8925C48 10.6954 37.2557 0 24.0017 0C10.7476 0 0 10.6954 0 23.8925C0 24.6883 0.0404807 25.4741 0.118069 26.2498L17.2178 26.1894Z" fill="#C01C78"/>
<path d="M45.5813 34.8093L46.8599 30.108L27.112 30.0375L26.8422 26.2731C26.5891 24.3456 25.486 23.0091 24.8114 21.132C24.1401 19.2683 24.0557 17.7034 24.0287 17.4113C24.0287 17.4113 24.022 17.4012 24.0153 17.3945C24.0119 17.3911 24.0085 17.3911 24.0018 17.3911C23.9984 17.3911 23.995 17.3911 23.9883 17.3945C23.9815 17.4012 23.9748 17.4113 23.9748 17.4113C23.9478 17.7034 23.8668 19.2683 23.1921 21.132C22.5141 23.0091 21.4144 24.3456 21.1614 26.2731L20.8915 30.0375L1.14365 30.108L2.42216 34.8093L20.9421 38.1002L22.1127 48.6948L17.1706 50.6223L17.4742 52.1637H18.2366H22.6861L22.9695 52.9998H23.1989H24.8147H25.0441L25.3275 52.1637H30.0199H30.5394L30.843 50.6223L25.901 48.6948L27.0715 38.1002L45.5813 34.8093Z" fill="url(#paint0_linear)"/>
<defs>
<linearGradient id="paint0_linear" x1="1.14257" y1="35.1955" x2="46.8582" y2="35.1955" gradientUnits="userSpaceOnUse">
<stop stop-color="#C01C78"/>
<stop offset="0.0461" stop-color="#C42672"/>
<stop offset="0.1659" stop-color="#CE3A64"/>
<stop offset="0.2902" stop-color="#D64757"/>
<stop offset="0.4174" stop-color="#DD5149"/>
<stop offset="0.5484" stop-color="#E2583C"/>
<stop offset="0.6848" stop-color="#E65D31"/>
<stop offset="0.8299" stop-color="#E8602B"/>
<stop offset="0.9987" stop-color="#E96029"/>
<stop offset="1" stop-color="#E96029"/>
</linearGradient>
</defs>
</svg>
