<svg width="21" height="21" viewBox="0 0 21 21" fill="none" xmlns="http://www.w3.org/2000/svg">
<path d="M5.64978 3.42026C4.74136 3.9247 3.9926 4.67376 3.48853 5.58238" stroke="#702B68" stroke-width="1.3125" stroke-linecap="round" stroke-linejoin="round"/>
<path d="M4.91562 1C3.98331 1.26507 3.13421 1.76401 2.44891 2.44946C1.76361 3.13491 1.26486 3.98413 1 4.9165" stroke="#702B68" stroke-width="1.3125" stroke-linecap="round" stroke-linejoin="round"/>
<path d="M3.625 15.4375H16.75" stroke="#702B68" stroke-width="1.3125" stroke-linecap="round" stroke-linejoin="round"/>
<path d="M16.75 15.4375C16.75 15.4375 15.4375 14.2948 15.4375 10.1875C15.4375 6.90626 13.1957 4.00301 10.1875 4.00301C7.17925 4.00301 4.9375 6.90626 4.9375 10.1875C4.9375 14.3166 3.625 15.4375 3.625 15.4375" stroke="#702B68" stroke-width="1.3125" stroke-linecap="round" stroke-linejoin="round"/>
<path d="M11.5 18.0625C11.5 18.4106 11.3617 18.7444 11.1156 18.9906C10.8694 19.2367 10.5356 19.375 10.1875 19.375C9.8394 19.375 9.50556 19.2367 9.25942 18.9906C9.01328 18.7444 8.875 18.4106 8.875 18.0625" stroke="#702B68" stroke-width="1.3125" stroke-linecap="round" stroke-linejoin="round"/>
<path d="M10.1875 4.003V2.3125" stroke="#702B68" stroke-width="1.3125" stroke-linecap="round" stroke-linejoin="round"/>
<path d="M14.7253 3.42026C15.1766 3.67219 15.5911 3.98486 15.9573 4.34951C16.3226 4.71553 16.6353 5.13044 16.8866 5.58238" stroke="#702B68" stroke-width="1.3125" stroke-linecap="round" stroke-linejoin="round"/>
<path d="M15.4595 1C16.3918 1.26507 17.2409 1.76401 17.9262 2.44946C18.6115 3.13491 19.1102 3.98413 19.3751 4.9165" stroke="#702B68" stroke-width="1.3125" stroke-linecap="round" stroke-linejoin="round"/>
</svg>
