<svg width="22" height="22" viewBox="0 0 22 22" fill="none" xmlns="http://www.w3.org/2000/svg">
<path d="M20.6875 9.53125C20.6875 14.9676 16.281 18.0625 10.8438 18.0625C5.4065 18.0625 1 14.9676 1 9.53125H20.6875Z" stroke="#702B68" stroke-width="1.3125" stroke-linecap="round" stroke-linejoin="round"/>
<path d="M7.16869 17.5419L6.07057 19.7381C6.02062 19.8382 5.99706 19.9493 6.00214 20.061C6.00722 20.1728 6.04076 20.2813 6.09957 20.3764C6.15839 20.4715 6.24054 20.55 6.33822 20.6045C6.4359 20.6589 6.54587 20.6875 6.65769 20.6875H15.0341C15.1459 20.6875 15.2559 20.6589 15.3535 20.6045C15.4512 20.55 15.5334 20.4715 15.5922 20.3764C15.651 20.2813 15.6845 20.1728 15.6896 20.061C15.6947 19.9493 15.6711 19.8382 15.6212 19.7381L14.5187 17.5419" stroke="#702B68" stroke-width="1.3125" stroke-linecap="round" stroke-linejoin="round"/>
<path d="M19.375 9.53125C19.375 8.83506 19.0984 8.16738 18.6062 7.6751C18.1139 7.18281 17.4462 6.90625 16.75 6.90625H14.5686C14.3058 6.01336 13.7765 5.22204 13.0516 4.63818C12.3267 4.05432 11.4408 3.70577 10.5124 3.63916C9.58396 3.57256 8.65736 3.79107 7.85654 4.26547C7.05573 4.73987 6.41889 5.44753 6.03125 6.29375C5.88657 6.26932 5.7404 6.2547 5.59375 6.25C4.72351 6.25 3.88891 6.5957 3.27356 7.21106C2.6582 7.82641 2.3125 8.66101 2.3125 9.53125" stroke="#702B68" stroke-width="1.3125" stroke-linecap="round" stroke-linejoin="round"/>
<path d="M16.0938 6.90625L20.6875 4.28125" stroke="#702B68" stroke-width="1.3125" stroke-linecap="round" stroke-linejoin="round"/>
<path d="M14.019 5.718L18.0624 1" stroke="#702B68" stroke-width="1.3125" stroke-linecap="round" stroke-linejoin="round"/>
</svg>
