<svg width="22" height="22" viewBox="0 0 22 22" fill="none" xmlns="http://www.w3.org/2000/svg">
<path fill-rule="evenodd" clip-rule="evenodd" d="M19.4057 10.3047C18.8936 9.83209 18.2152 9.58162 17.5189 9.60818C17.5105 9.6085 17.5022 9.60866 17.4939 9.60866H15.6564C15.2939 9.60866 15.0001 9.31484 15.0001 8.95241C15.0001 8.58997 15.2939 8.29616 15.6564 8.29616H17.4819C18.5207 8.25998 19.5319 8.63508 20.2959 9.3403C21.0631 10.0485 21.5184 11.0318 21.562 12.075C21.5624 12.0841 21.5626 12.0933 21.5626 12.1024V13.6774C21.5626 13.6866 21.5624 13.6957 21.562 13.7049C21.5184 14.748 21.0631 15.7313 20.2959 16.4395C19.5319 17.1447 18.5207 17.5198 17.4819 17.4837H15.6564C15.2939 17.4837 15.0001 17.1898 15.0001 16.8274C15.0001 16.465 15.2939 16.1712 15.6564 16.1712H17.4939C17.5022 16.1712 17.5105 16.1713 17.5189 16.1716C18.2152 16.1982 18.8936 15.9477 19.4057 15.4751C19.9145 15.0054 20.2178 14.3543 20.2501 13.6629V12.1169C20.2178 11.4255 19.9145 10.7744 19.4057 10.3047Z" fill="#702B68"/>
<path fill-rule="evenodd" clip-rule="evenodd" d="M15.6563 6.99242C16.0187 6.99242 16.3125 7.28623 16.3125 7.64867V19.5444C16.3154 19.7862 16.2709 20.0262 16.1816 20.251C16.0917 20.4774 15.9581 20.6839 15.7883 20.8587C15.6186 21.0335 15.4161 21.1731 15.1924 21.2696C14.9687 21.3661 14.7281 21.4176 14.4845 21.4211L14.475 21.4212L5.0155 21.4212C4.77189 21.4176 4.53136 21.3661 4.30765 21.2696C4.08394 21.1731 3.88143 21.0335 3.71169 20.8587C3.54194 20.6839 3.40829 20.4774 3.31837 20.251C3.2291 20.0262 3.18465 19.7862 3.18751 19.5444V8.69867C3.18751 8.33623 3.48132 8.04242 3.84376 8.04242C4.20619 8.04242 4.50001 8.33623 4.50001 8.69867V19.5583C4.49896 19.6296 4.51189 19.7003 4.53819 19.7665C4.56449 19.8328 4.60357 19.8931 4.65321 19.9443C4.70285 19.9954 4.76208 20.0362 4.8275 20.0644C4.89176 20.0921 4.96076 20.1072 5.0307 20.1087H14.4693C14.5392 20.1072 14.6083 20.0921 14.6725 20.0644C14.7379 20.0362 14.7972 19.9954 14.8468 19.9443C14.8964 19.8931 14.9355 19.8328 14.9618 19.7665C14.9881 19.7003 15.0011 19.6296 15.0001 19.5583L14.9999 19.5487L15 7.64867C15 7.28623 15.2938 6.99242 15.6563 6.99242Z" fill="#702B68"/>
<path fill-rule="evenodd" clip-rule="evenodd" d="M7.78137 12.8024C8.14381 12.8024 8.43762 13.0962 8.43762 13.4587V17.1162C8.43762 17.4786 8.14381 17.7724 7.78137 17.7724C7.41894 17.7724 7.12512 17.4786 7.12512 17.1162V13.4587C7.12512 13.0962 7.41894 12.8024 7.78137 12.8024Z" fill="#702B68"/>
<path fill-rule="evenodd" clip-rule="evenodd" d="M11.7189 10.9737C12.0813 10.9737 12.3751 11.2675 12.3751 11.6299V17.1162C12.3751 17.4786 12.0813 17.7724 11.7189 17.7724C11.3564 17.7724 11.0626 17.4786 11.0626 17.1162V11.6299C11.0626 11.2675 11.3564 10.9737 11.7189 10.9737Z" fill="#702B68"/>
<path fill-rule="evenodd" clip-rule="evenodd" d="M9.47554 0.349527C10.347 0.303542 11.2107 0.533 11.9445 1.00538C12.4729 1.34562 12.9146 1.79946 13.2395 2.33027C13.5417 2.20727 13.8601 2.12474 14.1862 2.08573C14.7576 2.0174 15.3371 2.08453 15.8777 2.28169C16.4183 2.47884 16.9049 2.8005 17.2982 3.22062C17.6915 3.64074 17.9803 4.14754 18.1413 4.7L17.5113 4.88365L18.1423 4.70321C18.2537 5.09297 18.3065 5.49717 18.2987 5.90248C18.2984 5.91998 18.2973 5.93746 18.2956 5.95488C18.2311 6.60261 17.926 7.20257 17.4404 7.6361C16.9561 8.06854 16.3275 8.30397 15.6784 8.29616H11.0626L11.0471 8.29598C10.8841 8.29214 10.7258 8.3508 10.6046 8.45993C10.4834 8.56906 10.4086 8.7204 10.3954 8.88294L10.395 8.88766C10.3516 9.37943 10.2022 9.85592 9.95726 10.2844C9.67583 10.8136 9.26977 11.2664 8.77411 11.6036C8.27508 11.9431 7.70044 12.1551 7.1005 12.221L7.08157 12.2228C6.59245 12.2622 6.10042 12.2014 5.63562 12.044C5.17083 11.8867 4.74305 11.6361 4.37851 11.3076C4.01396 10.9791 3.72032 10.5796 3.51557 10.1337C3.3851 9.8495 3.29248 9.55028 3.23946 9.24365C2.85494 9.13585 2.48949 8.96546 2.15818 8.73823C1.6802 8.41042 1.28696 7.9737 1.01089 7.46408C0.734823 6.95446 0.583819 6.38652 0.570327 5.80709C0.556836 5.22765 0.681244 4.6533 0.933296 4.13138C1.18535 3.60947 1.55783 3.15492 2.02004 2.80522C2.48224 2.45551 3.02094 2.22066 3.59173 2.12001C4.16252 2.01937 4.74906 2.05582 5.30299 2.22636C5.55672 2.30447 5.80028 2.40969 6.02967 2.53964C6.29189 2.04943 6.65132 1.61397 7.08937 1.26158C7.76929 0.714607 8.60413 0.395512 9.47554 0.349527ZM3.84381 8.69866L4.49988 8.68326C4.50721 8.99523 4.57814 9.30242 4.70835 9.58601C4.83856 9.86961 5.02529 10.1236 5.25712 10.3325C5.48894 10.5414 5.76097 10.7008 6.05654 10.8009C6.34913 10.8999 6.65868 10.9388 6.96662 10.9153C7.34988 10.8716 7.71684 10.7354 8.03586 10.5184C8.3575 10.2996 8.62061 10.0052 8.80214 9.66118C8.80596 9.65394 8.80992 9.64677 8.81401 9.63968C8.96723 9.37385 9.06061 9.07779 9.08761 8.77216L9.74131 8.82991L9.08721 8.77688C9.12746 8.28037 9.35609 7.81805 9.72623 7.48468C10.0943 7.1532 10.5745 6.97416 11.0695 6.98366H15.6917C16.0138 6.98814 16.3259 6.87164 16.5663 6.65706C16.8004 6.44803 16.9498 6.16084 16.9868 5.84977C16.9893 5.58476 16.9536 5.32073 16.8808 5.0658C16.7774 4.71171 16.5921 4.38689 16.34 4.11755C16.0875 3.84783 15.7751 3.64133 15.428 3.51475C15.0809 3.38817 14.7089 3.34508 14.3421 3.38895C13.9753 3.43282 13.6239 3.56243 13.3165 3.76728C13.1513 3.87734 12.9452 3.90673 12.7558 3.84722C12.5665 3.78771 12.4142 3.6457 12.3417 3.46094C12.1235 2.90516 11.736 2.43215 11.234 2.10894C10.7319 1.78574 10.1409 1.62874 9.54471 1.6602C8.94847 1.69167 8.37727 1.91 7.91206 2.28424C7.44685 2.65849 7.11123 3.16967 6.95278 3.74532C6.89119 3.96907 6.71601 4.14365 6.49205 4.20447C6.2681 4.26529 6.02867 4.20331 5.86236 4.04145C5.59606 3.78227 5.27197 3.59009 4.91681 3.48076C4.56166 3.37142 4.1856 3.34805 3.81964 3.41258C3.45368 3.4771 3.10829 3.62768 2.81195 3.85189C2.51561 4.0761 2.27679 4.36754 2.11519 4.70216C1.95359 5.03679 1.87382 5.40503 1.88247 5.77654C1.89112 6.14804 1.98794 6.51217 2.16494 6.83892C2.34194 7.16566 2.59406 7.44566 2.90052 7.65584C3.20698 7.86601 3.559 8.00035 3.92756 8.04778L3.84381 8.69866Z" fill="#702B68"/>
</svg>
