<svg width="20" height="22" viewBox="0 0 20 22" fill="none" xmlns="http://www.w3.org/2000/svg">
<path d="M5.87215 8.28654C5.91327 8.29902 5.95152 8.31952 5.98468 8.34686C6.01783 8.3742 6.04525 8.40784 6.06534 8.44583C6.08544 8.48382 6.09781 8.52541 6.10174 8.5682C6.10568 8.611 6.1011 8.65415 6.08827 8.69517C6.06259 8.77849 6.00513 8.84834 5.92833 8.88961C5.85152 8.93088 5.76155 8.94024 5.6779 8.91567C5.63687 8.90318 5.59872 8.88271 5.56563 8.85543C5.53254 8.82815 5.50517 8.7946 5.48509 8.75671C5.465 8.71882 5.45261 8.67734 5.4486 8.63464C5.4446 8.59194 5.44908 8.54888 5.46177 8.50792C5.48746 8.42459 5.54492 8.35474 5.62172 8.31347C5.69853 8.2722 5.78849 8.26197 5.87215 8.28654Z" fill="#702B68"/>
<path d="M7.18465 10.2579C7.22577 10.2704 7.26402 10.2909 7.29718 10.3182C7.33034 10.3456 7.35775 10.3792 7.37784 10.4172C7.39794 10.4552 7.41031 10.4968 7.41424 10.5396C7.41818 10.5824 7.4136 10.6255 7.40077 10.6665C7.37509 10.7499 7.31763 10.8197 7.24082 10.861C7.16402 10.9023 7.07405 10.9116 6.9904 10.887C6.94928 10.8746 6.91103 10.8541 6.87787 10.8267C6.84471 10.7994 6.8173 10.7657 6.7972 10.7278C6.77711 10.6898 6.76474 10.6482 6.7608 10.6054C6.75687 10.5626 6.76145 10.5194 6.77427 10.4784C6.79996 10.3951 6.85742 10.3252 6.93422 10.284C7.01103 10.2427 7.10099 10.2333 7.18465 10.2579Z" fill="#702B68"/>
<path d="M5.2159 12.224C5.25702 12.2365 5.29527 12.257 5.32843 12.2844C5.36158 12.3117 5.389 12.3453 5.40909 12.3833C5.42919 12.4213 5.44156 12.4629 5.44549 12.5057C5.44943 12.5485 5.44485 12.5917 5.43202 12.6327C5.40634 12.716 5.34888 12.7858 5.27208 12.8271C5.19527 12.8684 5.1053 12.8777 5.02165 12.8532C4.98053 12.8407 4.94228 12.8202 4.90912 12.7928C4.87596 12.7655 4.84855 12.7319 4.82845 12.6939C4.80836 12.6559 4.79599 12.6143 4.79205 12.5715C4.78812 12.5287 4.7927 12.4856 4.80552 12.4445C4.83121 12.3612 4.88867 12.2914 4.96547 12.2501C5.04228 12.2088 5.13224 12.1995 5.2159 12.224Z" fill="#702B68"/>
<path d="M13.7472 12.224C13.7883 12.2365 13.8265 12.257 13.8597 12.2844C13.8928 12.3117 13.9203 12.3453 13.9403 12.3833C13.9604 12.4213 13.9728 12.4629 13.9767 12.5057C13.9807 12.5485 13.9761 12.5917 13.9633 12.6327C13.9376 12.716 13.8801 12.7858 13.8033 12.8271C13.7265 12.8684 13.6366 12.8777 13.5529 12.8532C13.5118 12.8407 13.4735 12.8202 13.4404 12.7928C13.4072 12.7655 13.3798 12.7319 13.3597 12.6939C13.3396 12.6559 13.3272 12.6143 13.3233 12.5715C13.3194 12.5287 13.3239 12.4856 13.3368 12.4445C13.3625 12.3612 13.4199 12.2914 13.4967 12.2501C13.5735 12.2088 13.6635 12.1995 13.7472 12.224Z" fill="#702B68"/>
<path d="M15.0596 10.2579C15.1008 10.2704 15.139 10.2909 15.1722 10.3182C15.2053 10.3456 15.2328 10.3792 15.2528 10.4172C15.2729 10.4552 15.2853 10.4968 15.2892 10.5396C15.2932 10.5824 15.2886 10.6255 15.2758 10.6665C15.2501 10.7499 15.1926 10.8197 15.1158 10.861C15.039 10.9023 14.9491 10.9116 14.8654 10.887C14.8243 10.8746 14.786 10.8541 14.7529 10.8267C14.7197 10.7994 14.6923 10.7657 14.6722 10.7278C14.6521 10.6898 14.6397 10.6482 14.6358 10.6054C14.6319 10.5626 14.6364 10.5194 14.6493 10.4784C14.675 10.3951 14.7324 10.3252 14.8092 10.284C14.886 10.2427 14.976 10.2333 15.0596 10.2579Z" fill="#702B68"/>
<path d="M13.0909 8.28654C13.132 8.29902 13.1703 8.31953 13.2034 8.34686C13.2366 8.3742 13.264 8.40784 13.2841 8.44583C13.3042 8.48382 13.3166 8.52541 13.3205 8.5682C13.3244 8.611 13.3199 8.65415 13.307 8.69517C13.2813 8.77849 13.2239 8.84834 13.1471 8.88961C13.0703 8.93088 12.9803 8.94024 12.8967 8.91567C12.8555 8.90318 12.8173 8.88268 12.7841 8.85534C12.751 8.82801 12.7235 8.79437 12.7035 8.75638C12.6834 8.71839 12.671 8.6768 12.6671 8.634C12.6631 8.59121 12.6677 8.54806 12.6805 8.50704C12.7062 8.42372 12.7637 8.35387 12.8405 8.3126C12.9173 8.27133 13.0072 8.26197 13.0909 8.28654Z" fill="#702B68"/>
<path d="M0.853149 19.2293L5.6849 20.7028M3.26902 19.966L4.74602 15.1229M4.74602 15.1229C4.75747 15.1265 4.7689 15.1302 4.78039 15.1337M4.74602 15.1229C4.19399 14.9483 3.69538 14.6401 3.29364 14.2275M4.74602 15.1229L4.78039 15.1337M4.78039 15.1337C5.45399 15.3391 6.17389 15.3366 6.84602 15.1264C7.48089 14.9262 8.04896 14.5563 8.4888 14.0566C8.92863 13.557 9.2235 12.9466 9.34152 12.2914M4.78039 15.1337C4.21467 14.9612 3.7037 14.6487 3.29364 14.2275M11.2105 2.90092C11.2427 2.74637 11.2163 2.58536 11.1365 2.4492C11.0566 2.31303 10.9289 2.21144 10.7783 2.16417L7.03765 1.02667C6.88692 0.981559 6.72481 0.993994 6.58272 1.06156C6.44063 1.12913 6.32867 1.24703 6.26852 1.39242L2.58127 10.2299C2.31331 10.8394 2.21722 11.5105 2.30344 12.1706C2.38966 12.8308 2.65489 13.4547 3.0704 13.9749C3.14093 14.0629 3.21545 14.1472 3.29364 14.2275M11.2105 2.90092L9.34152 12.2914M11.2105 2.90092L10.3303 7.32404M9.34152 12.2914L10.3303 7.32404M4.53165 5.55567L10.3303 7.32404M14.4332 20.7413L19.2719 19.2914M16.8525 20.0168L15.3992 15.1658M12.7418 1.18854L13.2449 1.03804C13.3964 0.99391 13.5588 1.00772 13.7007 1.07678C13.8425 1.14585 13.9536 1.26522 14.0123 1.41167L17.6567 10.264C17.9215 10.8747 18.0143 11.5462 17.925 12.2059C17.8357 12.8655 17.5677 13.4881 17.15 14.0064C16.707 14.5541 16.1092 14.9555 15.4346 15.1584C14.76 15.3613 14.0399 15.3563 13.3683 15.1439C12.5179 14.8734 11.7972 14.2985 11.3444 13.5295M13.3919 6.28017L15.729 5.58017M5.87215 8.28654C5.91327 8.29902 5.95152 8.31952 5.98468 8.34686C6.01783 8.3742 6.04525 8.40784 6.06534 8.44583C6.08544 8.48382 6.09781 8.52541 6.10174 8.5682C6.10568 8.611 6.1011 8.65415 6.08827 8.69517C6.06259 8.77849 6.00513 8.84834 5.92833 8.88961C5.85152 8.93088 5.76155 8.94024 5.6779 8.91567C5.63687 8.90318 5.59872 8.88271 5.56563 8.85543C5.53254 8.82815 5.50517 8.7946 5.48509 8.75671C5.465 8.71882 5.45261 8.67734 5.4486 8.63464C5.4446 8.59194 5.44908 8.54888 5.46177 8.50792C5.48746 8.42459 5.54492 8.35474 5.62172 8.31347C5.69853 8.2722 5.78849 8.26197 5.87215 8.28654ZM13.0909 8.28654C13.132 8.29902 13.1703 8.31953 13.2034 8.34686C13.2366 8.3742 13.264 8.40784 13.2841 8.44583C13.3042 8.48382 13.3166 8.52541 13.3205 8.5682C13.3244 8.611 13.3199 8.65415 13.307 8.69517C13.2813 8.77849 13.2239 8.84834 13.1471 8.88961C13.0703 8.93088 12.9803 8.94024 12.8967 8.91567C12.8555 8.90318 12.8173 8.88268 12.7841 8.85534C12.751 8.82801 12.7235 8.79437 12.7035 8.75638C12.6834 8.71839 12.671 8.6768 12.6671 8.634C12.6631 8.59121 12.6677 8.54806 12.6805 8.50704C12.7062 8.42372 12.7637 8.35387 12.8405 8.3126C12.9173 8.27133 13.0072 8.26197 13.0909 8.28654ZM15.0596 10.2579C15.1008 10.2704 15.139 10.2909 15.1722 10.3182C15.2053 10.3456 15.2328 10.3792 15.2528 10.4172C15.2729 10.4552 15.2853 10.4968 15.2892 10.5396C15.2932 10.5824 15.2886 10.6255 15.2758 10.6665C15.2501 10.7499 15.1926 10.8197 15.1158 10.861C15.039 10.9023 14.9491 10.9116 14.8654 10.887C14.8243 10.8746 14.786 10.8541 14.7529 10.8267C14.7197 10.7994 14.6923 10.7657 14.6722 10.7278C14.6521 10.6898 14.6397 10.6482 14.6358 10.6054C14.6319 10.5626 14.6364 10.5194 14.6493 10.4784C14.675 10.3951 14.7324 10.3252 14.8092 10.284C14.886 10.2427 14.976 10.2333 15.0596 10.2579ZM13.7472 12.224C13.7883 12.2365 13.8265 12.257 13.8597 12.2844C13.8928 12.3117 13.9203 12.3453 13.9403 12.3833C13.9604 12.4213 13.9728 12.4629 13.9767 12.5057C13.9807 12.5485 13.9761 12.5916 13.9633 12.6327C13.9376 12.716 13.8801 12.7858 13.8033 12.8271C13.7265 12.8684 13.6366 12.8777 13.5529 12.8532C13.5118 12.8407 13.4735 12.8202 13.4404 12.7928C13.4072 12.7655 13.3798 12.7319 13.3597 12.6939C13.3396 12.6559 13.3272 12.6143 13.3233 12.5715C13.3194 12.5287 13.3239 12.4856 13.3368 12.4445C13.3625 12.3612 13.4199 12.2914 13.4967 12.2501C13.5735 12.2088 13.6635 12.1995 13.7472 12.224ZM7.18465 10.2579C7.22577 10.2704 7.26402 10.2909 7.29718 10.3182C7.33034 10.3456 7.35775 10.3792 7.37784 10.4172C7.39794 10.4552 7.41031 10.4968 7.41424 10.5396C7.41818 10.5824 7.4136 10.6255 7.40077 10.6665C7.37509 10.7499 7.31763 10.8197 7.24082 10.861C7.16402 10.9023 7.07405 10.9116 6.9904 10.887C6.94928 10.8746 6.91103 10.8541 6.87787 10.8267C6.84471 10.7994 6.8173 10.7657 6.7972 10.7278C6.77711 10.6898 6.76474 10.6482 6.7608 10.6054C6.75687 10.5626 6.76145 10.5194 6.77427 10.4784C6.79996 10.3951 6.85742 10.3252 6.93422 10.284C7.01103 10.2427 7.10099 10.2333 7.18465 10.2579ZM5.2159 12.224C5.25702 12.2365 5.29527 12.257 5.32843 12.2844C5.36158 12.3117 5.389 12.3453 5.40909 12.3833C5.42919 12.4213 5.44156 12.4629 5.44549 12.5057C5.44943 12.5485 5.44485 12.5916 5.43202 12.6327C5.40634 12.716 5.34888 12.7858 5.27208 12.8271C5.19527 12.8684 5.1053 12.8777 5.02165 12.8532C4.98053 12.8407 4.94228 12.8202 4.90912 12.7928C4.87596 12.7655 4.84855 12.7319 4.82845 12.6939C4.80836 12.6559 4.79599 12.6143 4.79205 12.5715C4.78812 12.5287 4.7927 12.4856 4.80552 12.4445C4.83121 12.3612 4.88867 12.2914 4.96547 12.2501C5.04228 12.2088 5.13224 12.1995 5.2159 12.224Z" stroke="#702B68" stroke-width="1.3125" stroke-linecap="round" stroke-linejoin="round"/>
</svg>
