<svg width="21" height="12" viewBox="0 0 21 12" fill="none" xmlns="http://www.w3.org/2000/svg">
<path fill-rule="evenodd" clip-rule="evenodd" d="M6.5625 5.90625C6.5625 5.54381 6.85631 5.25 7.21875 5.25H13.7812C14.1437 5.25 14.4375 5.54381 14.4375 5.90625C14.4375 6.26869 14.1437 6.5625 13.7812 6.5625H7.21875C6.85631 6.5625 6.5625 6.26869 6.5625 5.90625Z" fill="#702B68"/>
<path fill-rule="evenodd" clip-rule="evenodd" d="M5.90625 1.3125C5.7322 1.3125 5.56528 1.38164 5.44221 1.50471C5.31914 1.62778 5.25 1.7947 5.25 1.96875V9.84375C5.25 10.0178 5.31914 10.1847 5.44221 10.3078C5.56528 10.4309 5.7322 10.5 5.90625 10.5C6.0803 10.5 6.24722 10.4309 6.37029 10.3078C6.49336 10.1847 6.5625 10.0178 6.5625 9.84375V1.96875C6.5625 1.7947 6.49336 1.62778 6.37029 1.50471C6.24722 1.38164 6.0803 1.3125 5.90625 1.3125ZM4.51413 0.576633C4.88335 0.207421 5.38411 0 5.90625 0C6.42839 0 6.92915 0.207421 7.29837 0.576633C7.66758 0.945846 7.875 1.44661 7.875 1.96875V9.84375C7.875 10.3659 7.66758 10.8667 7.29837 11.2359C6.92915 11.6051 6.4284 11.8125 5.90625 11.8125C5.3841 11.8125 4.88335 11.6051 4.51413 11.2359C4.14492 10.8667 3.9375 10.3659 3.9375 9.84375V1.96875C3.9375 1.44661 4.14492 0.945846 4.51413 0.576633Z" fill="#702B68"/>
<path fill-rule="evenodd" clip-rule="evenodd" d="M0 5.90625C0 5.54381 0.293813 5.25 0.65625 5.25H1.96875C2.33119 5.25 2.625 5.54381 2.625 5.90625C2.625 6.26869 2.33119 6.5625 1.96875 6.5625H0.65625C0.293813 6.5625 0 6.26869 0 5.90625Z" fill="#702B68"/>
<path fill-rule="evenodd" clip-rule="evenodd" d="M1.88913 3.20163C2.25835 2.83242 2.75911 2.625 3.28125 2.625C3.80339 2.625 4.30415 2.83242 4.67337 3.20163C5.04258 3.57085 5.25 4.07161 5.25 4.59375V7.21875C5.25 7.74089 5.04258 8.24165 4.67337 8.61087C4.30415 8.98008 3.80339 9.1875 3.28125 9.1875C2.75911 9.1875 2.25835 8.98008 1.88913 8.61087C1.51992 8.24165 1.3125 7.74089 1.3125 7.21875V4.59375C1.3125 4.07161 1.51992 3.57085 1.88913 3.20163ZM3.28125 3.9375C3.1072 3.9375 2.94028 4.00664 2.81721 4.12971C2.69414 4.25278 2.625 4.4197 2.625 4.59375V7.21875C2.625 7.3928 2.69414 7.55972 2.81721 7.68279C2.94028 7.80586 3.1072 7.875 3.28125 7.875C3.4553 7.875 3.62222 7.80586 3.74529 7.68279C3.86836 7.55972 3.9375 7.3928 3.9375 7.21875V4.59375C3.9375 4.4197 3.86836 4.25278 3.74529 4.12971C3.62222 4.00664 3.4553 3.9375 3.28125 3.9375Z" fill="#702B68"/>
<path fill-rule="evenodd" clip-rule="evenodd" d="M13.7016 0.576633C14.0708 0.207421 14.5716 0 15.0938 0C15.6159 0 16.1167 0.207421 16.4859 0.576633C16.8551 0.945845 17.0625 1.4466 17.0625 1.96875V9.84375C17.0625 10.3659 16.8551 10.8667 16.4859 11.2359C16.1167 11.6051 15.6159 11.8125 15.0938 11.8125C14.5716 11.8125 14.0708 11.6051 13.7016 11.2359C13.3324 10.8667 13.125 10.3659 13.125 9.84375V1.96875C13.125 1.4466 13.3324 0.945845 13.7016 0.576633ZM15.0938 1.3125C14.9197 1.3125 14.7528 1.38164 14.6297 1.50471C14.5066 1.62778 14.4375 1.7947 14.4375 1.96875V9.84375C14.4375 10.0178 14.5066 10.1847 14.6297 10.3078C14.7528 10.4309 14.9197 10.5 15.0938 10.5C15.2678 10.5 15.4347 10.4309 15.5578 10.3078C15.6809 10.1847 15.75 10.0178 15.75 9.84375V1.96875C15.75 1.7947 15.6809 1.62778 15.5578 1.50471C15.4347 1.38164 15.2678 1.3125 15.0938 1.3125Z" fill="#702B68"/>
<path fill-rule="evenodd" clip-rule="evenodd" d="M18.375 5.90625C18.375 5.54381 18.6688 5.25 19.0312 5.25H20.3438C20.7062 5.25 21 5.54381 21 5.90625C21 6.26869 20.7062 6.5625 20.3438 6.5625H19.0312C18.6688 6.5625 18.375 6.26869 18.375 5.90625Z" fill="#702B68"/>
<path fill-rule="evenodd" clip-rule="evenodd" d="M17.7188 3.9375C17.5447 3.9375 17.3778 4.00664 17.2547 4.12971C17.1316 4.25278 17.0625 4.4197 17.0625 4.59375V7.21875C17.0625 7.3928 17.1316 7.55972 17.2547 7.68279C17.3778 7.80586 17.5447 7.875 17.7188 7.875C17.8928 7.875 18.0597 7.80586 18.1828 7.68279C18.3059 7.55972 18.375 7.3928 18.375 7.21875V4.59375C18.375 4.4197 18.3059 4.25278 18.1828 4.12971C18.0597 4.00664 17.8928 3.9375 17.7188 3.9375ZM16.3266 3.20163C16.6958 2.83242 17.1966 2.625 17.7188 2.625C18.2409 2.625 18.7417 2.83242 19.1109 3.20163C19.4801 3.57085 19.6875 4.0716 19.6875 4.59375V7.21875C19.6875 7.7409 19.4801 8.24165 19.1109 8.61087C18.7417 8.98008 18.2409 9.1875 17.7188 9.1875C17.1966 9.1875 16.6958 8.98008 16.3266 8.61087C15.9574 8.24165 15.75 7.7409 15.75 7.21875V4.59375C15.75 4.0716 15.9574 3.57085 16.3266 3.20163Z" fill="#702B68"/>
</svg>
