<svg width="24" height="24" viewBox="0 0 24 24" fill="none" xmlns="http://www.w3.org/2000/svg">
<path d="M21.75 3.75H2.25C1.42157 3.75 0.75 4.42157 0.75 5.25V21.75C0.75 22.5784 1.42157 23.25 2.25 23.25H21.75C22.5784 23.25 23.25 22.5784 23.25 21.75V5.25C23.25 4.42157 22.5784 3.75 21.75 3.75Z" stroke="#3E7E74" stroke-width="1.5" stroke-linecap="round" stroke-linejoin="round"/>
<path d="M0.75 9.75H23.25" stroke="#3E7E74" stroke-width="1.5" stroke-linecap="round" stroke-linejoin="round"/>
<path d="M6.75 6V0.75" stroke="#3E7E74" stroke-width="1.5" stroke-linecap="round" stroke-linejoin="round"/>
<path d="M17.25 6V0.75" stroke="#3E7E74" stroke-width="1.5" stroke-linecap="round" stroke-linejoin="round"/>
<path d="M9.573 14.662C9.36589 14.662 9.198 14.4941 9.198 14.287C9.198 14.0799 9.36589 13.912 9.573 13.912" stroke="#3E7E74" stroke-width="1.5"/>
<path d="M9.573 14.662C9.7801 14.662 9.948 14.4941 9.948 14.287C9.948 14.0799 9.7801 13.912 9.573 13.912" stroke="#3E7E74" stroke-width="1.5"/>
<path d="M14.427 14.662C14.2199 14.662 14.052 14.4941 14.052 14.287C14.052 14.0799 14.2199 13.912 14.427 13.912" stroke="#3E7E74" stroke-width="1.5"/>
<path d="M14.427 14.662C14.6341 14.662 14.802 14.4941 14.802 14.287C14.802 14.0799 14.6341 13.912 14.427 13.912" stroke="#3E7E74" stroke-width="1.5"/>
<path d="M19.281 14.662C19.0739 14.662 18.906 14.4941 18.906 14.287C18.906 14.0799 19.0739 13.912 19.281 13.912" stroke="#3E7E74" stroke-width="1.5"/>
<path d="M19.281 14.662C19.4881 14.662 19.656 14.4941 19.656 14.287C19.656 14.0799 19.4881 13.912 19.281 13.912" stroke="#3E7E74" stroke-width="1.5"/>
<path d="M4.71899 19.162C4.51189 19.162 4.34399 18.9941 4.34399 18.787C4.34399 18.5799 4.51189 18.412 4.71899 18.412" stroke="#3E7E74" stroke-width="1.5"/>
<path d="M4.71899 19.162C4.9261 19.162 5.09399 18.9941 5.09399 18.787C5.09399 18.5799 4.9261 18.412 4.71899 18.412" stroke="#3E7E74" stroke-width="1.5"/>
<path d="M9.573 19.162C9.36589 19.162 9.198 18.9941 9.198 18.787C9.198 18.5799 9.36589 18.412 9.573 18.412" stroke="#3E7E74" stroke-width="1.5"/>
<path d="M9.573 19.162C9.7801 19.162 9.948 18.9941 9.948 18.787C9.948 18.5799 9.7801 18.412 9.573 18.412" stroke="#3E7E74" stroke-width="1.5"/>
<path d="M14.427 19.162C14.2199 19.162 14.052 18.9941 14.052 18.787C14.052 18.5799 14.2199 18.412 14.427 18.412" stroke="#3E7E74" stroke-width="1.5"/>
<path d="M14.427 19.162C14.6341 19.162 14.802 18.9941 14.802 18.787C14.802 18.5799 14.6341 18.412 14.427 18.412" stroke="#3E7E74" stroke-width="1.5"/>
</svg>
