<svg width="22" height="21" viewBox="0 0 22 21" fill="none" xmlns="http://www.w3.org/2000/svg">
<path fill-rule="evenodd" clip-rule="evenodd" d="M0.663208 5.34888C1.02564 5.34888 1.31946 5.64269 1.31946 6.00513V19.677H19.6945V6.00513C19.6945 5.64269 19.9883 5.34888 20.3507 5.34888C20.7131 5.34888 21.007 5.64269 21.007 6.00513V20.3333C21.007 20.6957 20.7131 20.9895 20.3507 20.9895H0.663208C0.300771 20.9895 0.00695801 20.6957 0.00695801 20.3333V6.00513C0.00695801 5.64269 0.300771 5.34888 0.663208 5.34888Z" fill="#3E7E74"/>
<path fill-rule="evenodd" clip-rule="evenodd" d="M17.4528 8.09026C17.8152 8.09026 18.109 8.38407 18.109 8.74651V14.0691C18.109 14.4316 17.8152 14.7254 17.4528 14.7254H3.56213C3.1997 14.7254 2.90588 14.4316 2.90588 14.0691V8.76488C2.90588 8.40244 3.1997 8.10863 3.56213 8.10863C3.92457 8.10863 4.21838 8.40244 4.21838 8.76488V13.4129H16.7965V8.74651C16.7965 8.38407 17.0903 8.09026 17.4528 8.09026Z" fill="#3E7E74"/>
<path fill-rule="evenodd" clip-rule="evenodd" d="M8.51089 0.03061C8.86512 0.10731 9.0901 0.456646 9.0134 0.810874L7.86015 6.137C7.78345 6.49123 7.43412 6.71621 7.07989 6.63951C6.72566 6.56281 6.50068 6.21347 6.57738 5.85924L7.73063 0.533119C7.80733 0.178891 8.15666 -0.0460899 8.51089 0.03061Z" fill="#3E7E74"/>
<path fill-rule="evenodd" clip-rule="evenodd" d="M3.059 1.3125C3.01127 1.31254 2.96465 1.32687 2.92514 1.35365C2.88942 1.37786 2.861 1.41125 2.84279 1.45019L1.31454 6.09705C1.3416 6.74536 1.63529 7.21599 2.07494 7.54514C2.55532 7.90479 3.2298 8.10525 3.93759 8.10534C4.64538 8.10544 5.31979 7.90515 5.80009 7.54561C6.26168 7.20007 6.5625 6.69831 6.5625 5.99813C6.5625 5.63569 6.85631 5.34188 7.21875 5.34188C7.58119 5.34188 7.875 5.63569 7.875 5.99813C7.875 6.69778 8.17573 7.19948 8.63744 7.54514C9.11782 7.90479 9.7923 8.10525 10.5001 8.10534C11.2079 8.10544 11.8823 7.90515 12.3626 7.54561C12.8242 7.20007 13.125 6.69831 13.125 5.99813C13.125 5.63569 13.4188 5.34188 13.7812 5.34188C14.1437 5.34188 14.4375 5.63569 14.4375 5.99813C14.4375 6.69699 14.7384 7.19906 15.2011 7.54553C15.6824 7.90593 16.3581 8.10724 17.0669 8.10819C17.7757 8.10913 18.451 7.90961 18.9317 7.55075C19.3717 7.22232 19.6656 6.75218 19.6925 6.10348L18.1712 1.44938C18.1529 1.41073 18.1246 1.37761 18.0891 1.35355C18.0495 1.32679 18.0029 1.31249 17.9551 1.3125H3.059C3.05904 1.3125 3.05896 1.3125 3.059 1.3125ZM3.05887 9.54901e-09C2.74861 6.19984e-05 2.44549 0.0931524 2.18867 0.267246C1.93186 0.44134 1.73314 0.688439 1.6182 0.976623C1.61319 0.989179 1.60857 1.00189 1.60435 1.01473L0.0328483 5.7931C0.0110882 5.85927 0 5.92847 0 5.99813C0 7.14035 0.519578 8.02027 1.28834 8.59582C2.03843 9.15739 3.00457 9.41772 3.93741 9.41784C4.87025 9.41797 5.83646 9.15789 6.58663 8.59633C6.82376 8.41882 7.03718 8.21234 7.21894 7.97813C7.40063 8.21212 7.6139 8.41842 7.85084 8.59582C8.60093 9.15739 9.56707 9.41772 10.4999 9.41784C11.4327 9.41797 12.399 9.15789 13.1491 8.59633C13.3864 8.41872 13.5999 8.21211 13.7817 7.97774C13.9637 8.21198 14.1772 8.41852 14.4144 8.59614C15.1649 9.1581 16.1316 9.41944 17.0651 9.42069C17.9986 9.42193 18.9658 9.16317 19.7168 8.60252C20.4867 8.0278 21.007 7.14804 21.007 6.00513C21.007 5.93587 20.996 5.86706 20.9745 5.80123L19.41 1.01498C19.4056 1.00154 19.4008 0.988239 19.3955 0.975107C19.2804 0.687206 19.0815 0.440429 18.8247 0.266618C18.568 0.0928317 18.265 -3.43823e-05 17.955 9.54901e-09C17.955 9.54901e-09 17.955 9.54901e-09 17.955 9.54901e-09H3.05887C3.05883 9.54901e-09 3.05891 9.54901e-09 3.05887 9.54901e-09Z" fill="#3E7E74"/>
<path fill-rule="evenodd" clip-rule="evenodd" d="M12.5047 0.0302616C12.8591 -0.0455483 13.2079 0.18031 13.2837 0.534729L14.423 5.86085C14.4988 6.21527 14.2729 6.56404 13.9185 6.63985C13.5641 6.71566 13.2153 6.48981 13.1395 6.13539L12.0002 0.809261C11.9244 0.454841 12.1503 0.106071 12.5047 0.0302616Z" fill="#3E7E74"/>
<path fill-rule="evenodd" clip-rule="evenodd" d="M4.88684 13.7576C5.24928 13.7576 5.54309 14.0514 5.54309 14.4139V20.167C5.54309 20.5294 5.24928 20.8233 4.88684 20.8233C4.5244 20.8233 4.23059 20.5294 4.23059 20.167V14.4139C4.23059 14.0514 4.5244 13.7576 4.88684 13.7576Z" fill="#3E7E74"/>
<path fill-rule="evenodd" clip-rule="evenodd" d="M16.1271 13.7576C16.4895 13.7576 16.7833 14.0514 16.7833 14.4139V20.167C16.7833 20.5294 16.4895 20.8233 16.1271 20.8233C15.7646 20.8233 15.4708 20.5294 15.4708 20.167V14.4139C15.4708 14.0514 15.7646 13.7576 16.1271 13.7576Z" fill="#3E7E74"/>
<path fill-rule="evenodd" clip-rule="evenodd" d="M10.507 13.7576C10.8694 13.7576 11.1632 14.0514 11.1632 14.4139V20.167C11.1632 20.5294 10.8694 20.8233 10.507 20.8233C10.1445 20.8233 9.85071 20.5294 9.85071 20.167V14.4139C9.85071 14.0514 10.1445 13.7576 10.507 13.7576Z" fill="#3E7E74"/>
<path fill-rule="evenodd" clip-rule="evenodd" d="M0.216064 5.34187C0.216064 4.97944 0.509878 4.68562 0.872314 4.68562H20.1337C20.4961 4.68562 20.7899 4.97944 20.7899 5.34187C20.7899 5.70431 20.4961 5.99812 20.1337 5.99812H0.872314C0.509878 5.99812 0.216064 5.70431 0.216064 5.34187Z" fill="#3E7E74"/>
</svg>
