<svg width="24" height="24" viewBox="0 0 24 24" fill="none" xmlns="http://www.w3.org/2000/svg">
<path d="M1.125 3.56299C1.125 3.90771 1.1929 4.24905 1.32482 4.56753C1.45673 4.88601 1.65009 5.17539 1.89384 5.41914C2.1376 5.6629 2.42698 5.85625 2.74546 5.98817C3.06394 6.12009 3.40528 6.18799 3.75 6.18799C4.09472 6.18799 4.43606 6.12009 4.75454 5.98817C5.07302 5.85625 5.3624 5.6629 5.60616 5.41914C5.84991 5.17539 6.04327 4.88601 6.17518 4.56753C6.3071 4.24905 6.375 3.90771 6.375 3.56299C6.375 3.21827 6.3071 2.87692 6.17518 2.55844C6.04327 2.23996 5.84991 1.95059 5.60616 1.70683C5.3624 1.46308 5.07302 1.26972 4.75454 1.1378C4.43606 1.00589 4.09472 0.937988 3.75 0.937988C3.40528 0.937988 3.06394 1.00589 2.74546 1.1378C2.42698 1.26972 2.1376 1.46308 1.89384 1.70683C1.65009 1.95059 1.45673 2.23996 1.32482 2.55844C1.1929 2.87692 1.125 3.21827 1.125 3.56299V3.56299Z" stroke="#3E7E74" stroke-width="1.5" stroke-linecap="round" stroke-linejoin="round"/>
<path d="M8.25 23.063C7.85218 23.063 7.47064 22.905 7.18934 22.6236C6.90804 22.3423 6.75 21.9608 6.75 21.563V18.563H3.75C2.95435 18.563 2.19129 18.2469 1.62868 17.6843C1.06607 17.1217 0.75 16.3586 0.75 15.563V9.56299C0.75 9.28442 0.827572 9.01136 0.974024 8.77439C1.12048 8.53743 1.33002 8.34593 1.57918 8.22135C1.82834 8.09677 2.10727 8.04403 2.38471 8.06905C2.66215 8.09407 2.92715 8.19585 3.15 8.36299C3.175 8.37999 5.802 10.313 8.25 10.313C8.64782 10.313 9.02936 10.471 9.31066 10.7523C9.59196 11.0336 9.75 11.4152 9.75 11.813C9.75 12.2108 9.59196 12.5923 9.31066 12.8736C9.02936 13.155 8.64782 13.313 8.25 13.313C6.68498 13.262 5.14966 12.872 3.75 12.17V15.563H6.75C7.54565 15.563 8.30871 15.8791 8.87132 16.4417C9.43393 17.0043 9.75 17.7673 9.75 18.563V21.563C9.75 21.9608 9.59196 22.3423 9.31066 22.6236C9.02936 22.905 8.64782 23.063 8.25 23.063Z" stroke="#3E7E74" stroke-width="1.5" stroke-linecap="round" stroke-linejoin="round"/>
<path d="M3.75 21.563H0.75" stroke="#3E7E74" stroke-width="1.5" stroke-linecap="round" stroke-linejoin="round"/>
<path d="M23.25 12.563H14.25C13.8522 12.563 13.4706 12.721 13.1893 13.0023C12.908 13.2836 12.75 13.6652 12.75 14.063C12.75 14.4608 12.908 14.8423 13.1893 15.1236C13.4706 15.405 13.8522 15.563 14.25 15.563H23.25" stroke="#3E7E74" stroke-width="1.5" stroke-linecap="round" stroke-linejoin="round"/>
<path d="M20.25 15.563V23.063" stroke="#3E7E74" stroke-width="1.5" stroke-linecap="round" stroke-linejoin="round"/>
<path d="M19.5 8.06299H15L15.75 12.563H18.75L19.5 8.06299Z" stroke="#3E7E74" stroke-width="1.5" stroke-linecap="round" stroke-linejoin="round"/>
</svg>
