<svg width="28" height="27" viewBox="0 0 28 27" fill="none" xmlns="http://www.w3.org/2000/svg">
<path d="M20.2105 1C20.1946 1.00037 20.1787 1.00158 20.1629 1.00357C20.0477 1.01761 19.9419 1.07385 19.8658 1.16144C19.7897 1.24903 19.7487 1.36172 19.7509 1.47773V2.44823C19.3204 2.50333 18.8613 2.63743 18.4463 2.89682C17.8763 3.25306 17.4044 3.89868 17.4044 4.75806C17.4042 4.81992 17.4162 4.88123 17.4398 4.93843C17.4633 4.99562 17.498 5.04764 17.5417 5.09138C17.5855 5.13512 17.6375 5.16973 17.6947 5.1933C17.7519 5.21686 17.8131 5.22889 17.875 5.22865H22.5607C22.6225 5.22889 22.6838 5.21686 22.741 5.1933C22.7982 5.16973 22.8502 5.13507 22.894 5.09133C22.9377 5.04758 22.9724 4.99562 22.9959 4.93843C23.0195 4.88123 23.0315 4.81992 23.0313 4.75806C23.0313 3.89868 22.5594 3.25306 21.9894 2.89682C21.5744 2.63743 21.1153 2.50336 20.6848 2.44823V1.47773C20.6859 1.41502 20.6744 1.35274 20.651 1.29455C20.6276 1.23637 20.5927 1.18348 20.5485 1.13901C20.5043 1.09453 20.4516 1.05937 20.3935 1.03563C20.3355 1.01189 20.2732 1.00002 20.2105 1.00076L20.2105 1ZM1.9375 1.47698C1.42624 1.47698 1 1.90323 1 2.41449V25.8511C1 26.3624 1.42624 26.7886 1.9375 26.7886H10.8438C11.0145 26.7886 11.1743 26.7383 11.3134 26.6559C11.4523 26.7381 11.6118 26.7886 11.7822 26.7886H26.3116C26.8229 26.7886 27.2491 26.3624 27.2491 25.8511V12.7261C27.2491 12.2148 26.8229 11.7886 26.3116 11.7886H18.4207C18.3926 11.7837 18.3641 11.7813 18.3355 11.7815C18.3122 11.7821 18.2889 11.7845 18.2659 11.7886H11.7822V2.41449C11.7822 1.90323 11.355 1.47698 10.8438 1.47698H1.9375ZM1.9375 2.41449H10.8438V8.50822H1.9375V2.41449ZM20.0595 3.36298C20.1613 3.3993 20.2726 3.3993 20.3744 3.36298C20.7396 3.38707 21.1699 3.4909 21.4913 3.69165C21.6979 3.8208 21.7261 4.08811 21.8301 4.29044H18.6056C18.7095 4.08811 18.7378 3.82075 18.9443 3.69165C19.2652 3.4911 19.6946 3.38736 20.0595 3.36298ZM9.42835 3.81254C9.36679 3.81374 9.30607 3.82702 9.24966 3.85169C9.19324 3.87635 9.14224 3.91187 9.09956 3.95625C9.05688 4.00063 9.02337 4.05301 9.00092 4.11034C8.97848 4.16768 8.96755 4.22888 8.96875 4.29044V6.63325C8.97147 6.75577 9.02205 6.87234 9.10966 6.95803C9.19728 7.04372 9.31496 7.09173 9.4375 7.09173C9.56005 7.09173 9.67773 7.04372 9.76534 6.95803C9.85295 6.87234 9.90354 6.75577 9.90625 6.63325V4.29044C9.90749 4.22734 9.89598 4.16461 9.8724 4.10607C9.84882 4.04753 9.81366 3.99434 9.76904 3.94971C9.72441 3.90508 9.67123 3.86997 9.61269 3.84639C9.55415 3.82281 9.49145 3.8113 9.42835 3.81254ZM1.9375 9.44574H10.8438V25.8511H1.9375V9.44574ZM11.7822 12.7261H17.875V16.9439H11.7822V12.7261ZM18.8134 12.7261H26.3116V25.8511H18.8134V12.7261ZM9.42835 13.1902C9.30467 13.1926 9.18696 13.2439 9.10087 13.3327C9.01478 13.4215 8.96729 13.5408 8.96875 13.6645V16.0064C8.97147 16.1289 9.02205 16.2455 9.10966 16.3312C9.19728 16.4169 9.31496 16.4649 9.4375 16.4649C9.56005 16.4649 9.67773 16.4169 9.76534 16.3312C9.85295 16.2455 9.90354 16.1289 9.90625 16.0064V13.6645C9.907 13.6017 9.89512 13.5394 9.87132 13.4813C9.84752 13.4232 9.81228 13.3704 9.76771 13.3262C9.72313 13.282 9.67012 13.2472 9.61183 13.2238C9.55353 13.2004 9.49114 13.189 9.42835 13.1902V13.1902ZM24.9584 15.0708C24.941 15.0704 24.9236 15.0709 24.9063 15.0725H20.2178C20.2017 15.0717 20.1855 15.0717 20.1693 15.0725C20.0519 15.0873 19.9444 15.1461 19.8685 15.2369C19.7926 15.3276 19.7538 15.4438 19.7599 15.562C19.766 15.6802 19.8167 15.7917 19.9016 15.8741C19.9865 15.9565 20.0995 16.0037 20.2178 16.0063H24.9063C24.9688 16.0118 25.0319 16.0047 25.0916 15.9853C25.1514 15.966 25.2067 15.9348 25.2542 15.8937C25.3017 15.8525 25.3404 15.8023 25.3681 15.7459C25.3958 15.6895 25.4118 15.6281 25.4153 15.5654C25.4188 15.5027 25.4097 15.4399 25.3884 15.3808C25.3672 15.3217 25.3343 15.2674 25.2917 15.2213C25.2491 15.1751 25.1976 15.138 25.1404 15.1121C25.0831 15.0863 25.0212 15.0722 24.9584 15.0707V15.0708ZM20.6848 16.9439C20.1735 16.9439 19.7509 17.3711 19.7509 17.8823V20.6957C19.7509 20.8665 19.8009 21.0254 19.8828 21.1645C19.8011 21.3034 19.7509 21.4628 19.7509 21.6333V23.9752C19.7509 24.4864 20.1735 24.9136 20.6848 24.9136H24.4357C24.9469 24.9136 25.3732 24.4864 25.3732 23.9752V21.6333C25.3732 21.4627 25.3226 21.3035 25.2404 21.1645C25.3229 21.0254 25.3732 20.8666 25.3732 20.6957V17.8823C25.3732 17.3711 24.9469 16.9439 24.4357 16.9439H20.6848ZM11.7822 17.8823H17.875V25.8511H11.7822V17.8823ZM20.6848 17.8823H24.4357V20.6957H20.6848V17.8823ZM20.6848 21.6333H24.4357V23.9752H20.6848V21.6333Z" fill="#3E7E74" stroke="#3E7E74" stroke-width="0.2"/>
</svg>
