<svg width="22" height="21" viewBox="0 0 22 21" fill="none" xmlns="http://www.w3.org/2000/svg">
<path fill-rule="evenodd" clip-rule="evenodd" d="M15.4534 0.222453C16.6018 0.102232 17.7596 0.3343 18.773 0.887822C18.9544 0.986924 19.0785 1.16573 19.108 1.37036C19.1374 1.57499 19.0687 1.78152 18.9225 1.92772L16.2131 4.6379V5.75563H17.3309L20.041 3.04627L20.0412 3.04607L20.0421 3.04519C20.1884 2.89913 20.3949 2.8305 20.5994 2.85996C20.804 2.88942 20.9827 3.01353 21.0818 3.19492C21.6353 4.20829 21.8674 5.3661 21.7472 6.51451C21.627 7.66293 21.1601 8.74757 20.4088 9.62434C19.6574 10.5011 18.657 11.1285 17.5405 11.4231C16.5613 11.6815 15.5334 11.6732 14.5627 11.4029L5.79751 20.1715L5.79742 20.1715C5.26696 20.702 4.5475 21 3.79732 21C3.04714 21 2.32768 20.702 1.79722 20.1715C1.26676 19.6411 0.96875 18.9216 0.96875 18.1714C0.96875 17.4213 1.26676 16.7018 1.79722 16.1713L1.79731 16.1713L10.565 7.40696C10.2947 6.43622 10.2864 5.40836 10.5448 4.42913C10.8394 3.31266 11.4668 2.31227 12.3436 1.56088C13.2203 0.809493 14.305 0.342674 15.4534 0.222453ZM17.3051 1.68914C16.7526 1.52314 16.1698 1.46713 15.59 1.52782C14.7066 1.62031 13.8721 1.97943 13.1976 2.55748C12.5231 3.13552 12.0405 3.90512 11.8138 4.76403C11.5872 5.62293 11.6272 6.53046 11.9287 7.36605C12.015 7.60537 11.9553 7.87302 11.7753 8.05288L2.7253 17.0994C2.72527 17.0994 2.72524 17.0995 2.72521 17.0995C2.44094 17.3838 2.28125 17.7694 2.28125 18.1714C2.28125 18.5735 2.44098 18.9591 2.7253 19.2435C3.00961 19.5278 3.39523 19.6875 3.79732 19.6875C4.19937 19.6875 4.58496 19.5278 4.86927 19.2435C4.86929 19.2435 4.86932 19.2435 4.86934 19.2435L13.9168 10.1926C14.0966 10.0126 14.3643 9.95286 14.6036 10.0392C15.4392 10.3406 16.3467 10.3807 17.2056 10.154C18.0645 9.92739 18.8341 9.44475 19.4122 8.77025C19.9902 8.09576 20.3493 7.26134 20.4418 6.37786C20.5025 5.79813 20.4465 5.21528 20.2805 4.66276L18.0666 6.87599C17.9435 6.99902 17.7766 7.06813 17.6026 7.06813H15.5569C15.1944 7.06813 14.9006 6.77432 14.9006 6.41188V4.36613C14.9006 4.19212 14.9697 4.02523 15.0928 3.90216L17.3051 1.68914Z" fill="#3E7E74"/>
</svg>
