<svg width="18" height="22" viewBox="0 0 18 22" fill="none" xmlns="http://www.w3.org/2000/svg">
<path fill-rule="evenodd" clip-rule="evenodd" d="M6.25 12.1562C5.88756 12.1562 5.59375 12.4501 5.59375 12.8125V16.75C5.59375 17.1124 5.88756 17.4062 6.25 17.4062H12.8125C13.1749 17.4062 13.4688 17.1124 13.4688 16.75V12.8125C13.4688 12.4501 13.1749 12.1562 12.8125 12.1562H6.25ZM4.28125 12.8125C4.28125 11.7252 5.16269 10.8438 6.25 10.8438H12.8125C13.8998 10.8438 14.7812 11.7252 14.7812 12.8125V16.75C14.7812 17.8373 13.8998 18.7188 12.8125 18.7188H6.25C5.16269 18.7188 4.28125 17.8373 4.28125 16.75V12.8125Z" fill="#3E7E74"/>
<path fill-rule="evenodd" clip-rule="evenodd" d="M17.095 11.598C17.2885 11.7176 17.4062 11.9288 17.4062 12.1563V17.4063C17.4062 17.6337 17.2885 17.8449 17.095 17.9645C16.9015 18.0841 16.6599 18.0949 16.4565 17.9932L13.8315 16.6807C13.6092 16.5696 13.4688 16.3423 13.4688 16.0938V13.4688C13.4688 13.2202 13.6092 12.9929 13.8315 12.8818L16.4565 11.5693C16.6599 11.4676 16.9015 11.4784 17.095 11.598ZM14.7812 13.8743V15.6882L16.0938 16.3444V13.2181L14.7812 13.8743Z" fill="#3E7E74"/>
<path fill-rule="evenodd" clip-rule="evenodd" d="M9.06721 17.5985C9.32349 17.3422 9.73901 17.3422 9.99529 17.5985L12.6203 20.2235C12.8766 20.4797 12.8766 20.8953 12.6203 21.1515C12.364 21.4078 11.9485 21.4078 11.6922 21.1515L9.53125 18.9906L7.37029 21.1515C7.11401 21.4078 6.69849 21.4078 6.44221 21.1515C6.18593 20.8953 6.18593 20.4797 6.44221 20.2235L9.06721 17.5985Z" fill="#3E7E74"/>
<path fill-rule="evenodd" clip-rule="evenodd" d="M4.9375 1.65625C3.12532 1.65625 1.65625 3.12532 1.65625 4.9375C1.65625 6.74968 3.12532 8.21875 4.9375 8.21875C6.74968 8.21875 8.21875 6.74968 8.21875 4.9375C8.21875 3.12532 6.74968 1.65625 4.9375 1.65625ZM0.34375 4.9375C0.34375 2.40044 2.40044 0.34375 4.9375 0.34375C7.47456 0.34375 9.53125 2.40044 9.53125 4.9375C9.53125 7.47456 7.47456 9.53125 4.9375 9.53125C2.40044 9.53125 0.34375 7.47456 0.34375 4.9375Z" fill="#3E7E74"/>
<path fill-rule="evenodd" clip-rule="evenodd" d="M14.125 4.28125C13.0377 4.28125 12.1562 5.16269 12.1562 6.25C12.1562 7.33731 13.0377 8.21875 14.125 8.21875C15.2123 8.21875 16.0938 7.33731 16.0938 6.25C16.0938 5.16269 15.2123 4.28125 14.125 4.28125ZM10.8438 6.25C10.8438 4.43782 12.3128 2.96875 14.125 2.96875C15.9372 2.96875 17.4062 4.43782 17.4062 6.25C17.4062 8.06218 15.9372 9.53125 14.125 9.53125C12.3128 9.53125 10.8438 8.06218 10.8438 6.25Z" fill="#3E7E74"/>
</svg>
