<svg width="21" height="21" viewBox="0 0 21 21" fill="none" xmlns="http://www.w3.org/2000/svg">
<path fill-rule="evenodd" clip-rule="evenodd" d="M4.97817 14.6471C5.22431 14.401 5.55815 14.2627 5.90625 14.2627H10.5C10.8624 14.2627 11.1562 14.5565 11.1562 14.919V19.5127C11.1562 19.8608 11.018 20.1947 10.7718 20.4408C10.5257 20.6869 10.1918 20.8252 9.84375 20.8252H5.90625C5.55815 20.8252 5.22431 20.6869 4.97817 20.4408C4.73203 20.1947 4.59375 19.8608 4.59375 19.5127V15.5752C4.59375 15.2271 4.73203 14.8933 4.97817 14.6471ZM9.84375 15.5752L5.90625 15.5752V19.5127H9.84375V15.5752Z" fill="#3E7E74"/>
<path fill-rule="evenodd" clip-rule="evenodd" d="M9.84375 14.919C9.84375 14.5565 10.1376 14.2627 10.5 14.2627H15.0937C15.4418 14.2627 15.7757 14.401 16.0218 14.6471C16.268 14.8933 16.4062 15.2271 16.4062 15.5752V19.5127C16.4062 19.8608 16.268 20.1947 16.0218 20.4408C15.7757 20.6869 15.4418 20.8252 15.0937 20.8252H11.1562C10.8082 20.8252 10.4743 20.6869 10.2282 20.4408C9.98203 20.1947 9.84375 19.8608 9.84375 19.5127V14.919ZM11.1562 15.5752V19.5127H15.0937V15.5752H11.1562Z" fill="#3E7E74"/>
<path fill-rule="evenodd" clip-rule="evenodd" d="M7.60317 9.39715C7.84931 9.15101 8.18315 9.01273 8.53125 9.01273H12.4688C12.8168 9.01273 13.1507 9.15101 13.3968 9.39715C13.643 9.64329 13.7812 9.97713 13.7812 10.3252V14.919C13.7812 15.2814 13.4874 15.5752 13.125 15.5752H7.875C7.51256 15.5752 7.21875 15.2814 7.21875 14.919V10.3252C7.21875 9.97713 7.35703 9.64329 7.60317 9.39715ZM12.4688 10.3252H8.53125V14.2627H12.4688V10.3252Z" fill="#3E7E74"/>
<path fill-rule="evenodd" clip-rule="evenodd" d="M9.57447 0.23135C9.85948 0.0794515 10.1775 0 10.5004 0C10.8234 0 11.1414 0.0794513 11.4264 0.23135L19.9578 4.78144C20.2727 4.94943 20.5361 5.19989 20.7197 5.50598C20.9032 5.812 21.0001 6.16215 21 6.51898C21 6.51906 21 6.51891 21 6.51898V20.169C21 20.5314 20.7062 20.8252 20.3438 20.8252C19.9813 20.8252 19.6875 20.5314 19.6875 20.169V6.51898C19.6875 6.40001 19.6552 6.28303 19.5941 6.181C19.5329 6.07899 19.4451 5.99552 19.3402 5.93953M19.3402 5.93953L10.8091 1.38962C10.809 1.38959 10.8092 1.38965 10.8091 1.38962C10.7141 1.33904 10.608 1.3125 10.5004 1.3125C10.3928 1.3125 10.2869 1.33895 10.1919 1.38953C10.1919 1.38956 10.192 1.3895 10.1919 1.38953L1.6607 5.93953C1.55565 5.99546 1.4674 6.07912 1.40613 6.18116C1.34487 6.28319 1.3125 6.39997 1.3125 6.51898V20.169C1.3125 20.5314 1.01869 20.8252 0.65625 20.8252C0.293813 20.8252 0 20.5314 0 20.169V6.51898C-1.19209e-07 6.16194 0.0970973 5.81161 0.280898 5.50551C0.464624 5.19953 0.728068 4.94925 1.04305 4.78144C1.04318 4.78137 1.04292 4.78151 1.04305 4.78144L9.57447 0.23135" fill="#3E7E74"/>
</svg>
