<svg width="23" height="23" viewBox="0 0 23 23" fill="none" xmlns="http://www.w3.org/2000/svg">
<path d="M20.6 1H2.4C1.6268 1 1 1.6268 1 2.4V20.6C1 21.3732 1.6268 22 2.4 22H20.6C21.3732 22 22 21.3732 22 20.6V2.4C22 1.6268 21.3732 1 20.6 1Z" stroke="#702B68" stroke-width="1.3125" stroke-linecap="round" stroke-linejoin="round"/>
<path d="M11.5 19.2C14.9793 19.2 17.8 16.3794 17.8 12.9C17.8 9.42061 14.9793 6.60001 11.5 6.60001C8.02056 6.60001 5.19995 9.42061 5.19995 12.9C5.19995 16.3794 8.02056 19.2 11.5 19.2Z" stroke="#702B68" stroke-width="1.3125" stroke-linecap="round" stroke-linejoin="round"/>
<path d="M22 6.59999H18.066C17.2168 5.71482 16.1974 5.0105 15.069 4.52935C13.9407 4.04821 12.7267 3.80019 11.5 3.80019C10.2733 3.80019 9.05935 4.04821 7.93099 4.52935C6.80263 5.0105 5.78321 5.71482 4.934 6.59999H1" stroke="#702B68" stroke-width="1.3125" stroke-linecap="round" stroke-linejoin="round"/>
<path d="M19.2001 3.45C19.2693 3.45 19.337 3.47052 19.3945 3.50898C19.4521 3.54744 19.497 3.6021 19.5235 3.66606C19.5499 3.73001 19.5569 3.80039 19.5434 3.86828C19.5299 3.93617 19.4965 3.99854 19.4476 4.04748C19.3986 4.09643 19.3363 4.12977 19.2684 4.14327C19.2005 4.15678 19.1301 4.14985 19.0662 4.12335C19.0022 4.09686 18.9475 4.052 18.9091 3.99445C18.8706 3.93689 18.8501 3.86922 18.8501 3.8C18.8501 3.70717 18.887 3.61815 18.9526 3.55251C19.0182 3.48687 19.1073 3.45 19.2001 3.45Z" stroke="#702B68" stroke-width="1.3125" stroke-linecap="round" stroke-linejoin="round"/>
<path d="M11.5 16.4C13.433 16.4 15 14.833 15 12.9C15 10.967 13.433 9.39999 11.5 9.39999C9.567 9.39999 8 10.967 8 12.9C8 14.833 9.567 16.4 11.5 16.4Z" stroke="#702B68" stroke-width="1.3125" stroke-linecap="round" stroke-linejoin="round"/>
</svg>
