<svg width="22" height="24" viewBox="0 0 22 24" fill="none" xmlns="http://www.w3.org/2000/svg">
<path d="M13.6 16.4V18.5C13.6 18.8713 13.4525 19.2274 13.1899 19.4899C12.9274 19.7525 12.5713 19.9 12.2 19.9H9.4C9.0287 19.9 8.6726 19.7525 8.41005 19.4899C8.1475 19.2274 8 18.8713 8 18.5V16.4" stroke="#702B68" stroke-width="1.3125" stroke-linecap="round" stroke-linejoin="round"/>
<path d="M10.8 1V2.4" stroke="#702B68" stroke-width="1.3125" stroke-linecap="round" stroke-linejoin="round"/>
<path d="M1 10.8H2.4" stroke="#702B68" stroke-width="1.3125" stroke-linecap="round" stroke-linejoin="round"/>
<path d="M3.1001 3.79999L4.12676 4.78652" stroke="#702B68" stroke-width="1.3125" stroke-linecap="round" stroke-linejoin="round"/>
<path d="M20.6 10.8H19.2" stroke="#702B68" stroke-width="1.3125" stroke-linecap="round" stroke-linejoin="round"/>
<path d="M18.5001 3.79999L17.4734 4.78652" stroke="#702B68" stroke-width="1.3125" stroke-linecap="round" stroke-linejoin="round"/>
<path d="M7.92068 16.4H13.6793C14.7193 15.8838 15.5922 15.0842 16.1974 14.0934C16.8026 13.1026 17.1155 11.9609 17.1 10.8C17.0705 9.13835 16.3973 7.55299 15.2222 6.37784C14.047 5.20269 12.4617 4.52948 10.8 4.5C9.13773 4.52951 7.55183 5.20324 6.37658 6.37918C5.20133 7.55513 4.52854 9.14143 4.50001 10.8037C4.4852 11.964 4.79842 13.1049 5.4036 14.095C6.00878 15.0851 6.8813 15.8841 7.92068 16.4V16.4Z" stroke="#702B68" stroke-width="1.3125" stroke-linecap="round" stroke-linejoin="round"/>
<path d="M10.8 19.9V22" stroke="#702B68" stroke-width="1.3125" stroke-linecap="round" stroke-linejoin="round"/>
<path d="M10.8 12.9V16.4" stroke="#702B68" stroke-width="1.3125" stroke-linecap="round" stroke-linejoin="round"/>
<path d="M8.69995 10.8L10.8 12.9L12.9 10.8" stroke="#702B68" stroke-width="1.3125" stroke-linecap="round" stroke-linejoin="round"/>
</svg>
