<svg width="26" height="23" viewBox="0 0 26 23" fill="none" xmlns="http://www.w3.org/2000/svg">
<path d="M24.1538 1H2.07692C1.48215 1 1 1.48215 1 2.07692V17.6923C1 18.2871 1.48215 18.7692 2.07692 18.7692H24.1538C24.7486 18.7692 25.2308 18.2871 25.2308 17.6923V2.07692C25.2308 1.48215 24.7486 1 24.1538 1Z" stroke="#702B68" stroke-width="1.3125" stroke-linecap="round" stroke-linejoin="round"/>
<path d="M4.23071 18.7692V22" stroke="#702B68" stroke-width="1.3125" stroke-linecap="round" stroke-linejoin="round"/>
<path d="M22 18.7692V22" stroke="#702B68" stroke-width="1.3125" stroke-linecap="round" stroke-linejoin="round"/>
<path d="M15.967 4.23077H5.41748C4.76205 4.23077 4.23071 4.7621 4.23071 5.41754V14.3517C4.23071 15.0071 4.76205 15.5385 5.41748 15.5385H15.967C16.6225 15.5385 17.1538 15.0071 17.1538 14.3517V5.41754C17.1538 4.7621 16.6225 4.23077 15.967 4.23077Z" stroke="#702B68" stroke-width="1.3125" stroke-linecap="round" stroke-linejoin="round"/>
<path d="M13.9231 7.46154V12.3077" stroke="#702B68" stroke-width="1.3125" stroke-linecap="round" stroke-linejoin="round"/>
<path d="M20.7886 13.9231C20.7886 13.8432 20.8123 13.7651 20.8566 13.6987C20.901 13.6323 20.9641 13.5805 21.0379 13.55C21.1117 13.5194 21.1929 13.5114 21.2712 13.527C21.3495 13.5426 21.4215 13.581 21.478 13.6375C21.5345 13.694 21.5729 13.766 21.5885 13.8443C21.6041 13.9226 21.5961 14.0038 21.5655 14.0776C21.535 14.1514 21.4832 14.2145 21.4168 14.2589C21.3504 14.3032 21.2723 14.3269 21.1924 14.3269C21.0853 14.3269 20.9826 14.2844 20.9069 14.2086C20.8311 14.1329 20.7886 14.0302 20.7886 13.9231Z" stroke="#702B68" stroke-width="1.3125" stroke-linecap="round" stroke-linejoin="round"/>
<path d="M20.7886 9.07692C20.7886 8.99705 20.8123 8.91897 20.8566 8.85256C20.901 8.78615 20.9641 8.73438 21.0379 8.70382C21.1117 8.67325 21.1929 8.66525 21.2712 8.68084C21.3495 8.69642 21.4215 8.73488 21.478 8.79136C21.5345 8.84784 21.5729 8.9198 21.5885 8.99814C21.6041 9.07647 21.5961 9.15767 21.5655 9.23147C21.535 9.30526 21.4832 9.36833 21.4168 9.41271C21.3504 9.45708 21.2723 9.48077 21.1924 9.48077C21.0853 9.48077 20.9826 9.43822 20.9069 9.36249C20.8311 9.28675 20.7886 9.18403 20.7886 9.07692Z" stroke="#702B68" stroke-width="1.3125" stroke-linecap="round" stroke-linejoin="round"/>
</svg>
