<svg width="21" height="22" viewBox="0 0 21 22" fill="none" xmlns="http://www.w3.org/2000/svg">
<path d="M7.5625 20.6875H12.1562C12.5043 20.6875 12.8382 20.5492 13.0843 20.3031C13.3305 20.0569 13.4687 19.7231 13.4688 19.375C13.4687 19.0269 13.3305 18.6931 13.0843 18.4469C12.8382 18.2008 12.5043 18.0625 12.1562 18.0625H8.30625L6.719 15.4183C6.60238 15.224 6.43745 15.0632 6.24026 14.9516C6.04307 14.8399 5.82034 14.7813 5.59375 14.7812H2.3125C1.9644 14.7812 1.63056 14.9195 1.38442 15.1657C1.13828 15.4118 1 15.7457 1 16.0938C1 16.4418 1.13828 16.7757 1.38442 17.0218C1.63056 17.268 1.9644 17.4062 2.3125 17.4062H4.85L6.43725 20.0505C6.55387 20.2448 6.7188 20.4056 6.91599 20.5172C7.11318 20.6288 7.33591 20.6875 7.5625 20.6875ZM7.5625 20.6875H2.3125C1.9644 20.6875 1.63056 20.5492 1.38442 20.3031C1.13828 20.0569 1 19.7231 1 19.375M13.4688 11.4195C13.4686 11.7119 13.3708 11.9958 13.1909 12.2263C13.0109 12.4568 12.7592 12.6206 12.4756 12.6917L11.8386 12.851C11.5274 12.9281 11.2551 13.1165 11.0732 13.3806C10.8913 13.6447 10.8124 13.9662 10.8514 14.2845C10.8904 14.6028 11.0446 14.8958 11.2848 15.1083C11.525 15.3207 11.8347 15.4378 12.1554 15.4375C12.2627 15.4372 12.3696 15.4242 12.4739 15.399L13.1126 15.2389C13.9647 15.0266 14.7212 14.5352 15.2615 13.843C15.8018 13.1508 16.0948 12.2976 16.0938 11.4195V10.8438C16.0937 10.1476 15.8172 9.47988 15.3249 8.98759C14.8326 8.49531 14.1649 8.21875 13.4688 8.21875H9.6695C9.02162 8.21841 8.38366 8.37795 7.8122 8.68322C7.24074 8.98848 6.75344 9.43005 6.3935 9.96875L4.9375 12.1562M9.20312 3.29688C9.20313 3.90604 9.44512 4.49026 9.87586 4.92101C10.3066 5.35176 10.8908 5.59375 11.5 5.59375C12.1092 5.59375 12.6934 5.35176 13.1241 4.92101C13.5549 4.49026 13.7969 3.90604 13.7969 3.29688C13.7969 2.68771 13.5549 2.10349 13.1241 1.67274C12.6934 1.24199 12.1092 1 11.5 1C10.8908 1 10.3066 1.24199 9.87586 1.67274C9.44512 2.10349 9.20313 2.68771 9.20312 3.29688ZM15.1094 18.3906C15.1094 18.9998 15.3514 19.584 15.7821 20.0148C16.2129 20.4455 16.7971 20.6875 17.4062 20.6875C18.0154 20.6875 18.5996 20.4455 19.0304 20.0148C19.4611 19.584 19.7031 18.9998 19.7031 18.3906C19.7031 17.7815 19.4611 17.1972 19.0304 16.7665C18.5996 16.3357 18.0154 16.0938 17.4062 16.0938C16.7971 16.0938 16.2129 16.3357 15.7821 16.7665C15.3514 17.1972 15.1094 17.7815 15.1094 18.3906Z" stroke="#702B68" stroke-width="1.3125" stroke-linecap="round" stroke-linejoin="round"/>
</svg>
