<svg width="22" height="21" viewBox="0 0 22 21" fill="none" xmlns="http://www.w3.org/2000/svg">
<path d="M20.6875 4.9375V17.4062C20.6875 17.9284 20.4801 18.4292 20.1109 18.7984C19.7417 19.1676 19.2409 19.375 18.7188 19.375C18.1966 19.375 17.6958 19.1676 17.3266 18.7984C16.9574 18.4292 16.75 17.9284 16.75 17.4062V2.3125C16.75 1.9644 16.6117 1.63056 16.3656 1.38442C16.1194 1.13828 15.7856 1 15.4375 1H2.3125C1.9644 1 1.63056 1.13828 1.38442 1.38442C1.13828 1.63056 1 1.9644 1 2.3125V17.4062C1 17.9284 1.20742 18.4292 1.57663 18.7984C1.94585 19.1676 2.44661 19.375 2.96875 19.375H18.7188" stroke="#702B68" stroke-width="1.3125" stroke-linecap="round" stroke-linejoin="round"/>
<path d="M4.28125 12.8125H13.4688" stroke="#702B68" stroke-width="1.3125" stroke-linecap="round" stroke-linejoin="round"/>
<path d="M4.28125 15.4375H9.53125" stroke="#702B68" stroke-width="1.3125" stroke-linecap="round" stroke-linejoin="round"/>
<path d="M4.28125 4.28125H13.4688V9.53125H4.28125V4.28125Z" stroke="#702B68" stroke-width="1.3125" stroke-linecap="round" stroke-linejoin="round"/>
</svg>
