<svg width="22" height="22" viewBox="0 0 22 22" fill="none" xmlns="http://www.w3.org/2000/svg">
<path fill-rule="evenodd" clip-rule="evenodd" d="M19.3401 12.9345C19.6023 12.6843 20.0177 12.694 20.268 12.9561C20.9326 13.6524 21.3157 14.5702 21.3435 15.5323L21.3438 15.5512C21.3438 17.337 19.9689 18.7935 18.1079 19.7646C16.2151 20.7523 13.6458 21.3438 10.8438 21.3438C8.04175 21.3438 5.47241 20.7523 3.57964 19.7646C1.71864 18.7935 0.34375 17.337 0.34375 15.5512L0.344028 15.5321C0.372019 14.5709 0.754752 13.654 1.41849 12.9581C1.66864 12.6958 2.08404 12.686 2.34631 12.9361C2.60858 13.1863 2.61841 13.6017 2.36826 13.8639C1.93048 14.3229 1.6771 14.9269 1.65627 15.5607C1.66121 16.608 2.49013 17.7156 4.18683 18.601C5.85684 19.4725 8.20938 20.0312 10.8438 20.0312C13.4781 20.0312 15.8307 19.4725 17.5007 18.601C19.1974 17.7156 20.0263 16.6079 20.0312 15.5606C20.0106 14.9263 19.7569 14.3216 19.3185 13.8624C19.0683 13.6002 19.078 13.1848 19.3401 12.9345Z" fill="#702B68"/>
<path fill-rule="evenodd" clip-rule="evenodd" d="M7.14181 1.85635C7.37779 2.13144 7.34608 2.54575 7.07099 2.78172C6.38976 3.36609 5.95597 4.18687 5.85643 5.07802C5.86546 5.77436 6.15963 6.50139 6.52725 7.38024C6.53522 7.39928 6.54322 7.4184 6.55126 7.43761C6.89492 8.2586 7.29996 9.22626 7.29996 10.2225C7.29996 10.2448 7.29883 10.2671 7.29656 10.2893C7.16989 11.5279 6.57229 12.6706 5.62722 13.4812C5.35212 13.7172 4.93782 13.6855 4.70185 13.4104C4.46588 13.1353 4.49761 12.721 4.7727 12.485C5.45375 11.9008 5.88751 11.0804 5.98725 10.1895C5.97819 9.49276 5.684 8.76547 5.31642 7.88673C5.30838 7.8675 5.30029 7.84819 5.29217 7.8288C4.9486 7.00802 4.54371 6.04074 4.54371 5.04513C4.54371 5.02288 4.54484 5.00065 4.5471 4.97851C4.67352 3.7395 5.27114 2.59642 6.21644 1.78553C6.49153 1.54955 6.90583 1.58126 7.14181 1.85635Z" fill="#702B68"/>
<path fill-rule="evenodd" clip-rule="evenodd" d="M16.9856 1.85635C17.2215 2.13144 17.1898 2.54575 16.9147 2.78172C16.2335 3.36609 15.7997 4.18687 15.7002 5.07802C15.7092 5.77439 16.0034 6.50165 16.371 7.38059C16.379 7.39974 16.3871 7.41897 16.3952 7.43828C16.7388 8.25925 17.1437 9.2268 17.1437 10.2225C17.1437 10.2447 17.1426 10.267 17.1403 10.2891C17.0139 11.5281 16.4163 12.6712 15.471 13.4821C15.1959 13.7181 14.7816 13.6864 14.5456 13.4113C14.3096 13.1362 14.3413 12.7219 14.6164 12.4859C15.2977 11.9015 15.7315 11.0808 15.831 10.1896C15.822 9.49324 15.5278 8.76598 15.1602 7.88704C15.1522 7.86789 15.1441 7.84866 15.136 7.82935C14.7924 7.00838 14.3875 6.04082 14.3875 5.04513C14.3875 5.02288 14.3886 5.00065 14.3909 4.97851C14.5173 3.7395 15.1149 2.59642 16.0602 1.78553C16.3353 1.54955 16.7496 1.58126 16.9856 1.85635Z" fill="#702B68"/>
<path fill-rule="evenodd" clip-rule="evenodd" d="M12.2372 0.572944C12.473 0.848139 12.4411 1.26243 12.1659 1.49828C11.2884 2.25033 10.7306 3.30799 10.605 4.45596C10.6141 5.3599 10.9947 6.29393 11.4492 7.38034C11.4576 7.40057 11.4661 7.42086 11.4746 7.44121C11.9039 8.46694 12.3951 9.64064 12.3951 10.8429C12.3951 10.8651 12.394 10.8873 12.3917 10.9093C12.2394 12.4058 11.5177 13.7865 10.3758 14.7658C10.1007 15.0017 9.68642 14.97 9.45047 14.6948C9.21453 14.4197 9.24629 14.0054 9.52141 13.7695C10.3991 13.0168 10.9569 11.9585 11.0825 10.81C11.0734 9.90692 10.6929 8.97341 10.2383 7.88685C10.23 7.86701 10.2217 7.8471 10.2133 7.82715C9.78389 6.80098 9.29237 5.62651 9.29237 4.423C9.29237 4.40078 9.2935 4.37858 9.29575 4.35648C9.44819 2.86045 10.17 1.4803 11.3118 0.501716C11.587 0.26586 12.0013 0.29775 12.2372 0.572944Z" fill="#702B68"/>
</svg>
