<svg width="27" height="23" viewBox="0 0 27 23" fill="none" xmlns="http://www.w3.org/2000/svg">
<path d="M18.64 20.32H8.56C6.5556 20.3179 4.63389 19.5208 3.21657 18.1034C1.79924 16.6861 1.00208 14.7644 1 12.76C1 12.0917 1.2655 11.4507 1.73809 10.9781C2.21068 10.5055 2.85165 10.24 3.52 10.24C4.18835 10.24 4.82932 10.5055 5.30191 10.9781C5.7745 11.4507 6.04 12.0917 6.04 12.76C6.04059 13.4282 6.30628 14.0688 6.77875 14.5413C7.25121 15.0137 7.89184 15.2794 8.56 15.28H18.64C19.3082 15.2794 19.9488 15.0137 20.4213 14.5413C20.8937 14.0688 21.1594 13.4282 21.16 12.76C21.16 12.0917 21.4255 11.4507 21.8981 10.9781C22.3707 10.5055 23.0117 10.24 23.68 10.24C24.3483 10.24 24.9893 10.5055 25.4619 10.9781C25.9345 11.4507 26.2 12.0917 26.2 12.76C26.1979 14.7644 25.4008 16.6861 23.9834 18.1034C22.5661 19.5208 20.6444 20.3179 18.64 20.32V20.32Z" stroke="#702B68" stroke-width="1.3125" stroke-linecap="round" stroke-linejoin="round"/>
<path d="M4.36011 22L5.52043 19.6805" stroke="#702B68" stroke-width="1.3125" stroke-linecap="round" stroke-linejoin="round"/>
<path d="M22.84 22L21.6797 19.6805" stroke="#702B68" stroke-width="1.3125" stroke-linecap="round" stroke-linejoin="round"/>
<path d="M22.4973 10.5357L21.6013 3.84928C21.4792 3.05582 21.0771 2.33228 20.4678 1.80963C19.8585 1.28698 19.0821 0.99977 18.2793 1H8.92285C8.12026 1.00004 7.34419 1.28737 6.73508 1.80999C6.12597 2.33262 5.72405 3.05601 5.60205 3.84928L4.70605 10.5357" stroke="#702B68" stroke-width="1.3125" stroke-linecap="round" stroke-linejoin="round"/>
<path d="M17.7999 11.92V10.24C17.7999 9.79443 17.6229 9.36712 17.3078 9.05206C16.9928 8.737 16.5655 8.56 16.1199 8.56H11.0799C10.6343 8.56 10.207 8.737 9.89196 9.05206C9.5769 9.36712 9.3999 9.79443 9.3999 10.24V11.92" stroke="#702B68" stroke-width="1.3125" stroke-linecap="round" stroke-linejoin="round"/>
</svg>
