<svg width="11" height="25" viewBox="0 0 11 25" fill="none" xmlns="http://www.w3.org/2000/svg">
<path d="M7.99313 14.6767V3.79725C7.99313 3.05537 7.69842 2.34388 7.17384 1.8193C6.64925 1.29471 5.93776 1 5.19588 1C4.454 1 3.74251 1.29471 3.21792 1.8193C2.69334 2.34388 2.39863 3.05537 2.39863 3.79725V14.6767C1.76525 15.2432 1.3188 15.9887 1.11838 16.8145C0.917952 17.6403 0.972989 18.5075 1.27621 19.3013C1.57942 20.0951 2.11653 20.7782 2.81645 21.2601C3.51637 21.742 4.34611 22 5.19588 22C6.04565 22 6.87539 21.742 7.57531 21.2601C8.27523 20.7782 8.81234 20.0951 9.11555 19.3013C9.41877 18.5075 9.47381 17.6403 9.27338 16.8145C9.07295 15.9887 8.62651 15.2432 7.99313 14.6767V14.6767Z" stroke="#702B68" stroke-width="1.3125" stroke-linecap="round" stroke-linejoin="round"/>
<path d="M5.1958 5.19588V16.3849" stroke="#702B68" stroke-width="1.3125" stroke-linecap="round" stroke-linejoin="round"/>
<path d="M3.79736 17.7835C3.79736 18.1545 3.94472 18.5102 4.20701 18.7725C4.4693 19.0348 4.82505 19.1821 5.19599 19.1821C5.56693 19.1821 5.92267 19.0348 6.18497 18.7725C6.44726 18.5102 6.59462 18.1545 6.59462 17.7835C6.59462 17.4126 6.44726 17.0568 6.18497 16.7945C5.92267 16.5322 5.56693 16.3849 5.19599 16.3849C4.82505 16.3849 4.4693 16.5322 4.20701 16.7945C3.94472 17.0568 3.79736 17.4126 3.79736 17.7835V17.7835Z" stroke="#702B68" stroke-width="1.3125" stroke-linecap="round" stroke-linejoin="round"/>
</svg>
