<svg width="22" height="15" viewBox="0 0 22 15" fill="none" xmlns="http://www.w3.org/2000/svg">
<path d="M3.625 12.8125C3.625 13.1606 3.76328 13.4944 4.00942 13.7406C4.25556 13.9867 4.5894 14.125 4.9375 14.125C5.2856 14.125 5.61944 13.9867 5.86558 13.7406C6.11172 13.4944 6.25 13.1606 6.25 12.8125C6.25 12.4644 6.11172 12.1306 5.86558 11.8844C5.61944 11.6383 5.2856 11.5 4.9375 11.5C4.5894 11.5 4.25556 11.6383 4.00942 11.8844C3.76328 12.1306 3.625 12.4644 3.625 12.8125Z" stroke="#702B68" stroke-width="1.3125" stroke-linecap="round" stroke-linejoin="round"/>
<path d="M14.125 12.8125C14.125 13.1606 14.2633 13.4944 14.5094 13.7406C14.7556 13.9867 15.0894 14.125 15.4375 14.125C15.7856 14.125 16.1194 13.9867 16.3656 13.7406C16.6117 13.4944 16.75 13.1606 16.75 12.8125C16.75 12.4644 16.6117 12.1306 16.3656 11.8844C16.1194 11.6383 15.7856 11.5 15.4375 11.5C15.0894 11.5 14.7556 11.6383 14.5094 11.8844C14.2633 12.1306 14.125 12.4644 14.125 12.8125V12.8125Z" stroke="#702B68" stroke-width="1.3125" stroke-linecap="round" stroke-linejoin="round"/>
<path d="M3.625 12.8125H2.3125C1.9644 12.8125 1.63056 12.6742 1.38442 12.4281C1.13828 12.1819 1 11.8481 1 11.5V8.875C1 8.5269 1.13828 8.19306 1.38442 7.94692C1.63056 7.70078 1.9644 7.5625 2.3125 7.5625H3.625C3.9731 7.5625 4.30694 7.42422 4.55308 7.17808C4.79922 6.93194 4.9375 6.5981 4.9375 6.25V2.3125C4.9375 1.9644 5.07578 1.63056 5.32192 1.38442C5.56806 1.13828 5.9019 1 6.25 1H19.375C19.7231 1 20.0569 1.13828 20.3031 1.38442C20.5492 1.63056 20.6875 1.9644 20.6875 2.3125V11.5C20.6875 11.8481 20.5492 12.1819 20.3031 12.4281C20.0569 12.6742 19.7231 12.8125 19.375 12.8125H16.75" stroke="#702B68" stroke-width="1.3125" stroke-linecap="round" stroke-linejoin="round"/>
<path d="M6.25 12.8125H14.125" stroke="#702B68" stroke-width="1.3125" stroke-linecap="round" stroke-linejoin="round"/>
<path d="M4.9375 6.25H20.6875" stroke="#702B68" stroke-width="1.3125" stroke-linecap="round" stroke-linejoin="round"/>
<path d="M10.1875 6.25V1" stroke="#702B68" stroke-width="1.3125" stroke-linecap="round" stroke-linejoin="round"/>
<path d="M15.4375 6.25V1" stroke="#702B68" stroke-width="1.3125" stroke-linecap="round" stroke-linejoin="round"/>
<path d="M20.6875 8.875H7.5625" stroke="#702B68" stroke-width="1.3125" stroke-linecap="round" stroke-linejoin="round"/>
</svg>
