<svg width="22" height="22" viewBox="0 0 22 22" fill="none" xmlns="http://www.w3.org/2000/svg">
<path d="M5.26929 9.54198H9.54891L9.54979 4.4066" stroke="#702B68" stroke-width="1.3125" stroke-linecap="round" stroke-linejoin="round"/>
<path d="M8.18643 17.998C6.48345 17.7222 4.90366 16.9379 3.65445 15.748C2.40524 14.5582 1.54498 13.0185 1.1866 11.331C0.82823 9.64342 0.988487 7.88696 1.64634 6.29214C2.30419 4.69732 3.42889 3.33869 4.8728 2.39459C6.31671 1.45048 8.01234 0.965031 9.73711 1.00196C11.4619 1.03889 13.1352 1.59647 14.5374 2.60152C15.9395 3.60656 17.0051 5.01209 17.594 6.6336C18.183 8.25511 18.268 10.0168 17.8377 11.6875" stroke="#702B68" stroke-width="1.3125" stroke-linecap="round" stroke-linejoin="round"/>
<path d="M11.2708 16.073C11.5333 15.2855 11.8509 14.1042 13.3016 14.1042C13.8072 14.1047 14.2918 14.3057 14.6493 14.6632C15.0068 15.0206 15.2078 15.5053 15.2083 16.0108V16.0108C15.2077 16.4702 15.0253 16.9107 14.7008 17.2358L11.2708 20.6667H15.2083" stroke="#702B68" stroke-width="1.3125" stroke-linecap="round" stroke-linejoin="round"/>
<path d="M20.4583 19.3507H17.177L20.4583 14.1007V20.6632" stroke="#702B68" stroke-width="1.3125" stroke-linecap="round" stroke-linejoin="round"/>
</svg>
